<svg width="10" height="16" viewBox="0 0 10 16" fill="none" xmlns="http://www.w3.org/2000/svg">
<path d="M5.3831 7.02222C3.15324 6.49778 2.43615 5.95556 2.43615 5.11111C2.43615 4.14222 3.42829 3.46667 5.08841 3.46667C6.83693 3.46667 7.48526 4.22222 7.5442 5.33333H9.71513C9.64636 3.80444 8.61493 2.4 6.56189 1.94667V0H3.61493V1.92C1.70923 2.29333 0.176817 3.41333 0.176817 5.12889C0.176817 7.18222 2.05304 8.20444 4.79371 8.8C7.24951 9.33333 7.74067 10.1156 7.74067 10.9422C7.74067 11.5556 7.25933 12.5333 5.08841 12.5333C3.06483 12.5333 2.26916 11.7156 2.1611 10.6667H0C0.117878 12.6133 1.72888 13.7067 3.61493 14.0711V16H6.56189V14.0889C8.47741 13.76 10 12.7556 10 10.9333C10 8.40889 7.61297 7.54667 5.3831 7.02222Z" fill="#FF6A00"/>
</svg>
