<svg width="35" height="35" viewBox="0 0 35 35" fill="none" xmlns="http://www.w3.org/2000/svg">
<path d="M17.5 0C7.83563 0 0 7.83563 0 17.5C0 27.1644 7.83563 35 17.5 35C27.1644 35 35 27.1644 35 17.5C35 7.83563 27.1644 0 17.5 0ZM14.5833 23.3333H11.6667V14.5833H14.5833V23.3333ZM13.125 13.284C12.2398 13.284 11.5208 12.5606 11.5208 11.6667C11.5208 10.7742 12.2383 10.0494 13.125 10.0494C14.0117 10.0494 14.7292 10.7742 14.7292 11.6667C14.7292 12.5606 14.0102 13.284 13.125 13.284ZM24.7917 23.3333H21.8779V19.161C21.8779 16.4179 18.9583 16.6498 18.9583 19.161V23.3333H16.0417V14.5833H18.9583V16.1773C20.23 13.8206 24.7917 13.6456 24.7917 18.4348V23.3333Z" fill="#495057"/>
</svg>
