<svg width="39" height="36" viewBox="0 0 39 36" fill="none" xmlns="http://www.w3.org/2000/svg">
<path d="M37.4476 15.7176C38.7784 14.5583 38.0648 12.3691 36.3064 12.2169L26.7418 11.3891C26.0034 11.3252 25.3609 10.8582 25.0722 10.1756L21.3434 1.35883C20.6547 -0.269609 18.3467 -0.268981 17.6589 1.35983L13.9282 10.1945C13.6393 10.8786 12.9953 11.3463 12.2554 11.4093L2.70917 12.2222C0.948398 12.3721 0.23302 14.5647 1.56657 15.7242L8.83073 22.0403C9.38955 22.5262 9.63416 23.281 9.46651 24.0023L7.28731 33.378C6.88661 35.1019 8.75781 36.4584 10.2716 35.5414L18.4638 30.5788C19.1007 30.1929 19.8993 30.1929 20.5362 30.5788L28.736 35.546C30.2487 36.4624 32.119 35.1084 31.7209 33.3852L29.5527 23.9997C29.3864 23.2798 29.6306 22.5268 30.1877 22.0415L37.4476 15.7176Z" fill="#FF8833"/>
</svg>
