<svg width="35" height="35" viewBox="0 0 35 35" fill="none" xmlns="http://www.w3.org/2000/svg">
<path d="M15.9221 20.319H16.9517V25.8533H15.9221V25.2423C15.7325 25.4669 15.5342 25.639 15.3315 25.7571C14.7758 26.075 14.016 26.0677 14.016 24.9448V20.319H15.0442V24.5612C15.0442 24.7844 15.0981 24.9346 15.3183 24.9346C15.5196 24.9346 15.7981 24.6779 15.9235 24.5204V20.319H15.9221ZM16.8583 14.2217C17.15 14.2217 17.3119 13.9883 17.3119 13.6719V10.9681C17.3119 10.6429 17.169 10.414 16.8394 10.414C16.536 10.414 16.3888 10.6488 16.3888 10.9681V13.6719C16.3873 13.9781 16.5594 14.2217 16.8583 14.2217ZM14.0277 18.3502H10.4708V19.4396H11.671V25.8533H12.8304V19.4396H14.0277V18.3502ZM20.9125 21.6358V24.7056C20.9125 25.391 20.6558 25.9219 19.9719 25.9219C19.5942 25.9219 19.2806 25.7848 18.9933 25.426V25.8519H17.955V18.3488H18.9933V20.7638C19.2267 20.4808 19.5402 20.2475 19.9092 20.2475C20.6631 20.249 20.9125 20.8848 20.9125 21.6358ZM19.8523 21.6985C19.8523 21.5119 19.8173 21.3704 19.7429 21.2727C19.6175 21.1079 19.3871 21.0904 19.2077 21.1823L18.9948 21.3515V24.8004L19.2383 24.9958C19.406 25.0804 19.651 25.0863 19.7648 24.939C19.8231 24.8602 19.8538 24.7333 19.8538 24.5569V21.6985H19.8523ZM35 17.5C35 27.1644 27.1644 35 17.5 35C7.83563 35 0 27.1644 0 17.5C0 7.83563 7.83563 0 17.5 0C27.1644 0 35 7.83563 35 17.5ZM19.3288 14.2173C19.3288 14.7919 19.5037 15.2556 20.0856 15.2556C20.4123 15.2556 20.8644 15.085 21.3325 14.5294V15.171H22.4131V9.35812H21.3325V13.7696C21.2013 13.9344 20.9081 14.2056 20.6967 14.2056C20.4648 14.2056 20.4094 14.0481 20.4094 13.8133V9.35812H19.3288V14.2173ZM15.276 10.8719V13.7215C15.276 14.7467 15.8113 15.279 16.8583 15.279C17.729 15.279 18.4115 14.6971 18.4115 13.7215V10.8719C18.4115 9.96187 17.7333 9.31 16.8583 9.31C15.9075 9.31 15.276 9.94 15.276 10.8719ZM11.2496 7.29167L12.6977 11.9744V15.1696H13.9154V11.9744L15.3315 7.29167H14.0948L13.3146 10.4417L12.476 7.29167H11.2496ZM26.0065 22.1783C25.9875 18.3794 25.709 16.9254 23.3115 16.7621C21.0977 16.6104 13.8979 16.6119 11.6871 16.7621C9.2925 16.9254 9.01104 18.3721 8.99208 22.1783C9.01104 25.9788 9.28958 27.4313 11.6871 27.596C13.8979 27.7463 21.0977 27.7463 23.3115 27.596C25.7075 27.4313 25.9875 25.986 26.0065 22.1783ZM24.7158 21.8065V23.2152H22.7471V24.2594C22.7471 24.675 22.7821 25.0338 23.1963 25.0338C23.6308 25.0338 23.6556 24.7421 23.6556 24.2594V23.8744H24.7158V24.29C24.7158 25.356 24.2594 26.0021 23.1744 26.0021C22.1885 26.0021 21.6883 25.286 21.6883 24.29V21.805C21.6883 20.844 22.3227 20.1775 23.2502 20.1775C24.239 20.179 24.7158 20.806 24.7158 21.8065ZM23.6571 21.7963C23.6571 21.4229 23.5783 21.1473 23.2065 21.1473C22.8258 21.1473 22.7485 21.4156 22.7485 21.7963V22.3577H23.6571V21.7963Z" fill="#495057"/>
</svg>
