<svg width="124" height="154" viewBox="0 0 124 154" fill="none" xmlns="http://www.w3.org/2000/svg">
<path d="M123.421 1.91833H9.59229V144.524H123.421V1.91833Z" fill="url(#paint0_linear)"/>
<path d="M122.142 3.83688H10.8713V141.966H122.142V3.83688Z" fill="white"/>
<ellipse cx="28.4571" cy="28.1376" rx="9.27255" ry="9.59229" fill="#FAB072"/>
<path d="M94.0045 19.1846H47.322V21.7425H94.0045V19.1846Z" fill="#C0BCCF"/>
<path d="M94.0045 26.2188H47.322V28.7768H94.0045V26.2188Z" fill="#C0BCCF"/>
<path d="M82.4938 33.8928H58.1934V35.8113H82.4938V33.8928Z" fill="#FF6A00"/>
<path opacity="0.5" d="M94.0045 64.588H47.322V67.146H94.0045V64.588Z" fill="#C0BCCF"/>
<path opacity="0.5" d="M94.0045 72.262H47.322V74.1804H94.0045V72.262Z" fill="#C0BCCF"/>
<path opacity="0.5" d="M82.4938 79.2964H58.1934V81.2148H82.4938V79.2964Z" fill="#FAB072"/>
<path opacity="0.5" d="M94.0045 109.992H47.322V112.55H94.0045V109.992Z" fill="#C0BCCF"/>
<path opacity="0.5" d="M94.0045 117.666H47.322V119.584H94.0045V117.666Z" fill="#C0BCCF"/>
<path opacity="0.5" d="M82.4938 124.7H58.1934V126.618H82.4938V124.7Z" fill="#FAB072"/>
<path d="M80.3982 103.475H80.4263C80.4674 104.737 80.6453 105.879 80.9879 106.196C81.8041 106.949 85.1887 105.442 84.9565 104.53C84.9097 104.342 84.8311 104.033 84.7319 103.643C85.6454 103.528 86.4261 103.266 86.7368 102.727L87.3246 104.551L87.3658 104.681H87.3771H87.4107C87.7983 108.377 88.6762 116.054 89.3782 117.082C90.3142 118.445 91.3907 124.348 91.3907 124.348L93.4031 136.457C93.4031 136.457 94.1781 143.429 94.6423 144.182C94.7774 144.326 94.9568 144.42 95.1515 144.448C94.8801 145.266 94.4907 146.221 94.0283 146.754C93.0923 147.813 91.8605 149.933 90.7766 149.782C89.6927 149.631 89.3838 151.902 91.3963 152.203C92.5101 152.371 94.2867 152.167 95.6514 151.952C95.6514 152.559 96.0707 153.256 97.1246 153.415C99.1371 153.718 103.317 152.81 103.317 152.81C103.317 152.81 106.874 151.302 107.033 150.236C107.146 149.464 106.601 146.362 106.298 144.736C106.859 143.83 106.26 136.009 106.26 136.009L105.176 121.024C105.176 121.024 105.796 112.7 105.176 111.185C104.789 110.243 104.645 105.909 104.59 102.81L105.339 102.859C105.382 102.807 105.42 102.752 105.455 102.695L105.642 102.708C105.642 102.708 106.578 101.649 105.798 99.9835C105.223 98.7456 105.332 93.1572 105.423 90.3742L105.534 89.0553C105.575 89.0153 105.606 88.9663 105.625 88.9121C107.077 88.7148 108.489 88.2847 109.806 87.6384C110.203 87.4721 110.573 87.246 110.903 86.9677C111.678 86.214 111.212 81.6694 109.663 74.8581C108.115 68.0469 106.722 68.6517 106.722 68.6517C106.722 68.6517 103.007 68.3484 101.303 66.0779C99.5994 63.8075 98.4556 63.8377 98.4556 63.8377C98.4126 63.54 98.3826 63.2592 98.362 62.9973C98.362 62.8994 98.3471 62.8089 98.3414 62.7109C98.9206 62.1688 99.3622 61.495 99.6294 60.7458C99.9776 60.5573 100.406 60.4952 100.739 60.2578C100.824 60.1956 100.902 60.1235 100.97 60.043C101.304 59.7329 101.516 59.3122 101.567 58.8578C101.62 58.3617 101.597 57.8602 101.498 57.3712C101.38 56.6477 101.206 55.9072 100.786 55.3382C100.367 54.7692 99.7398 54.4263 99.1352 54.1078C97.4978 53.2424 95.856 52.3857 94.2099 51.5378C93.8883 51.3401 93.5294 51.2117 93.156 51.161C92.497 51.1233 91.9054 51.5774 91.3738 52.0089C91.1617 52.1769 90.9586 52.3561 90.7654 52.5459C90.6011 52.6924 90.4513 52.8546 90.318 53.0301C89.6965 53.8685 89.4325 55.4475 89.7058 56.4951C89.792 56.8267 89.9773 56.9228 90.2057 56.919C89.8668 57.5971 89.6904 58.3456 89.6909 59.1046C89.6945 59.9357 89.9058 60.7524 90.3052 61.4797C90.7047 62.207 91.2794 62.8216 91.9766 63.2668C91.9766 63.3723 91.9766 63.4759 91.986 63.5758C91.9936 63.9624 91.9811 64.3492 91.9485 64.7345C91.9485 64.7345 87.8301 66.9748 87.3677 68.0337C86.9053 69.0926 85.1999 69.85 85.1999 69.85C85.1999 69.85 81.9482 71.5156 81.9482 77.4187L80.2447 85.743L79.9358 101.636C79.9358 101.636 80.1492 101.447 80.4974 101.18C80.4862 101.285 80.4768 101.395 80.4674 101.506C80.4211 102.113 80.4054 102.723 80.4206 103.332L80.3982 103.475ZM101.196 144.608C101.133 144.851 101.039 145.173 100.921 145.55C100.869 145.237 100.816 144.928 100.764 144.634C100.899 144.621 101.043 144.614 101.196 144.608Z" fill="url(#paint1_linear)"/>
<path d="M95.5607 142.413C95.5607 142.413 94.9687 145.095 94.076 146.136C93.1833 147.178 92.0141 149.265 90.9822 149.115C89.9503 148.966 89.6515 151.2 91.5742 151.498C93.4969 151.795 97.4779 150.903 97.4779 150.903C97.4779 150.903 100.878 149.407 101.025 148.371C101.171 147.335 100.137 141.966 100.137 141.966L95.5607 142.413Z" fill="#53526B"/>
<path opacity="0.05" d="M95.5607 142.413C95.5607 142.413 94.9687 145.095 94.076 146.136C93.1833 147.178 92.0141 149.265 90.9822 149.115C89.9503 148.966 89.6515 151.2 91.5742 151.498C93.4969 151.795 97.4779 150.903 97.4779 150.903C97.4779 150.903 100.878 149.407 101.025 148.371C101.171 147.335 100.137 141.966 100.137 141.966L95.5607 142.413Z" fill="black"/>
<path d="M101.315 143.694C101.315 143.694 100.723 146.375 99.8313 147.416C98.9393 148.458 97.7654 150.544 96.7362 150.395C95.707 150.245 95.4066 152.48 97.3278 152.777C99.249 153.074 103.236 152.18 103.236 152.18C103.236 152.18 106.633 150.685 106.78 149.649C106.926 148.613 105.893 143.245 105.893 143.245L101.315 143.694Z" fill="#53526B"/>
<path d="M87.6096 102.957C87.6096 102.957 88.8291 115.847 89.7441 117.197C90.6592 118.546 91.7255 124.392 91.7255 124.392L93.7068 136.383C93.7068 136.383 94.4726 143.279 94.9263 144.028C95.38 144.777 101.039 144.455 101.039 144.455L97.5202 104.755L87.6096 102.957Z" fill="#5F5D7E"/>
<path opacity="0.05" d="M87.6096 102.957C87.6096 102.957 88.8291 115.847 89.7441 117.197C90.6592 118.546 91.7255 124.392 91.7255 124.392L93.7068 136.383C93.7068 136.383 94.4726 143.279 94.9263 144.028C95.38 144.777 101.039 144.455 101.039 144.455L97.5202 104.755L87.6096 102.957Z" fill="black"/>
<path d="M85.0518 96.5623L85.4431 97.81L87.5599 104.551L87.6013 104.679H87.6126C87.8967 104.744 93.895 106.127 95.1896 106.552C95.2594 106.574 95.3279 106.6 95.3946 106.629C95.9949 106.93 96.7437 117.754 96.7437 117.754C96.7437 117.754 97.1934 127.978 97.4963 128.729C97.7993 129.48 99.0016 144.963 99.7448 144.514C100.488 144.065 105.888 144.514 105.888 144.514C106.488 143.912 105.888 135.795 105.888 135.795L104.823 120.914C104.823 120.914 105.423 112.646 104.823 111.141C104.223 109.637 104.223 99.5656 104.223 99.5656L91.957 97.642L90.7717 97.4533L85.0518 96.5623Z" fill="#5F5D7E"/>
<path opacity="0.02" d="M85.6912 97.6462L87.7474 104.697L87.7968 104.836C88.0728 104.903 93.8998 106.35 95.1573 106.794H95.2835L92.0281 97.4705L91.9349 97.202L90.8766 97.275L85.6912 97.6462Z" fill="black"/>
<path opacity="0.1" d="M99.3789 66.5067C99.3789 66.5067 93.8135 72.5622 90.3538 67.5654L87.0452 69.8367L87.6476 73.3187L85.6912 99.6562C85.6912 99.6562 90.8052 99.5041 94.4141 100.715C95.4192 101.074 96.5052 101.136 97.5444 100.895C98.5835 100.653 99.5325 100.118 100.28 99.3521L99.6848 76.1944L101.039 69.0802L99.3789 66.5067Z" fill="black"/>
<path d="M99.3789 66.5067C99.3789 66.5067 93.8135 72.4501 90.3538 67.5458L87.0452 69.775L87.6476 73.1926L85.6912 99.0423C85.6912 99.0423 90.8052 98.8931 94.4141 100.081C95.4192 100.434 96.5052 100.495 97.5444 100.258C98.5835 100.021 99.5325 99.4956 100.28 98.7438L99.6848 76.015L101.039 69.0326L99.3789 66.5067Z" fill="#53526B"/>
<path d="M88.4757 92.9269V93.8721H88.1745V93.2432H87.0729V93.8721H86.7698V92.9288L88.4757 92.9269Z" fill="#E82127"/>
<path d="M88.2066 92.622H87.0429C86.9667 92.6037 86.8969 92.5649 86.8411 92.5098C86.7853 92.4547 86.7457 92.3854 86.7266 92.3094H88.521C88.5017 92.3853 88.462 92.4545 88.4063 92.5096C88.3505 92.5647 88.2808 92.6035 88.2047 92.622" fill="#E82127"/>
<path d="M98.7286 92.3204C98.7088 92.3956 98.6691 92.4641 98.6138 92.5187C98.5585 92.5733 98.4896 92.6122 98.4142 92.6311H97.9246L97.9001 92.6405V93.8758H97.5989V92.6405L97.5706 92.6311H97.0811C97.0059 92.6116 96.9373 92.5726 96.882 92.5181C96.8268 92.4635 96.787 92.3953 96.7666 92.3204H98.7286Z" fill="#E82127"/>
<path d="M88.249 97.202C88.249 97.202 88.249 101.012 87.269 102.623C86.2891 104.235 80.5752 103.359 80.5752 103.359L81.7171 97.9378L88.249 97.202Z" fill="#D6DBE6"/>
<path d="M81.1357 106.577C81.9392 107.378 85.2699 105.776 85.0403 104.824C84.8796 104.149 84.3171 101.736 83.9976 100.367L83.7757 99.4041C83.7757 99.4041 81.8244 98.7656 81.1357 99.4041C80.8851 99.6362 80.709 100.551 80.6268 101.656C80.4852 103.575 80.6287 106.069 81.1357 106.577Z" fill="#FDC2CC"/>
<path d="M88.8887 68.8984L94.1833 72.9015C94.1833 72.9015 102.05 72.4565 100.084 68.7494C99.2278 67.119 98.7111 65.338 98.5641 63.51C98.5002 62.8356 98.5002 62.1568 98.5641 61.4824C98.5641 61.4824 91.3014 54.9657 92.2094 62.3724C92.281 62.9409 92.3229 63.5126 92.3348 64.0853C92.4431 69.645 88.8887 68.8984 88.8887 68.8984Z" fill="#FDC2CC"/>
<path opacity="0.1" d="M92.1641 62.1954C92.2352 62.735 92.2768 63.2776 92.2888 63.8212C93.0991 64.3233 94.0501 64.5902 95.0221 64.5882C96.3689 64.5882 97.3606 63.3617 98.256 62.5471C98.1559 61.379 98.4808 61.3507 98.4808 61.3507C98.4808 61.3507 91.2612 55.1585 92.1641 62.1954Z" fill="black"/>
<path d="M94.9636 64.5882C97.6125 64.5882 99.7598 62.2977 99.7598 59.4723C99.7598 56.6468 97.6125 54.3564 94.9636 54.3564C92.3148 54.3564 90.1675 56.6468 90.1675 59.4723C90.1675 62.2977 92.3148 64.5882 94.9636 64.5882Z" fill="#FDC2CC"/>
<path opacity="0.1" d="M98.6338 63.9487C98.6338 63.9487 99.4497 64.0248 101.082 66.2959C102.714 68.567 106.274 68.8714 106.274 68.8714C106.274 68.8714 107.609 68.2646 109.092 75.0818C110.575 81.899 111.021 86.4432 110.279 87.2002C109.538 87.9572 106.57 89.0205 105.08 89.0205C105.08 89.0205 104.634 98.5635 105.376 100.23C106.117 101.896 105.227 102.957 105.227 102.957L98.7064 102.503C98.7064 102.503 96.4802 99.6248 96.0349 94.6261C95.5897 89.6273 94.1068 75.3861 94.8482 73.7199C95.5897 72.0536 98.8536 67.8119 98.7064 67.3573C98.5592 66.9027 98.6338 63.9487 98.6338 63.9487Z" fill="black"/>
<path d="M98.3512 63.9487C98.3512 63.9487 99.4487 63.9182 101.081 66.1975C102.713 68.4767 106.273 68.78 106.273 68.78C106.273 68.78 107.609 68.1715 109.092 75.0074C110.575 81.8433 111.021 86.3999 110.279 87.159C109.537 87.9181 106.569 88.9824 105.086 88.9824C105.086 88.9824 104.64 98.5514 105.382 100.222C106.124 101.893 105.233 102.957 105.233 102.957L98.7108 102.502C98.7108 102.502 96.484 99.6157 96.0387 94.6033C95.5933 89.5908 94.1063 75.3126 94.8479 73.6494C95.5896 71.9862 98.8543 67.7252 98.7071 67.2694C98.5599 66.8135 98.3512 63.9487 98.3512 63.9487Z" fill="#D6DBE6"/>
<path opacity="0.1" d="M81.2148 101.678C81.9062 101.091 83.211 100.176 84.4123 100.378L84.2018 99.4066C84.2018 99.4066 82.3508 98.7624 81.6975 99.4066C81.4562 99.6408 81.2911 100.562 81.2148 101.678Z" fill="black"/>
<path opacity="0.1" d="M92.0072 65.2277C92.0072 65.2277 88.0938 67.6837 87.6333 68.7266C87.1727 69.7695 85.4848 70.5134 85.4848 70.5134C85.4848 70.5134 82.2631 72.1507 82.2631 77.956L80.5752 86.1425L88.2479 96.5625C88.2479 96.5625 89.169 86.1425 89.6295 83.6118C90.09 81.0811 90.7027 76.3225 90.7027 76.3225C90.7027 76.3225 93.0053 73.4946 92.697 72.7507C92.3887 72.0068 92.0072 65.2277 92.0072 65.2277Z" fill="black"/>
<path d="M92.1865 65.2277C92.1865 65.2277 88.2058 67.4411 87.7585 68.4868C87.3112 69.5325 85.6629 70.2816 85.6629 70.2816C85.6629 70.2816 82.5204 71.9261 82.5204 77.7572L80.874 85.98L80.5752 101.678C80.5752 101.678 83.2703 99.1365 85.2156 100.332C87.1608 101.528 88.3581 96.4444 88.3581 96.4444C88.3581 96.4444 89.2564 85.9781 89.7056 83.4362C90.1548 80.8942 90.7525 76.1145 90.7525 76.1145C90.7525 76.1145 92.9984 73.2741 92.6977 72.5269C92.397 71.7797 92.1865 65.2277 92.1865 65.2277Z" fill="#D6DBE6"/>
<path opacity="0.1" d="M90.8246 53.4908C91.0654 53.1701 91.3437 52.8823 91.653 52.6344C92.1422 52.2081 92.6832 51.7631 93.2902 51.8005C93.6336 51.8484 93.9634 51.9721 94.2578 52.1633C95.7694 52.9972 97.2768 53.8398 98.7801 54.6911C99.3353 55.0052 99.9084 55.3381 100.296 55.9027C100.683 56.4674 100.84 57.1928 100.949 57.9033C101.04 58.3846 101.062 58.8774 101.014 59.3654C100.969 59.8438 100.747 60.2849 100.396 60.5938C99.9905 60.9023 99.4353 60.9042 99.0961 61.3081C98.8997 61.5418 98.814 61.869 98.6748 62.1532C98.5355 62.4374 98.2945 62.7141 98.0195 62.6636C97.7446 62.6131 97.5786 62.3084 97.5393 61.9999C97.5218 61.6872 97.5392 61.3734 97.5911 61.065C97.6446 60.5041 97.5768 59.9095 97.2661 59.4926C97.0519 59.2084 96.7448 59.0364 96.5377 58.7447C96.0414 58.0417 96.2681 56.875 95.7236 56.2149C95.5655 56.0424 95.3665 55.9169 95.1469 55.8512C94.9274 55.7855 94.6951 55.782 94.4739 55.841C94.0329 55.9382 93.6294 56.1888 93.2241 56.4019C92.6766 56.6912 92.1031 56.9229 91.512 57.0937C91.0157 57.2358 90.4408 57.5761 90.2712 56.8843C90.0123 55.8691 90.2533 54.3153 90.8246 53.4908Z" fill="black"/>
<path d="M90.8641 53.4908C91.1189 53.1701 91.4136 52.8823 91.7411 52.6344C92.259 52.2081 92.8318 51.7631 93.4745 51.8005C93.838 51.8484 94.1872 51.9721 94.499 52.1633C96.0981 52.9972 97.4269 52.2081 99.2869 54.6911C99.6838 55.2221 100.482 55.3381 100.892 55.9027C101.302 56.4674 101.468 57.1928 101.584 57.9033C101.68 58.3846 101.703 58.8774 101.652 59.3654C101.605 59.8438 101.37 60.2849 100.998 60.5938C100.568 60.9023 99.9806 60.9042 99.6215 61.3081C99.4135 61.5418 99.3228 61.869 99.1754 62.1532C99.0279 62.4374 98.7727 62.7141 98.4816 62.6636C98.1906 62.6131 98.0148 62.3084 97.9732 61.9999C97.9547 61.6872 97.9731 61.3734 98.028 61.065C98.0847 60.5041 98.0129 59.9095 97.684 59.4926C97.4572 59.2084 97.132 59.0364 96.9128 58.7447C96.3873 58.0417 96.6273 56.875 96.0508 56.2149C95.8834 56.0424 95.6728 55.9169 95.4403 55.8512C95.2079 55.7855 94.9619 55.782 94.7277 55.841C94.2608 55.9382 93.8336 56.1888 93.4045 56.4019C92.8249 56.6912 92.2177 56.9229 91.5918 57.0937C91.0663 57.2358 90.4577 57.5761 90.2781 56.8843C90.0021 55.8691 90.2592 54.3134 90.8641 53.4908Z" fill="#865A61"/>
<path opacity="0.1" d="M104.463 76.0991C104.463 76.0991 106.453 81.5348 104.96 83.7729L101.678 82.97C101.678 82.97 104.662 83.9295 104.214 82.0105C103.767 80.0915 104.463 76.0991 104.463 76.0991Z" fill="black"/>
<path opacity="0.1" d="M105.515 88.9318C105.515 88.9318 101.004 89.2721 99.7598 88.249C101.398 89.6196 103.333 90.5009 105.375 90.8069L105.515 88.9318Z" fill="black"/>
<path opacity="0.1" d="M86.3306 79.2964C86.3306 79.2964 84.2815 86.1682 84.4187 87.2129C84.5559 88.2575 84.8285 99.7599 84.8285 99.7599L85.2383 99.6099L85.1011 87.0628L86.3306 79.2964Z" fill="black"/>
<path d="M105.858 87.92L54.3792 46.5413C54.0796 46.2426 53.7238 46.0058 53.3323 45.8444C52.9407 45.683 52.5211 45.6003 52.0975 45.6009H49.9101C54.2813 40.0136 56.3513 32.9737 55.698 25.9166C55.0447 18.8595 51.7174 12.3166 46.3944 7.62211C41.0715 2.9276 34.1537 0.434961 27.0517 0.652434C19.9498 0.869907 13.1983 3.78112 8.17411 8.79247C3.14988 13.8038 0.231187 20.5379 0.0131551 27.6217C-0.204877 34.7055 2.29417 41.6055 7.00074 46.9148C11.7073 52.2242 18.267 55.543 25.3422 56.1946C32.4174 56.8462 39.4755 54.7815 45.0771 50.4215V52.6014C45.0765 53.024 45.1594 53.4425 45.3212 53.833C45.483 54.2235 45.7205 54.5784 46.02 54.8772L97.4991 96.2559C97.7971 96.5556 98.1516 96.7935 98.5423 96.9558C98.9329 97.1182 99.3519 97.2017 99.7751 97.2017C100.198 97.2017 100.617 97.1182 101.008 96.9558C101.399 96.7935 101.753 96.5556 102.051 96.2559L105.845 92.4754C106.45 91.872 106.792 91.0541 106.794 90.2004C106.797 89.3468 106.46 88.5269 105.858 87.92ZM27.891 45.6009C24.4919 45.6009 21.1691 44.5955 18.3429 42.7119C15.5167 40.8283 13.3139 38.1511 12.0131 35.0188C10.7123 31.8865 10.372 28.4398 11.0351 25.1146C11.6982 21.7893 13.3351 18.7349 15.7386 16.3376C18.1421 13.9402 21.2044 12.3076 24.5382 11.6461C27.8719 10.9847 31.3275 11.3242 34.4678 12.6216C37.6082 13.9191 40.2923 16.1162 42.1807 18.9352C44.0692 21.7542 45.0771 25.0684 45.0771 28.4588C45.0788 30.7106 44.6355 32.9407 43.7725 35.0214C42.9095 37.1022 41.6437 38.9929 40.0475 40.5853C38.4513 42.1777 36.5561 43.4407 34.4702 44.3019C32.3843 45.1632 30.1486 45.6059 27.891 45.6046V45.6009Z" fill="url(#paint2_linear)"/>
<path d="M106.498 87.2807L55.0186 45.902C54.719 45.6033 54.3632 45.3664 53.9717 45.2051C53.5801 45.0437 53.1605 44.961 52.7369 44.9616H50.5495C54.9207 39.3743 56.9907 32.3344 56.3374 25.2773C55.6841 18.2201 52.3568 11.6773 47.0338 6.9828C41.7109 2.28829 34.7931 -0.204352 27.6911 0.0131213C20.5892 0.230594 13.8377 3.1418 8.81351 8.15316C3.78928 13.1645 0.870591 19.8986 0.652559 26.9824C0.434528 34.0662 2.93357 40.9662 7.64014 46.2755C12.3467 51.5848 18.9064 54.9037 25.9816 55.5553C33.0569 56.2069 40.1149 54.1422 45.7165 49.7822V51.9621C45.7159 52.3847 45.7988 52.8032 45.9606 53.1937C46.1224 53.5842 46.3599 53.9391 46.6594 54.2379L98.1385 95.6166C98.4365 95.9163 98.791 96.1542 99.1817 96.3165C99.5723 96.4788 99.9913 96.5624 100.415 96.5624C100.838 96.5624 101.257 96.4788 101.647 96.3165C102.038 96.1542 102.393 95.9163 102.691 95.6166L106.485 91.8361C107.09 91.2327 107.431 90.4148 107.434 89.5611C107.436 88.7075 107.1 87.8876 106.498 87.2807ZM28.5304 44.9616C25.1313 44.9616 21.8085 43.9562 18.9823 42.0726C16.1561 40.189 13.9533 37.5118 12.6525 34.3795C11.3517 31.2472 11.0114 27.8005 11.6745 24.4753C12.3376 21.15 13.9745 18.0956 16.378 15.6982C18.7815 13.3009 21.8438 11.6683 25.1776 11.0068C28.5113 10.3454 31.9669 10.6849 35.1072 11.9823C38.2476 13.2798 40.9317 15.4769 42.8201 18.2959C44.7086 21.1149 45.7165 24.4291 45.7165 27.8195C45.7183 30.0713 45.2749 32.3013 44.4119 34.3821C43.5489 36.4629 42.2831 38.3535 40.6869 39.946C39.0907 41.5384 37.1955 42.8014 35.1096 43.6626C33.0237 44.5239 30.788 44.9666 28.5304 44.9653V44.9616Z" fill="#FF6A00"/>
<path d="M102.318 83.7409C102.318 83.7409 94.9926 74.5693 96.022 80.863C96.7573 85.3384 99.5347 87.7366 100.853 88.2163C102.171 88.6959 102.318 83.7409 102.318 83.7409Z" fill="#FDC2CC"/>
<path d="M104.226 75.4593C104.226 75.4593 104.382 81.0896 105.155 81.85C105.928 82.6103 104.691 83.5236 104.691 83.5236L101.596 82.7594C101.596 82.7594 102.373 87.7802 99.1204 87.1726C99.1204 87.1726 101.287 89.15 103.453 89.4557C105.62 89.7614 105.464 88.9991 105.464 88.9991L108.713 85.1953L104.226 75.4593Z" fill="#D6DBE6"/>
<path d="M104.787 88.8886L108.073 88.2832L107.634 87.0127L105.601 86.3306L102.957 87.3538L104.787 88.8886Z" fill="#D6DBE6"/>
<ellipse cx="28.4571" cy="72.262" rx="9.27255" ry="9.59229" fill="#E0E0E0"/>
<ellipse cx="28.4571" cy="118.305" rx="9.27255" ry="9.59229" fill="#E0E0E0"/>
<defs>
<linearGradient id="paint0_linear" x1="66.5066" y1="144.526" x2="66.5066" y2="1.91833" gradientUnits="userSpaceOnUse">
<stop stop-color="#808080" stop-opacity="0.25"/>
<stop offset="0.54" stop-color="#808080" stop-opacity="0.12"/>
<stop offset="1" stop-color="#808080" stop-opacity="0.1"/>
</linearGradient>
<linearGradient id="paint1_linear" x1="-32761.7" y1="88863" x2="-32761.7" y2="33304.4" gradientUnits="userSpaceOnUse">
<stop stop-color="#808080" stop-opacity="0.25"/>
<stop offset="0.54" stop-color="#808080" stop-opacity="0.12"/>
<stop offset="1" stop-color="#808080" stop-opacity="0.1"/>
</linearGradient>
<linearGradient id="paint2_linear" x1="51102.1" y1="54862.6" x2="51102.1" y2="5270.05" gradientUnits="userSpaceOnUse">
<stop stop-color="#808080" stop-opacity="0.25"/>
<stop offset="0.54" stop-color="#808080" stop-opacity="0.12"/>
<stop offset="1" stop-color="#808080" stop-opacity="0.1"/>
</linearGradient>
</defs>
</svg>
