<svg width="384" height="280" viewBox="0 0 384 280" fill="none" xmlns="http://www.w3.org/2000/svg">
<path opacity="0.1" d="M10.6085 176.249C6.0043 176.99 0.229859 179.11 0.283575 184.038C0.310433 186.538 1.98713 188.67 3.61779 190.497C10.5487 198.318 18.4559 205.234 27.1491 211.079C31.3006 213.864 35.7628 216.528 38.5215 220.832C41.2802 225.137 41.9746 230.616 42.1933 235.829C42.7313 248.171 41.2622 260.518 37.8424 272.399C51.3595 274.948 66.4345 277.182 77.6994 269.131C84.4446 264.31 89.0066 256.232 96.5229 252.888C101.542 250.654 107.224 250.852 112.695 251.137C138.594 252.487 164.429 255.02 190.199 258.736C200.992 260.294 211.993 262.057 222.67 260.043C233.348 258.029 243.854 251.46 247.79 240.81C248.396 239.169 248.941 237.337 250.3 236.349C251.527 235.468 253.135 235.487 254.627 235.54L344.824 238.61C349.766 238.777 354.88 238.914 359.404 236.9C363.789 234.951 367.162 231.201 370.408 227.527C377.832 219.145 385.817 208.834 383.633 197.458C381.888 188.339 374.084 181.968 366.345 177.507C358.606 173.046 350.069 169.395 344.383 162.263C335.731 151.408 336.072 135.872 335.535 121.788C335.045 109.034 333.46 96.3449 330.796 83.8576C328.452 72.8809 325.187 61.8891 319.082 52.6184C312.978 43.3477 303.643 35.9235 293.084 34.5633C279.294 32.7851 265.432 41.3035 251.942 37.6864C240.546 34.6469 232.704 23.845 223.261 16.36C206.491 3.06188 184.482 0.276867 163.675 0.0223022C141.613 -0.255059 118.968 1.95623 99.3046 12.2148C94.8002 14.5629 90.3955 17.4049 87.2762 21.5539C82.4955 27.918 81.3368 36.4668 78.2097 43.9062C65.6057 73.8612 24.613 80.3203 11.3068 109.956C6.58366 120.469 6.6297 132.73 10.0713 143.771C13.7739 155.652 24.1947 162.214 28.327 172.571C23.8801 175.406 15.9993 175.379 10.6085 176.249Z" fill="#FF8833"/>
<g opacity="0.2">
<path opacity="0.2" d="M339.767 140.925C339.767 140.925 341.609 116.696 355.437 103.531C361.272 98.0457 365.154 90.8344 366.498 82.9792C367.102 79.245 367.359 75.4639 367.266 71.6833" stroke="#535461" stroke-width="2" stroke-miterlimit="10"/>
<path opacity="0.2" d="M375.947 63.3361C374.927 65.9957 367.084 71.9267 367.084 71.9267C367.084 71.9267 365.166 62.3482 366.179 59.6772C366.421 59.0418 366.788 58.4599 367.257 57.9648C367.727 57.4697 368.291 57.0711 368.916 56.7916C369.541 56.5122 370.216 56.3575 370.902 56.3363C371.587 56.3151 372.271 56.4278 372.912 56.668C373.554 56.9083 374.141 57.2713 374.641 57.7365C375.141 58.2016 375.544 58.7597 375.826 59.3789C376.108 59.998 376.265 60.6662 376.286 61.3452C376.307 62.0242 376.194 62.7007 375.951 63.3361H375.947Z" fill="#FF8833"/>
<path opacity="0.2" d="M378.372 81.1594C376.051 82.8539 366.217 83.5986 366.217 83.5986C366.217 83.5986 369.858 74.5217 372.18 72.8271C372.732 72.4245 373.359 72.1335 374.025 71.9707C374.69 71.808 375.382 71.7767 376.06 71.8787C376.738 71.9807 377.389 72.2139 377.976 72.565C378.563 72.9161 379.075 73.3783 379.481 73.9252C379.888 74.472 380.182 75.0928 380.346 75.7522C380.51 76.4115 380.542 77.0964 380.439 77.7678C380.336 78.4392 380.101 79.0839 379.746 79.6652C379.391 80.2465 378.925 80.7529 378.372 81.1556V81.1594Z" fill="#FF8833"/>
<path opacity="0.2" d="M368.362 106.32C365.492 106.62 356.625 102.35 356.625 102.35C356.625 102.35 364.395 96.3352 367.261 96.0313C368.639 95.8867 370.018 96.29 371.095 97.1525C372.173 98.0151 372.86 99.2661 373.006 100.631C373.152 101.995 372.745 103.361 371.874 104.428C371.003 105.495 369.74 106.176 368.362 106.32Z" fill="#FF8833"/>
<path opacity="0.2" d="M356.459 123.668C353.681 124.428 344.211 121.719 344.211 121.719C344.211 121.719 350.841 114.5 353.619 113.714C354.279 113.529 354.97 113.475 355.651 113.554C356.332 113.634 356.991 113.846 357.589 114.177C358.188 114.509 358.715 114.954 359.139 115.487C359.564 116.021 359.879 116.631 360.065 117.285C360.252 117.939 360.306 118.622 360.226 119.297C360.146 119.971 359.932 120.624 359.597 121.216C359.262 121.809 358.812 122.331 358.274 122.751C357.736 123.172 357.119 123.484 356.459 123.668Z" fill="#FF8833"/>
<path opacity="0.2" d="M355.761 80.278C356.985 82.8654 365.265 88.1695 365.265 88.1695C365.265 88.1695 366.443 78.4732 365.219 75.8858C364.928 75.2708 364.517 74.7187 364.01 74.2609C363.504 73.8031 362.911 73.4487 362.266 73.2177C361.621 72.9868 360.936 72.884 360.251 72.9151C359.566 72.9462 358.893 73.1107 358.272 73.399C357.651 73.6874 357.094 74.0941 356.632 74.5959C356.169 75.0977 355.811 75.6847 355.578 76.3235C355.345 76.9623 355.241 77.6403 355.273 78.3188C355.304 78.9973 355.47 79.663 355.761 80.278Z" fill="#FF8833"/>
<path opacity="0.2" d="M342.099 100.742C344.048 102.847 353.552 105.457 353.552 105.457C353.552 105.457 351.745 95.8557 349.795 93.7508C348.859 92.7396 347.556 92.1381 346.172 92.0786C344.788 92.0191 343.436 92.5065 342.415 93.4336C341.394 94.3606 340.787 95.6514 340.727 97.022C340.667 98.3926 341.159 99.7306 342.095 100.742H342.099Z" fill="#FF8833"/>
<path opacity="0.2" d="M331.577 122.432C333.139 124.834 342.063 128.994 342.063 128.994C342.063 128.994 341.922 119.23 340.36 116.836C339.609 115.683 338.427 114.872 337.073 114.582C335.719 114.292 334.304 114.546 333.139 115.289C331.974 116.033 331.156 117.204 330.863 118.545C330.57 119.886 330.827 121.287 331.577 122.44V122.432Z" fill="#FF8833"/>
</g>
<path d="M62.9761 33.366V47.0327V208.522H347.209V47.0327V33.366H62.9761Z" fill="url(#paint0_linear)"/>
<path d="M344.209 35.2168H65.981V48.5947H344.209V35.2168Z" fill="#F6F7F9"/>
<g opacity="0.2">
<path opacity="0.2" d="M344.209 35.2168H65.981V48.5947H344.209V35.2168Z" fill="#FF8833"/>
</g>
<path d="M344.209 48.5948H65.981V206.672H344.209V48.5948Z" fill="#F6F7F9"/>
<path d="M72.6522 44.799C74.3114 44.799 75.6564 43.467 75.6564 41.824C75.6564 40.1809 74.3114 38.849 72.6522 38.849C70.993 38.849 69.6479 40.1809 69.6479 41.824C69.6479 43.467 70.993 44.799 72.6522 44.799Z" fill="#F6F7F9"/>
<path d="M80.6561 44.799C82.3153 44.799 83.6603 43.467 83.6603 41.824C83.6603 40.1809 82.3153 38.849 80.6561 38.849C78.9969 38.849 77.6519 40.1809 77.6519 41.824C77.6519 43.467 78.9969 44.799 80.6561 44.799Z" fill="#F6F7F9"/>
<path d="M88.6634 44.799C90.3226 44.799 91.6677 43.467 91.6677 41.824C91.6677 40.1809 90.3226 38.849 88.6634 38.849C87.0042 38.849 85.6592 40.1809 85.6592 41.824C85.6592 43.467 87.0042 44.799 88.6634 44.799Z" fill="#F6F7F9"/>
<g opacity="0.2">
<path opacity="0.2" d="M218.77 68.2534H75.6523V78.493H218.77V68.2534Z" fill="#FF8833"/>
</g>
<g opacity="0.2">
<path opacity="0.2" d="M330.526 68.2534H255.466V78.493H330.526V68.2534Z" fill="#FF8833"/>
</g>
<g opacity="0.2">
<path opacity="0.2" d="M113.514 165.049H103.507V197.755H113.514V165.049Z" fill="#FF8833"/>
<path opacity="0.2" d="M132.863 141.591H122.856V197.751H132.863V141.591Z" fill="#FF8833"/>
<path opacity="0.2" d="M152.212 118.137H142.206V197.751H152.212V118.137Z" fill="#FF8833"/>
<path opacity="0.2" d="M171.561 125.736H161.555V197.755H171.561V125.736Z" fill="#FF8833"/>
<path opacity="0.2" d="M190.911 148.198H180.904V197.751H190.911V148.198Z" fill="#FF8833"/>
</g>
<g opacity="0.2">
<path opacity="0.2" d="M330.361 100.958H255.301V192.302H330.361V100.958Z" fill="#FF8833"/>
</g>
<path d="M382.858 165.956C382.378 163.54 381.457 161.176 381.434 158.714C381.4 154.717 383.549 150.074 380.725 147.122C380.08 146.45 379.217 145.948 378.737 145.162C378.375 144.482 378.203 143.718 378.238 142.95C378.192 138.288 380.786 133.554 379.232 129.136C378.929 128.144 378.303 127.28 377.452 126.677C376.554 126.1 375.533 125.99 374.432 126.009C373.438 126.009 372.391 126.119 371.363 126.138C370.781 126.138 370.202 126.063 369.64 125.914C368.451 125.579 367.441 124.808 366.264 124.428C365.645 124.229 364.995 124.141 364.345 124.166C361.767 124.082 359.411 125.781 357.577 127.426C356.662 128.188 355.694 128.885 354.68 129.512C354.834 129.405 351.1 131.943 352.505 131.97C353.508 131.999 354.478 132.333 355.283 132.927C354.433 134.225 354.014 135.752 354.083 137.297C354.152 138.841 354.705 140.326 355.666 141.545C355.056 140.952 354.381 140.302 353.69 139.645C351.634 137.643 348.76 134.956 347.409 134.223C345.188 133.041 342.015 130.473 342.015 130.473C342.015 130.473 337.89 132.753 339.16 135.918C339.766 136.103 340.357 136.333 340.929 136.605C340.929 137.026 341.011 137.443 341.171 137.833C342.475 138.24 343.71 138.84 344.835 139.611C344.962 139.786 345.08 139.967 345.188 140.154C345.736 141.104 347.444 142.833 349.531 144.755C350.997 146.21 352.927 147.951 354.849 149.626C354.27 150.766 353.66 151.906 353.552 153.046C353.404 152.988 353.259 152.922 353.119 152.848C350.264 151.328 343.603 151.488 343.603 151.488C343.603 151.488 338.051 148.615 336.942 142.115C336.942 142.115 335.834 138.182 336.148 137.126H336.129L336.271 137.095L337.602 134.706C337.686 134.55 337.729 134.375 337.727 134.199C337.725 134.022 337.679 133.849 337.592 133.694C337.505 133.54 337.38 133.41 337.229 133.316C337.078 133.222 336.906 133.166 336.728 133.155C330.236 132.578 329.929 138.475 329.929 138.475H329.986L329.967 138.524C330.761 142.305 331.394 142.001 331.237 145.025L333.773 151.678C333.773 151.678 333.931 153.957 338.531 156.97C343.131 159.983 348.365 164.683 348.365 164.683C348.365 164.683 345.591 166.12 346.619 172.696C347.877 180.736 345.986 192.203 345.986 192.203V199.612L346.339 199.517C346.293 199.764 346.251 200.026 346.205 200.311C345.619 204.034 345.545 207.819 345.986 211.561C346.937 219.426 350.744 230.179 350.744 230.179C350.744 230.179 352.171 233.959 352.489 236.984C352.54 237.582 352.677 238.171 352.896 238.731C353.611 240.391 353.989 242.174 354.009 243.978C353.995 248.511 354.823 253.007 356.453 257.242C358.06 261.285 358.659 263.656 358.835 265.039C357.684 266.513 356.203 268.12 355.025 268.28C352.804 268.584 348.522 268.884 351.377 272.512C351.476 272.637 351.586 272.753 351.707 272.858C349.539 273.2 347.156 273.952 349.474 276.897C352.328 280.525 369.137 278.861 369.137 278.861C369.137 278.861 369.245 276.844 369.137 274.629C370.315 274.549 371.056 274.477 371.056 274.477C371.056 274.477 371.532 265.708 369.471 264.647C369.09 264.688 368.716 264.778 368.358 264.913C368.136 263.701 367.975 262.193 367.86 261.08L368.677 261.019V260.958H368.727V247.744C368.727 247.744 367.775 239.579 364.288 235.965C363.839 235.51 363.452 234.999 363.137 234.445L363.091 234.35C363.114 233.317 363.114 231.923 363.091 230.323L363.14 230.236C363.202 230.137 363.263 230.049 363.321 229.97C363.401 229.863 363.489 229.762 363.582 229.666L363.631 229.601C363.631 229.601 365.55 227.321 372.038 212.967C376.001 204.205 374.954 199.289 373.534 196.755C373.235 195.615 372.61 193.062 371.827 188.688C371.506 186.832 371.353 184.952 371.37 183.069C372.354 183.312 373.365 183.425 374.378 183.403C375.969 183.439 377.545 183.106 378.983 182.431C377.947 180.934 376.865 179.178 377.387 177.457C377.977 175.497 380.318 174.596 381.668 173.016C383.295 171.104 383.337 168.376 382.858 165.956Z" fill="url(#paint1_linear)"/>
<path d="M342.669 132.088C342.669 132.088 338.733 134.337 339.945 137.487C339.945 137.487 344.035 138.687 345.701 141.685C347.366 144.683 360.238 155.481 360.238 155.481L369.639 150.834C369.639 150.834 366.373 146.518 356.045 143.501C356.045 143.501 349.956 137.042 347.834 135.838C345.712 134.633 342.669 132.088 342.669 132.088Z" fill="#797C9C"/>
<path opacity="0.05" d="M344.588 133.988C344.588 133.988 340.652 136.237 341.864 139.387C341.864 139.387 345.954 140.588 347.619 143.586C349.285 146.583 362.157 157.382 362.157 157.382L371.558 152.735C371.558 152.735 368.292 148.419 357.964 145.402C357.964 145.402 351.875 138.943 349.753 137.738C347.631 136.534 344.588 133.988 344.588 133.988Z" fill="black"/>
<path d="M5.99071 244.614C5.99071 244.614 -16.1325 257.832 24.6493 278.182C24.6493 278.182 33.6351 261.662 23.7016 248.193C21.7728 245.568 18.9387 243.734 15.7361 243.039C12.5335 242.345 9.18488 242.837 6.32451 244.424L5.99071 244.614Z" fill="#FF8833"/>
<path d="M6.24316 244.332C6.24316 244.332 25.178 258.675 24.66 278.177" stroke="#535461" stroke-miterlimit="10"/>
<path d="M25.7205 278.421C25.7205 278.421 18.7873 255.096 27.0097 237.957C30.5097 230.783 31.5652 222.678 30.0178 214.86C29.2531 211.154 28.1474 207.526 26.7142 204.02" stroke="#535461" stroke-width="2" stroke-miterlimit="10"/>
<path d="M31.8472 193.165C31.8472 196.022 26.6253 204.305 26.6253 204.305C26.6253 204.305 21.4033 196.022 21.4033 193.165C21.4033 191.793 21.9537 190.477 22.9334 189.507C23.913 188.537 25.2417 187.992 26.6272 187.992C28.0126 187.992 29.3413 188.537 30.321 189.507C31.3007 190.477 31.851 191.793 31.851 193.165H31.8472Z" fill="#FF8833"/>
<path d="M40.481 209.001C38.9117 211.399 29.9834 215.54 29.9834 215.54C29.9834 215.54 30.1445 205.776 31.7138 203.382C32.0867 202.812 32.5693 202.32 33.134 201.935C33.6988 201.549 34.3347 201.278 35.0054 201.136C35.6761 200.994 36.3685 200.984 37.043 201.107C37.7175 201.23 38.361 201.484 38.9367 201.853C39.5123 202.222 40.0089 202.7 40.3981 203.259C40.7872 203.818 41.0613 204.448 41.2047 205.112C41.3481 205.776 41.358 206.462 41.2338 207.13C41.1097 207.798 40.8538 208.435 40.481 209.005V209.001Z" fill="#FF8833"/>
<path d="M40.1058 236.038C37.5313 237.326 27.709 236.418 27.709 236.418C27.709 236.418 32.8273 228.059 35.4018 226.783C36.6387 226.165 38.0727 226.059 39.3884 226.488C40.7041 226.918 41.7937 227.847 42.4175 229.072C43.0413 230.297 43.1482 231.717 42.7146 233.02C42.2811 234.322 41.3427 235.401 40.1058 236.019V236.038Z" fill="#FF8833"/>
<path d="M35.1654 256.433C32.8633 258.132 23.0142 258.899 23.0142 258.899C23.0142 258.899 26.6323 249.815 28.9536 248.116C29.5051 247.712 30.1315 247.42 30.7971 247.256C31.4626 247.092 32.1544 247.059 32.8327 247.159C33.5111 247.26 34.1628 247.492 34.7507 247.842C35.3385 248.192 35.851 248.653 36.2589 249.199C36.6668 249.745 36.9621 250.365 37.1278 251.025C37.2936 251.684 37.3267 252.369 37.2252 253.04C37.1236 253.712 36.8895 254.358 36.536 254.94C36.1826 255.522 35.7169 256.029 35.1654 256.433Z" fill="#FF8833"/>
<path d="M19.0175 216.094C21.0856 218.085 30.7276 220.149 30.7276 220.149C30.7276 220.149 28.3679 210.65 26.296 208.674C25.804 208.2 25.2225 207.827 24.5848 207.575C23.947 207.324 23.2655 207.199 22.5791 207.208C21.8927 207.218 21.2149 207.361 20.5844 207.63C19.9539 207.898 19.383 208.288 18.9043 208.775C18.4257 209.262 18.0486 209.838 17.7947 210.469C17.5407 211.101 17.4149 211.776 17.4243 212.455C17.4338 213.135 17.5783 213.806 17.8497 214.431C18.1211 215.055 18.514 215.62 19.006 216.094H19.0175Z" fill="#FF8833"/>
<path d="M13.545 240.02C16.1196 241.308 25.9419 240.4 25.9419 240.4C25.9419 240.4 20.8235 232.041 18.249 230.765C17.0121 230.147 15.5781 230.041 14.2624 230.47C12.9467 230.9 11.8571 231.829 11.2333 233.054C10.6096 234.279 10.5027 235.699 10.9362 237.001C11.3697 238.304 12.3082 239.383 13.545 240.001V240.02Z" fill="#FF8833"/>
<path d="M11.4547 263.994C13.7568 265.693 23.606 266.46 23.606 266.46C23.606 266.46 19.9878 257.376 17.6665 255.677C16.5528 254.861 15.1574 254.517 13.7874 254.72C12.4174 254.923 11.1849 255.657 10.3612 256.76C9.53747 257.863 9.1899 259.245 9.39497 260.601C9.60004 261.958 10.341 263.178 11.4547 263.994Z" fill="#FF8833"/>
<path opacity="0.25" d="M31.8472 193.165C31.8472 196.022 26.6253 204.305 26.6253 204.305C26.6253 204.305 21.4033 196.022 21.4033 193.165C21.4033 191.793 21.9537 190.477 22.9334 189.507C23.913 188.537 25.2417 187.992 26.6272 187.992C28.0126 187.992 29.3413 188.537 30.321 189.507C31.3007 190.477 31.851 191.793 31.851 193.165H31.8472Z" fill="black"/>
<path opacity="0.25" d="M40.481 209.001C38.9117 211.399 29.9834 215.54 29.9834 215.54C29.9834 215.54 30.1445 205.776 31.7138 203.382C32.0867 202.812 32.5693 202.32 33.134 201.935C33.6988 201.549 34.3347 201.278 35.0054 201.136C35.6761 200.994 36.3685 200.984 37.043 201.107C37.7175 201.23 38.361 201.484 38.9367 201.853C39.5123 202.222 40.0089 202.7 40.3981 203.259C40.7872 203.818 41.0613 204.448 41.2047 205.112C41.3481 205.776 41.358 206.462 41.2338 207.13C41.1097 207.798 40.8538 208.435 40.481 209.005V209.001Z" fill="black"/>
<path opacity="0.25" d="M40.1058 236.038C37.5313 237.326 27.709 236.418 27.709 236.418C27.709 236.418 32.8273 228.059 35.4018 226.783C36.6387 226.165 38.0727 226.059 39.3884 226.488C40.7041 226.918 41.7937 227.847 42.4175 229.072C43.0413 230.297 43.1482 231.717 42.7146 233.02C42.2811 234.322 41.3427 235.401 40.1058 236.019V236.038Z" fill="black"/>
<path opacity="0.25" d="M35.1654 256.433C32.8633 258.132 23.0142 258.899 23.0142 258.899C23.0142 258.899 26.6323 249.815 28.9536 248.116C29.5051 247.712 30.1315 247.42 30.7971 247.256C31.4626 247.092 32.1544 247.059 32.8327 247.159C33.5111 247.26 34.1628 247.492 34.7507 247.842C35.3385 248.192 35.851 248.653 36.2589 249.199C36.6668 249.745 36.9621 250.365 37.1278 251.025C37.2936 251.684 37.3267 252.369 37.2252 253.04C37.1236 253.712 36.8895 254.358 36.536 254.94C36.1826 255.522 35.7169 256.029 35.1654 256.433Z" fill="black"/>
<path opacity="0.25" d="M19.0175 216.094C21.0856 218.085 30.7276 220.149 30.7276 220.149C30.7276 220.149 28.3679 210.65 26.296 208.674C25.804 208.2 25.2225 207.827 24.5848 207.575C23.947 207.324 23.2655 207.199 22.5791 207.208C21.8927 207.218 21.2149 207.361 20.5844 207.63C19.9539 207.898 19.383 208.288 18.9043 208.775C18.4257 209.262 18.0486 209.838 17.7947 210.469C17.5407 211.101 17.4149 211.776 17.4243 212.455C17.4338 213.135 17.5783 213.806 17.8497 214.431C18.1211 215.055 18.514 215.62 19.006 216.094H19.0175Z" fill="black"/>
<path opacity="0.25" d="M13.545 240.02C16.1196 241.308 25.9419 240.4 25.9419 240.4C25.9419 240.4 20.8235 232.041 18.249 230.765C17.0121 230.147 15.5781 230.041 14.2624 230.47C12.9467 230.9 11.8571 231.829 11.2333 233.054C10.6096 234.279 10.5027 235.699 10.9362 237.001C11.3697 238.304 12.3082 239.383 13.545 240.001V240.02Z" fill="black"/>
<path opacity="0.25" d="M11.4547 263.994C13.7568 265.693 23.606 266.46 23.606 266.46C23.606 266.46 19.9878 257.376 17.6665 255.677C16.5528 254.861 15.1574 254.517 13.7874 254.72C12.4174 254.923 11.1849 255.657 10.3612 256.76C9.53747 257.863 9.1899 259.245 9.39497 260.601C9.60004 261.958 10.341 263.178 11.4547 263.994Z" fill="black"/>
<path d="M41.7621 278.865C41.7621 278.865 34.8289 255.555 43.0628 238.401C46.5627 231.227 47.6183 223.122 46.0709 215.304C45.3062 211.598 44.2005 207.97 42.7673 204.464" stroke="#535461" stroke-width="2" stroke-miterlimit="10"/>
<path d="M47.8882 193.621C47.8882 196.478 42.6663 204.761 42.6663 204.761C42.6663 204.761 37.4443 196.478 37.4443 193.621C37.4443 192.249 37.9947 190.933 38.9744 189.963C39.954 188.993 41.2827 188.448 42.6682 188.448C44.0536 188.448 45.3824 188.993 46.362 189.963C47.3417 190.933 47.892 192.249 47.892 193.621H47.8882Z" fill="#FF8833"/>
<path d="M56.5274 209.441C54.9581 211.839 46.0298 215.98 46.0298 215.98C46.0298 215.98 46.1909 206.216 47.7602 203.822C48.5132 202.671 49.6972 201.863 51.0518 201.576C52.4063 201.289 53.8204 201.547 54.983 202.293C56.1456 203.038 56.9615 204.211 57.2511 205.552C57.5407 206.894 57.2804 208.294 56.5274 209.445V209.441Z" fill="#FF8833"/>
<path d="M56.1468 236.478C53.5723 237.766 43.75 236.858 43.75 236.858C43.75 236.858 48.8683 228.499 51.4429 227.222C52.0566 226.917 52.7251 226.733 53.4103 226.683C54.0955 226.633 54.7839 226.718 55.4362 226.931C56.0886 227.144 56.6921 227.483 57.2123 227.927C57.7325 228.372 58.1592 228.913 58.4681 229.521C58.777 230.129 58.9619 230.791 59.0124 231.469C59.0629 232.148 58.978 232.83 58.7624 233.476C58.5469 234.122 58.205 234.719 57.7562 235.234C57.3074 235.75 56.7605 236.172 56.1468 236.478Z" fill="#FF8833"/>
<path d="M51.2089 256.878C48.9068 258.577 39.0576 259.344 39.0576 259.344C39.0576 259.344 42.6758 250.26 44.997 248.561C45.5485 248.157 46.1749 247.865 46.8405 247.701C47.5061 247.537 48.1978 247.504 48.8762 247.604C49.5545 247.705 50.2063 247.937 50.7941 248.287C51.382 248.637 51.8945 249.098 52.3024 249.644C52.7103 250.19 53.0055 250.81 53.1713 251.47C53.3371 252.129 53.3702 252.814 53.2686 253.485C53.1671 254.157 52.9329 254.803 52.5795 255.385C52.2261 255.967 51.7604 256.474 51.2089 256.878Z" fill="#FF8833"/>
<path d="M35.0664 216.535C37.1344 218.526 46.7764 220.589 46.7764 220.589C46.7764 220.589 44.4167 211.091 42.3448 209.115C41.8528 208.641 41.2713 208.268 40.6336 208.016C39.9958 207.765 39.3143 207.64 38.628 207.649C37.9416 207.659 37.2638 207.802 36.6333 208.071C36.0027 208.339 35.4318 208.728 34.9532 209.216C34.4745 209.703 34.0974 210.279 33.8435 210.91C33.5895 211.542 33.4637 212.217 33.4732 212.896C33.4826 213.576 33.6271 214.247 33.8985 214.872C34.1699 215.496 34.5628 216.061 35.0549 216.535H35.0664Z" fill="#FF8833"/>
<path d="M29.588 240.46C32.1625 241.748 41.9848 240.84 41.9848 240.84C41.9848 240.84 36.8665 232.481 34.292 231.205C33.0551 230.587 31.6211 230.481 30.3054 230.91C28.9897 231.34 27.9001 232.269 27.2763 233.494C26.6525 234.719 26.5456 236.139 26.9792 237.442C27.4127 238.744 28.3511 239.823 29.588 240.441V240.46Z" fill="#FF8833"/>
<path d="M27.4952 264.439C29.7973 266.137 39.6465 266.904 39.6465 266.904C39.6465 266.904 36.0284 257.82 33.7071 256.122C32.5933 255.306 31.198 254.962 29.8279 255.165C28.4579 255.368 27.2255 256.101 26.4017 257.204C25.578 258.307 25.2304 259.689 25.4355 261.046C25.6406 262.402 26.3815 263.623 27.4952 264.439Z" fill="#FF8833"/>
<path d="M345.39 129.493H267.897V223.796H345.39V129.493Z" fill="url(#paint2_linear)"/>
<path d="M344.174 130.975H269.114V222.318H344.174V130.975Z" fill="#FF6A00"/>
<path d="M289.503 138.992H274.155V154.19H289.503V138.992Z" fill="#E8EAF1"/>
<path d="M336.312 163.309H281.829V166.348H336.312V163.309Z" fill="#E8EAF1"/>
<path d="M336.312 169.767H281.829V172.807H336.312V169.767Z" fill="#E8EAF1"/>
<path d="M336.312 176.226H281.829V179.266H336.312V176.226Z" fill="#E8EAF1"/>
<path d="M336.312 182.686H281.829V185.725H336.312V182.686Z" fill="#E8EAF1"/>
<path d="M336.312 189.145H281.829V192.184H336.312V189.145Z" fill="#E8EAF1"/>
<path d="M336.312 195.604H281.829V198.644H336.312V195.604Z" fill="#E8EAF1"/>
<path d="M336.312 202.063H281.829V205.103H336.312V202.063Z" fill="#E8EAF1"/>
<path d="M367.202 259.993C367.202 259.993 367.655 266.589 368.415 267.341C369.175 268.094 361.601 268.542 361.601 268.542L362.66 259.993H367.202Z" fill="#FFB9B9"/>
<path opacity="0.05" d="M367.202 259.993C367.202 259.993 367.655 266.589 368.415 267.341C369.175 268.094 361.601 268.542 361.601 268.542L362.66 259.993H367.202Z" fill="black"/>
<path d="M368.87 265.092C368.87 265.092 367.811 265.092 364.024 267.042C364.024 267.042 361.45 266.593 360.391 262.991C360.391 262.991 357.21 268.39 355.092 268.691C352.974 268.991 348.884 269.291 351.608 272.889C354.332 276.487 370.386 274.838 370.386 274.838C370.386 274.838 370.835 266.141 368.87 265.092Z" fill="#E4E2F3"/>
<path opacity="0.05" d="M368.87 265.092C368.87 265.092 367.811 265.092 364.024 267.042C364.024 267.042 361.45 266.593 360.391 262.991C360.391 262.991 357.21 268.39 355.092 268.691C352.974 268.991 348.884 269.291 351.608 272.889C354.332 276.487 370.386 274.838 370.386 274.838C370.386 274.838 370.835 266.141 368.87 265.092Z" fill="black"/>
<path d="M366.597 270.192L365.538 273.041L358.574 271.092L358.957 268.265L359.053 267.582L359.318 265.682C359.318 265.682 365.223 264.181 365.223 264.922C365.301 265.54 365.43 266.151 365.607 266.749C365.848 267.673 366.151 268.721 366.374 269.409C366.504 269.892 366.597 270.192 366.597 270.192Z" fill="#FFB9B9"/>
<path d="M362.795 231.083C362.416 231.716 362.216 232.438 362.216 233.173C362.216 233.908 362.416 234.63 362.795 235.263C363.092 235.804 363.459 236.306 363.884 236.756C367.215 240.354 368.124 248.451 368.124 248.451V261.494L365.853 261.665L362.219 261.942L356.767 239.75C356.767 239.75 353.586 223.556 355.102 220.707C356.617 217.857 357.979 200.015 357.979 200.015L359.238 198.727L362.219 195.668H370.852C371.543 196.158 372.116 196.793 372.532 197.526C373.983 199.901 375.283 204.84 371.309 213.959C365.101 228.203 363.282 230.452 363.282 230.452C363.096 230.643 362.932 230.855 362.795 231.083Z" fill="#4C4C78"/>
<path opacity="0.05" d="M362.842 231.019C362.464 231.651 362.264 232.373 362.264 233.109C362.264 233.844 362.464 234.566 362.842 235.198C363.14 235.74 363.506 236.242 363.932 236.691C367.262 240.29 368.172 248.386 368.172 248.386V261.43L365.9 261.601L362.267 261.878L356.815 239.685C356.815 239.685 353.634 223.492 355.15 220.643C356.665 217.793 358.027 199.951 358.027 199.951L359.286 198.663L362.267 195.604H370.9C371.591 196.094 372.164 196.728 372.58 197.462C374.031 199.837 375.331 204.776 371.356 213.895C365.148 228.139 363.33 230.388 363.33 230.388C363.143 230.579 362.98 230.791 362.842 231.019Z" fill="black"/>
<path opacity="0.1" d="M365.621 266.768L359.064 267.582L359.329 265.682C359.329 265.682 365.234 264.181 365.234 264.922C365.312 265.547 365.442 266.164 365.621 266.768Z" fill="black"/>
<path d="M362.349 211.862C362.349 211.862 362.733 223.667 362.787 231.083C362.787 232.763 362.787 234.214 362.787 235.263C362.795 235.814 362.754 236.364 362.664 236.908C362.211 238.257 363.117 241.254 363.117 241.254C365.389 247.18 366.319 253.528 365.841 259.849V266.445L358.574 267.345C358.574 267.345 359.786 266.445 356.452 257.748C354.893 253.535 354.102 249.081 354.115 244.594C354.098 242.808 353.737 241.041 353.053 239.389C352.844 238.832 352.715 238.249 352.669 237.656C352.366 234.658 351.004 230.908 351.004 230.908C351.004 230.908 347.37 220.27 346.461 212.466C346.041 208.754 346.112 205.004 346.672 201.311C346.806 200.372 346.987 199.442 347.217 198.522C347.217 198.522 362.019 189.297 367.61 195.672C368.148 196.296 368.575 197.007 368.872 197.773C369.179 198.53 369.418 199.312 369.586 200.11C371.324 208.564 362.349 211.862 362.349 211.862Z" fill="#4C4C78"/>
<path d="M361.899 146.188C366.165 146.188 369.623 142.764 369.623 138.54C369.623 134.316 366.165 130.891 361.899 130.891C357.634 130.891 354.176 134.316 354.176 138.54C354.176 142.764 357.634 146.188 361.899 146.188Z" fill="#FFB9B9"/>
<path d="M357.661 143.335C357.661 143.335 360.842 152.18 357.661 156.83C354.48 161.481 367.806 159.98 367.806 159.98L372.955 153.833C372.955 153.833 366.896 153.833 366.593 143.335C366.29 132.837 357.661 143.335 357.661 143.335Z" fill="#FFB9B9"/>
<path opacity="0.1" d="M372.955 199.267C371.857 199.643 370.729 199.922 369.582 200.103C367.698 200.392 365.473 200.403 364.172 199.267C363.405 198.594 361.486 198.507 359.219 198.727C354.411 199.183 347.908 200.958 346.665 201.307C346.798 200.369 346.98 199.438 347.209 198.518C347.209 198.518 362.012 189.293 367.602 195.669H370.833C371.524 196.159 372.097 196.793 372.513 197.527C372.793 198.72 372.955 199.267 372.955 199.267Z" fill="black"/>
<path opacity="0.1" d="M366.597 270.191L365.538 273.041L358.574 271.091L358.957 268.265C360.155 270.886 362.196 271.243 362.196 271.243C363.525 270.515 364.92 269.91 366.362 269.435C366.504 269.891 366.597 270.191 366.597 270.191Z" fill="black"/>
<path d="M367.048 269.443C367.048 269.443 365.989 269.443 362.202 271.392C362.202 271.392 359.628 270.943 358.569 267.341C358.569 267.341 355.388 272.74 353.27 273.041C351.152 273.341 347.062 273.641 349.786 277.239C352.511 280.837 368.564 279.188 368.564 279.188C368.564 279.188 369.017 270.491 367.048 269.443Z" fill="#E4E2F3"/>
<path d="M331.125 140.002C331.125 140.002 331.421 134.162 337.617 134.732C337.789 134.75 337.953 134.808 338.097 134.902C338.24 134.997 338.358 135.124 338.44 135.274C338.523 135.424 338.567 135.591 338.569 135.761C338.572 135.932 338.532 136.1 338.454 136.252L337.184 138.619L331.125 140.002Z" fill="#FFB9B9"/>
<path d="M366.9 155.63C366.9 155.63 359.479 154.429 357.511 152.932C357.511 152.932 355.995 155.782 353.271 154.281C350.547 152.78 344.186 152.932 344.186 152.932C342.518 151.921 341.087 150.568 339.99 148.964C338.893 147.361 338.155 145.544 337.824 143.635C337.824 143.635 336.765 139.737 337.057 138.696C337.057 138.696 333.12 134.645 331.152 140.044C331.919 143.795 332.514 143.494 332.364 146.504L334.785 153.099C334.785 153.099 334.935 155.349 339.328 158.347C343.721 161.344 348.717 165.995 348.717 165.995C348.717 165.995 346.066 167.42 347.052 173.943C348.256 181.922 346.445 193.286 346.445 193.286V200.635C346.445 200.635 361.589 196.288 364.16 198.534C366.731 200.779 372.943 198.534 372.943 198.534C372.943 198.534 372.175 195.984 371.124 189.837C370.073 183.689 371.274 177.678 371.274 177.678C371.274 177.678 375.21 167.332 377.029 163.134C378.848 158.935 375.667 153.255 372.486 151.139C369.305 149.023 368.124 150.299 368.124 150.299C368.124 150.299 373.714 154.281 366.9 155.63Z" fill="#797C9C"/>
<path opacity="0.05" d="M347.442 177.29C347.442 177.29 348.651 177.001 354.705 176.1C360.76 175.2 371.361 177.301 371.361 177.301" fill="black"/>
<path opacity="0.1" d="M352.675 133.585C356.128 133.658 358.684 137.875 357.153 140.918C356.481 142.256 355.181 143.434 355.315 144.919C355.376 145.596 355.741 146.207 355.898 146.868C356.623 149.908 352.951 152.754 353.792 155.755C354.078 156.56 354.525 157.3 355.104 157.932L361.481 165.889C361.868 166.326 362.188 166.818 362.432 167.348C362.675 168.102 362.769 168.895 362.708 169.684C362.678 173.484 362.927 177.561 365.191 180.642C367.911 184.343 373.455 185.672 377.58 183.609C376.59 182.124 375.558 180.384 376.045 178.67C376.609 176.728 378.842 175.832 380.132 174.266C381.689 172.367 381.728 169.669 381.283 167.272C380.837 164.874 379.944 162.53 379.924 160.091C379.894 156.128 381.943 151.523 379.245 148.597C378.627 147.928 377.806 147.435 377.346 146.652C376.999 145.973 376.835 145.216 376.87 144.456C376.828 139.836 379.303 135.136 377.818 130.755C377.535 129.78 376.938 128.924 376.118 128.316C374.016 126.914 371.1 128.274 368.667 127.556C367.516 127.225 366.568 126.458 365.444 126.082C362.413 125.067 359.608 127.104 357.513 129.056C356.642 129.81 355.718 130.501 354.747 131.123C354.897 131.044 351.332 133.559 352.675 133.585Z" fill="black"/>
<path d="M353.06 133.585C356.513 133.658 359.068 137.875 357.537 140.918C356.866 142.256 355.565 143.434 355.7 144.919C355.761 145.596 356.125 146.207 356.283 146.868C357.008 149.908 353.336 152.754 354.176 155.755C354.463 156.56 354.909 157.3 355.489 157.932L361.865 165.889C362.253 166.326 362.573 166.818 362.817 167.348C363.06 168.102 363.154 168.895 363.093 169.684C363.062 173.484 363.312 177.561 365.576 180.642C368.296 184.343 373.84 185.672 377.965 183.609C376.975 182.124 375.943 180.384 376.43 178.67C376.994 176.728 379.227 175.832 380.516 174.266C382.074 172.367 382.112 169.669 381.667 167.272C381.222 164.874 380.328 162.53 380.309 160.091C380.278 156.128 382.327 151.523 379.63 148.597C379.012 147.928 378.191 147.435 377.731 146.652C377.384 145.973 377.22 145.216 377.255 144.456C377.213 139.836 379.688 135.136 378.203 130.755C377.92 129.78 377.323 128.924 376.503 128.316C374.4 126.914 371.484 128.274 369.052 127.556C367.901 127.225 366.953 126.458 365.829 126.082C362.798 125.067 359.993 127.104 357.898 129.056C357.027 129.81 356.103 130.501 355.132 131.123C355.281 131.044 351.717 133.559 353.06 133.585Z" fill="#B36362"/>
<path d="M237.145 205.908C236.267 205.095 235.504 204.169 234.877 203.153C233.55 201.086 231.328 199.973 229.805 199.418V198.746H229.897L229.855 198.123H229.897L229.79 196.474L229.249 188.236C229.249 188.236 227.292 182.716 230.745 177.663C234.198 172.609 230.96 167.761 227.714 165.865C227.714 165.865 226.179 157.86 227.499 155.964C225.735 154.95 223.916 154.033 222.051 153.217C222.023 153.118 221.996 153.017 221.97 152.913C221.936 152.153 221.89 151.42 221.847 150.675C221.892 150.29 221.963 149.91 222.062 149.535C222.104 149.379 222.15 149.22 222.2 149.056C223.754 148.46 225.091 147.414 226.036 146.054C226.981 144.695 227.491 143.085 227.499 141.435C227.5 140.469 227.326 139.512 226.985 138.608C227.153 138.327 227.282 138.026 227.369 137.711C227.539 136.802 227.355 135.862 226.854 135.082C225.995 133.182 223.827 131.446 222.25 130.811C219.998 129.899 216.606 130.116 214.262 130.393C212.946 130.549 211.442 130.99 210.966 132.194C210.84 132.651 210.74 133.114 210.667 133.581C210.176 135.42 208.046 136.279 206.73 137.685C205.579 138.927 205.057 140.606 204.681 142.244C203.601 146.936 203.342 151.777 203.914 156.556C204.048 157.658 204.225 158.753 204.413 159.847C203.622 160.949 202.909 162.886 203.235 166.306L200.637 178.525L199.555 185.687C199.409 186.688 199.51 187.71 199.849 188.664C200.189 189.618 200.757 190.476 201.504 191.166C203.162 192.777 205.172 195.501 206.412 197.268C205.872 198.83 205.604 200.472 205.621 202.124C205.648 202.883 205.69 203.602 205.744 204.293C205.855 205.751 206.134 207.191 206.573 208.586C206.876 211.527 207.478 215.289 208.652 217.705L209.086 230.555C209.086 230.555 208.438 242.352 207.137 244.67C205.836 246.988 209.953 266.582 209.953 266.582V269.321L209.259 271.327L209.086 271.198C205.836 275.203 209.086 276.677 209.086 276.677C209.086 276.677 209.969 276.719 211.388 276.772C211.267 277.332 211.338 277.916 211.589 278.433C211.839 278.949 212.256 279.369 212.773 279.625C212.773 279.625 231.19 280.469 234.436 279.625C237.682 278.782 236.819 275.826 235.084 276.042C234.207 276.073 233.33 275.958 232.491 275.704C233.504 274.53 232.694 272.938 231.405 273.094C229.671 273.303 225.772 271.775 225.772 271.775V271.802C225.647 271.755 225.519 271.717 225.389 271.688C223.94 271.362 222.51 270.962 221.103 270.491C220.267 268.717 218.34 263.945 219.722 260.233C220.347 258.561 220.551 256.334 220.551 254.176C220.583 247.67 221.543 241.2 223.401 234.959L225.999 226.117C225.999 226.117 229.682 215.372 229.897 212.439L229.866 208.138C232.913 210.08 235.33 209.491 236.876 208.59C237.108 208.459 237.304 208.276 237.449 208.054C237.594 207.833 237.684 207.58 237.71 207.318C237.736 207.055 237.699 206.79 237.6 206.545C237.502 206.299 237.346 206.081 237.145 205.908ZM208.234 183.559C208.307 183.252 208.369 182.913 208.422 182.56C208.934 182.56 209.445 182.56 209.957 182.56C210.591 183.846 210.856 185.28 210.724 186.705C209.55 186.325 207.793 185.421 208.234 183.559Z" fill="url(#paint3_linear)"/>
<path d="M210.295 268.337L209.463 270.814L212.172 273.497L221.135 275.56L227.596 274.94L227.178 272.661C227.054 272.173 226.796 271.729 226.434 271.376C226.072 271.024 225.619 270.777 225.125 270.662C222.47 270.043 217.405 268.637 216.338 266.677L210.295 268.337Z" fill="#DB8B8B"/>
<path opacity="0.1" d="M210.295 268.337L209.463 270.814L212.172 273.497L221.135 275.56L227.596 274.94L227.178 272.661C227.054 272.173 226.796 271.729 226.434 271.376C226.072 271.024 225.619 270.777 225.125 270.662C222.47 270.043 217.405 268.637 216.338 266.677L210.295 268.337Z" fill="black"/>
<path d="M225.512 274.326L224.261 272.673L225.512 270.773C225.512 270.773 229.264 272.274 230.93 272.065C232.595 271.856 233.431 274.748 230.304 275.576C227.177 276.404 209.459 275.576 209.459 275.576C209.459 275.576 206.332 274.132 209.459 270.211L212.167 272.274C212.167 272.274 216.772 274.751 219.047 274.337L225.512 274.326Z" fill="#474463"/>
<path d="M231.128 277.832L224.667 278.451L215.712 276.373L213.003 273.713L213.225 273.056L213.536 272.136L213.839 271.236L219.882 269.583C220.189 270.078 220.608 270.494 221.106 270.799C223.071 272.129 226.597 273.079 228.665 273.569C228.752 273.589 228.838 273.614 228.922 273.645C229.36 273.79 229.754 274.043 230.068 274.379C230.382 274.715 230.605 275.124 230.718 275.567L231.128 277.832Z" fill="#DB8B8B"/>
<path opacity="0.1" d="M231.128 277.832L224.667 278.451L215.712 276.373L213.003 273.713L213.225 273.056L215.716 274.956C215.716 274.956 220.32 277.433 222.595 277.019H229.056L227.805 275.366L228.93 273.649C229.368 273.794 229.762 274.046 230.076 274.382C230.389 274.718 230.613 275.127 230.725 275.571L231.128 277.832Z" fill="black"/>
<path d="M229.052 277.213L227.801 275.56L229.052 273.66C229.052 273.66 232.804 275.161 234.47 274.952C236.135 274.743 236.971 277.635 233.844 278.463C230.717 279.291 212.999 278.463 212.999 278.463C212.999 278.463 209.872 277.019 212.999 273.098L215.707 275.161C215.707 275.161 220.312 277.639 222.587 277.224L229.052 277.213Z" fill="#474463"/>
<path d="M223.839 157.495C223.839 157.495 213.833 158.528 215.294 154.398C215.701 153.228 215.807 151.975 215.601 150.755C215.342 149.24 214.737 147.804 213.833 146.556L223.214 148C222.652 148.931 222.225 149.935 221.944 150.983C220.827 155.363 223.839 157.495 223.839 157.495Z" fill="#DB8B8B"/>
<path d="M206.75 204.563C206.75 204.563 206.958 213.439 209.053 217.774L209.471 230.366C209.471 230.366 208.845 241.924 207.595 244.196C206.344 246.468 210.303 265.663 210.303 265.663V268.964C210.303 268.964 216.964 271.434 218.852 268.546L216.976 243.983L217.808 209.924L206.75 204.563Z" fill="#474463"/>
<path opacity="0.1" d="M206.75 204.563C206.75 204.563 206.958 213.439 209.053 217.774L209.471 230.366C209.471 230.366 208.845 241.924 207.595 244.196C206.344 246.468 210.303 265.663 210.303 265.663V268.964C210.303 268.964 216.964 271.434 218.852 268.546L216.976 243.983L217.808 209.924L206.75 204.563Z" fill="black"/>
<path d="M202.583 176.067L201.332 179.369L200.289 186.386C200.148 187.364 200.245 188.36 200.571 189.293C200.898 190.226 201.444 191.069 202.165 191.751C204.667 194.228 208.001 199.388 208.001 199.388L211.96 187.61C211.96 187.61 208.001 186.99 208.626 184.308C209.252 181.625 209.044 176.671 209.044 176.671L202.583 176.067Z" fill="#CBCDDA"/>
<path opacity="0.05" d="M202.583 175.687L201.332 178.989L200.289 186.006C200.148 186.984 200.245 187.98 200.571 188.913C200.898 189.847 201.444 190.689 202.165 191.371C204.667 193.848 208.001 199.008 208.001 199.008L211.96 187.23C211.96 187.23 208.001 186.61 208.626 183.928C209.252 181.246 209.044 176.291 209.044 176.291L202.583 175.687Z" fill="black"/>
<path opacity="0.1" d="M221.107 270.792C218.421 274.971 214.274 272.596 213.533 272.125L213.836 271.225L219.879 269.572C220.186 270.068 220.607 270.486 221.107 270.792Z" fill="black"/>
<path d="M229.471 212.607C229.264 215.498 225.719 226.023 225.719 226.023L223.221 234.685C221.429 240.811 220.505 247.153 220.474 253.531C220.474 255.643 220.278 257.824 219.676 259.462C218.007 264.021 221.345 270.195 221.345 270.195C218.425 275.355 213.426 271.848 213.426 271.848V268.546C213.426 268.546 209.466 250.59 210.506 247.079C211.546 243.569 211.964 234.074 211.964 234.074V216.942C208.624 213.647 206.594 209.272 206.243 204.616C206.193 203.94 206.155 203.23 206.128 202.492C205.959 197.834 209.174 192.374 210.429 190.429C210.732 189.958 210.92 189.696 210.92 189.696L229.337 196.915H229.379V197.621V199.183L229.471 212.607Z" fill="#474463"/>
<path opacity="0.1" d="M223.217 148C222.655 148.931 222.228 149.935 221.947 150.983C220.928 151.366 219.842 151.544 218.753 151.504C217.663 151.465 216.593 151.21 215.605 150.755C215.345 149.24 214.74 147.804 213.836 146.556L223.217 148Z" fill="black"/>
<path d="M219.047 151.097C223.537 151.097 227.177 147.492 227.177 143.046C227.177 138.599 223.537 134.995 219.047 134.995C214.557 134.995 210.917 138.599 210.917 143.046C210.917 147.492 214.557 151.097 219.047 151.097Z" fill="#DB8B8B"/>
<path opacity="0.1" d="M229.472 199.191H229.384C220.644 200.969 209.67 191.949 209.67 191.949C209.966 191.463 210.223 190.955 210.438 190.429C210.741 189.958 210.929 189.696 210.929 189.696L229.346 196.915L229.392 197.637L229.472 199.191Z" fill="black"/>
<path d="M227.177 157.287C227.177 157.287 215.505 150.269 211.753 153.157L206.542 159.76C206.542 159.76 203.208 160.793 203.834 167.397L201.332 179.369L208.837 181.227C208.837 181.227 213.215 185.357 209.669 191.341C209.669 191.341 220.716 200.422 229.471 198.56L228.827 188.868C228.827 188.868 226.951 183.503 230.285 178.548C233.619 173.594 230.492 168.848 227.365 166.99C227.388 166.99 225.926 159.144 227.177 157.287Z" fill="#CBCDDA"/>
<path d="M227.802 199.395C227.802 199.395 232.18 200.22 234.263 203.525C234.865 204.517 235.6 205.425 236.446 206.223C236.636 206.394 236.783 206.607 236.876 206.845C236.968 207.082 237.003 207.338 236.978 207.592C236.953 207.845 236.869 208.089 236.732 208.305C236.595 208.52 236.409 208.701 236.189 208.833C234.536 209.817 231.838 210.425 228.431 207.651C222.592 202.906 227.802 199.395 227.802 199.395Z" fill="#DB8B8B"/>
<path opacity="0.1" d="M221.341 161.211C221.341 161.211 217.17 160.797 216.13 171.53C215.09 182.264 213.421 184.741 213.421 184.741C213.421 184.741 212.378 190.315 214.879 193.617C217.381 196.918 222.169 203.936 222.169 203.936C222.169 203.936 227.38 205.38 228.424 200.22L221.962 188.248C221.962 188.248 220.919 184.118 223.42 181.23C225.922 178.343 227.802 159.144 221.341 161.211Z" fill="black"/>
<path d="M221.759 160.591C221.759 160.591 217.588 160.177 216.548 170.91C215.508 181.644 213.839 184.121 213.839 184.121C213.839 184.121 212.796 189.695 215.297 192.997C217.799 196.299 222.587 203.316 222.587 203.316C222.587 203.316 227.798 204.76 228.841 199.6L222.38 187.628C222.38 187.628 221.34 183.502 223.838 180.626C226.336 177.75 228.22 158.524 221.759 160.591Z" fill="#CBCDDA"/>
<path opacity="0.1" d="M225.197 168.331C225.197 168.331 225.615 174.729 223.739 178.24C221.863 181.75 221.863 186.291 223.739 188.768" fill="black"/>
<path opacity="0.1" d="M226.242 160.489C226.242 160.489 224.573 158.836 219.781 158.631C214.989 158.426 212.901 156.978 212.901 156.978" fill="black"/>
<path opacity="0.1" d="M214.63 132.643C213.364 132.799 211.918 133.228 211.461 134.406C211.34 134.854 211.244 135.308 211.173 135.766C210.701 137.571 208.652 138.426 207.386 139.786C206.27 141.002 205.779 142.647 205.414 144.254C204.376 148.855 204.129 153.596 204.681 158.278C205.088 161.697 205.921 165.071 206.151 168.51C206.381 171.948 205.959 175.566 204.06 178.453C203.243 179.696 202.168 180.786 201.589 182.154C202.786 183.115 204.432 183.252 205.974 183.294C207.765 183.354 209.555 183.354 211.346 183.294C212.286 183.263 213.264 183.202 214.082 182.731C214.682 182.353 215.175 181.83 215.517 181.212C216.541 179.487 216.802 177.412 216.756 175.417C216.71 173.423 216.391 171.432 216.372 169.429C216.353 168.339 216.437 167.184 217.07 166.291C217.527 165.645 218.222 165.212 218.816 164.691C221.049 162.735 221.813 159.593 221.886 156.64C221.959 153.688 221.468 150.732 221.721 147.791C221.82 146.652 222.254 145.257 223.397 145.033C223.764 145.018 224.128 144.972 224.487 144.896C225.404 144.547 225.316 143.266 225.577 142.328C225.872 141.275 226.778 140.462 227.035 139.398C227.633 136.902 224.426 133.92 222.323 133.049C220.163 132.157 216.902 132.373 214.63 132.643Z" fill="black"/>
<path d="M214.439 132.228C213.173 132.384 211.727 132.813 211.27 133.991C211.149 134.439 211.053 134.893 210.982 135.351C210.51 137.156 208.462 138.011 207.195 139.371C206.079 140.587 205.588 142.232 205.223 143.839C204.186 148.44 203.938 153.181 204.49 157.863C204.897 161.283 205.73 164.656 205.96 168.095C206.19 171.533 205.768 175.151 203.869 178.038C203.052 179.281 201.977 180.371 201.398 181.739C202.595 182.7 204.241 182.837 205.783 182.879C207.574 182.939 209.364 182.939 211.155 182.879C212.095 182.848 213.073 182.788 213.891 182.316C214.491 181.938 214.984 181.415 215.326 180.797C216.35 179.072 216.611 176.997 216.565 175.002C216.519 173.008 216.2 171.017 216.181 169.014C216.162 167.924 216.246 166.769 216.88 165.876C217.336 165.23 218.031 164.797 218.625 164.276C220.858 162.32 221.622 159.178 221.695 156.225C221.768 153.273 221.277 150.317 221.53 147.376C221.63 146.237 222.063 144.842 223.207 144.618C223.573 144.603 223.938 144.557 224.296 144.481C225.213 144.132 225.125 142.851 225.386 141.913C225.681 140.86 226.587 140.047 226.844 138.983C227.442 136.487 224.235 133.505 222.132 132.635C219.957 131.742 216.695 131.954 214.439 132.228Z" fill="#472727"/>
<defs>
<linearGradient id="paint0_linear" x1="205.092" y1="208.522" x2="205.092" y2="33.366" gradientUnits="userSpaceOnUse">
<stop stop-color="#808080" stop-opacity="0.25"/>
<stop offset="0.54" stop-color="#808080" stop-opacity="0.12"/>
<stop offset="1" stop-color="#808080" stop-opacity="0.1"/>
</linearGradient>
<linearGradient id="paint1_linear" x1="55058.6" y1="126578" x2="55058.6" y2="63305.5" gradientUnits="userSpaceOnUse">
<stop stop-color="#808080" stop-opacity="0.25"/>
<stop offset="0.54" stop-color="#808080" stop-opacity="0.12"/>
<stop offset="1" stop-color="#808080" stop-opacity="0.1"/>
</linearGradient>
<linearGradient id="paint2_linear" x1="62200.8" y1="55676.7" x2="62200.8" y2="32270.7" gradientUnits="userSpaceOnUse">
<stop stop-color="#808080" stop-opacity="0.25"/>
<stop offset="0.54" stop-color="#808080" stop-opacity="0.12"/>
<stop offset="1" stop-color="#808080" stop-opacity="0.1"/>
</linearGradient>
<linearGradient id="paint3_linear" x1="84673.2" y1="122638" x2="84673.2" y2="63534.9" gradientUnits="userSpaceOnUse">
<stop stop-color="#808080" stop-opacity="0.25"/>
<stop offset="0.54" stop-color="#808080" stop-opacity="0.12"/>
<stop offset="1" stop-color="#808080" stop-opacity="0.1"/>
</linearGradient>
</defs>
</svg>
