<svg width="384" height="328" viewBox="0 0 384 328" fill="none" xmlns="http://www.w3.org/2000/svg">
<g clip-path="url(#clip0)">
<g opacity="0.5">
<path opacity="0.5" d="M212.01 0.0108413L176.15 237.367L348.167 263.286L384.026 25.9298L212.01 0.0108413Z" fill="url(#paint0_linear)"/>
</g>
<path d="M213.937 2.0896L178.87 234.199L346.509 259.458L381.576 27.3491L213.937 2.0896Z" fill="#F5F5F5"/>
<path d="M342.044 124.343L221.052 106.112L219.945 113.436L340.938 131.667L342.044 124.343Z" fill="#E0E0E0"/>
<path d="M339.279 142.649L218.287 124.418L217.18 131.742L338.172 149.973L339.279 142.649Z" fill="#E0E0E0"/>
<path d="M350.894 65.7566L288.563 56.3647L287.456 63.6888L349.787 73.0806L350.894 65.7566Z" fill="#E0E0E0"/>
<path d="M342.63 83.2389L291.298 75.5043L290.192 82.8283L341.524 90.5629L342.63 83.2389Z" fill="#FF6A00"/>
<path d="M321.847 158.748L215.518 142.727L214.412 150.051L320.74 166.072L321.847 158.748Z" fill="#E0E0E0"/>
<path d="M304.412 174.847L212.75 161.036L211.644 168.36L303.305 182.171L304.412 174.847Z" fill="#E0E0E0"/>
<path d="M290.647 191.497L209.984 179.343L208.877 186.667L289.54 198.821L290.647 191.497Z" fill="#E0E0E0"/>
<path d="M309.878 213.12L207.218 197.651L206.112 204.975L308.772 220.444L309.878 213.12Z" fill="#E0E0E0"/>
<path d="M244.785 222.034L204.456 215.958L203.349 223.281L243.678 229.358L244.785 222.034Z" fill="#FF8833"/>
<g opacity="0.5">
<path opacity="0.5" d="M276.748 66.4381C277.385 62.2188 276.917 57.9068 275.39 53.9217C273.863 49.9366 271.329 46.4141 268.035 43.6971C264.741 40.9801 260.798 39.1612 256.591 38.4172C252.384 37.6733 248.055 38.0298 244.027 39.452C239.999 40.8742 236.408 43.3136 233.603 46.5329C230.799 49.7521 228.877 53.6416 228.025 57.8227C227.172 62.0037 227.418 66.3341 228.738 70.3921C230.058 74.4502 232.408 78.0978 235.559 80.98C235.559 81.0151 235.559 81.0545 235.559 81.0896C236.241 81.9791 237.093 82.7245 238.066 83.2823L238.114 83.1771C239.111 84.3304 243.7 86.6284 249.246 87.4484H249.369C252.882 87.9834 256.786 87.9352 260.409 86.6284C260.409 86.6284 260.448 86.567 260.514 86.4529C261.424 86.1818 262.284 85.7657 263.061 85.2206L263.14 84.9488C266.74 83.1951 269.86 80.5941 272.23 77.3696C274.601 74.1451 276.151 70.3936 276.748 66.4381Z" fill="url(#paint1_linear)"/>
</g>
<path d="M275.905 65.4282C277.883 52.3354 268.858 40.1202 255.748 38.1448C242.638 36.1694 230.406 45.1818 228.428 58.2745C226.45 71.3673 235.475 83.5825 248.585 85.5579C261.695 87.5333 273.927 78.5209 275.905 65.4282Z" fill="#F5F5F5"/>
<path d="M241.224 69.7494C241.224 69.7494 235.515 69.3591 235.44 79.8753C236.103 80.735 236.93 81.4549 237.873 81.9934L242.677 71.7185L241.224 69.7494Z" fill="#FDA57D"/>
<path d="M259.578 72.5166C259.578 72.5166 265.164 73.8322 262.116 83.8967C261.23 84.526 260.227 84.9732 259.165 85.2123L257.606 73.9813L259.578 72.5166Z" fill="#FDA57D"/>
<path d="M244.016 52.9271C244.016 52.9271 240.143 60.3428 238.786 59.3868C238.786 59.3868 251.108 73.7401 265.463 63.4038C264.346 60.6101 262.898 57.96 261.151 55.5101L244.016 52.9271Z" fill="#333333"/>
<path d="M263.751 55.1563C264.627 49.3536 260.628 43.9397 254.817 43.0642C249.007 42.1887 243.586 46.183 242.709 51.9858C241.832 57.7886 245.832 63.2024 251.642 64.0779C257.453 64.9535 262.874 60.9591 263.751 55.1563Z" fill="#333333"/>
<path opacity="0.1" d="M259.469 72.4992L241.113 69.7365L238.294 76.8101C238.294 76.8101 236.775 80.0509 237.802 81.7348C238.83 83.4188 250.006 88.5717 259.32 85.2432C260.364 83.4009 260.775 81.2671 260.488 79.1694C260.026 75.5997 260.281 78.8887 260.281 78.8887L259.469 72.4992Z" fill="black"/>
<path opacity="0.1" d="M259.715 72.5385L241.36 69.7758L238.545 76.845C238.545 76.845 237.026 80.0858 238.053 81.7698C239.081 83.4537 250.257 88.6066 259.571 85.2781C260.615 83.4358 261.026 81.302 260.739 79.2043C260.277 75.6346 260.532 78.9237 260.532 78.9237L259.715 72.5385Z" fill="black"/>
<path d="M259.579 72.5166L241.224 69.7538L238.405 76.8274C238.405 76.8274 236.885 80.0682 237.913 81.7522C238.94 83.4362 250.116 88.589 259.43 85.2605C260.475 83.4182 260.885 81.2844 260.598 79.1867C260.137 75.617 260.392 78.9061 260.392 78.9061L259.579 72.5166Z" fill="#FDD835"/>
<path opacity="0.1" d="M247.767 64.5372L255.11 65.6435L254.11 72.2607C253.993 73.0347 253.573 73.7306 252.942 74.1953C252.311 74.66 251.522 74.8555 250.747 74.7387L249.244 74.5123C248.469 74.3956 247.772 73.9761 247.307 73.3462C246.842 72.7164 246.646 71.9277 246.763 71.1537L247.763 64.5365L247.767 64.5372Z" fill="black"/>
<path d="M247.803 64.2654L255.145 65.3717L254.145 71.9889C254.029 72.7629 253.608 73.4588 252.978 73.9235C252.347 74.3883 251.557 74.5837 250.782 74.4669L249.284 74.2412C248.509 74.1245 247.812 73.705 247.347 73.0751C246.882 72.4453 246.686 71.6566 246.803 70.8826L247.803 64.2654Z" fill="#FDA57D"/>
<path opacity="0.1" d="M247.666 65.3027C249.898 66.5423 252.501 66.9421 255.003 66.4298L255.139 65.5308L247.797 64.4257L247.666 65.3027Z" fill="black"/>
<path d="M263.406 57.4355C264.283 51.6328 260.283 46.2189 254.473 45.3434C248.662 44.4679 243.241 48.4622 242.365 54.265C241.488 60.0678 245.488 65.4816 251.298 66.3571C257.109 67.2326 262.53 63.2383 263.406 57.4355Z" fill="#FDA57D"/>
<path d="M243.406 50.3356L263.474 53.3571C263.474 53.3571 262.982 45.0249 255.319 44.3803C247.656 43.7356 243.406 50.3356 243.406 50.3356Z" fill="#333333"/>
<path d="M243.623 53.9929C243.776 52.9798 243.463 52.0927 242.923 52.0114C242.384 51.9301 241.822 52.6854 241.669 53.6985C241.516 54.7115 241.83 55.5986 242.369 55.6799C242.909 55.7612 243.47 55.0059 243.623 53.9929Z" fill="#FDA57D"/>
<path d="M264.181 57.092C264.334 56.079 264.02 55.1918 263.481 55.1105C262.941 55.0292 262.38 55.7846 262.227 56.7976C262.074 57.8106 262.387 58.6977 262.927 58.779C263.466 58.8603 264.028 58.105 264.181 57.092Z" fill="#FDA57D"/>
<path opacity="0.1" d="M243.375 50.6075L263.443 53.629C263.443 53.629 262.951 45.2968 255.288 44.6521C247.626 44.0075 243.375 50.6075 243.375 50.6075Z" fill="black"/>
<g opacity="0.5">
<path opacity="0.5" d="M172.367 34.1139L0.144043 61.9109L38.6021 299.553L210.826 271.756L172.367 34.1139Z" fill="url(#paint2_linear)"/>
</g>
<path d="M169.779 35.5014L2.4751 62.8918L40.5005 294.536L207.804 267.145L169.779 35.5014Z" fill="#F5F5F5"/>
<path d="M162.023 139.912L41.2729 159.681L42.4728 166.99L163.223 147.221L162.023 139.912Z" fill="#E0E0E0"/>
<path d="M165.022 158.185L44.2725 177.954L45.4723 185.263L166.222 165.494L165.022 158.185Z" fill="#E0E0E0"/>
<path d="M152.429 81.4454L90.2236 91.6295L91.4235 98.9389L153.629 88.7547L152.429 81.4454Z" fill="#E0E0E0"/>
<path d="M149.938 100.616L98.7085 109.004L99.9084 116.313L151.138 107.926L149.938 100.616Z" fill="#FF6A00"/>
<path d="M153.387 178.852L47.271 196.225L48.4709 203.534L154.587 186.161L153.387 178.852Z" fill="#E0E0E0"/>
<path d="M141.747 199.516L50.269 214.492L51.4689 221.802L142.947 206.825L141.747 199.516Z" fill="#E0E0E0"/>
<path d="M133.77 219.587L53.269 232.767L54.4689 240.076L134.97 226.897L133.77 219.587Z" fill="#E0E0E0"/>
<path d="M158.723 234.261L56.2686 251.034L57.4684 258.343L159.923 241.57L158.723 234.261Z" fill="#E0E0E0"/>
<path d="M99.5195 262.719L59.271 269.308L60.4709 276.617L100.719 270.028L99.5195 262.719Z" fill="#FF6A00"/>
<g opacity="0.5">
<path opacity="0.5" d="M84.3297 103.258C83.6185 98.9294 81.7973 94.8584 79.0435 91.4412C76.2896 88.024 72.6968 85.377 68.6147 83.7577C64.5326 82.1385 60.1003 81.6022 55.7491 82.201C51.3979 82.7999 47.2761 84.5135 43.7847 87.175C40.2934 89.8366 37.5514 93.3555 35.8257 97.3892C34.1001 101.423 33.4494 105.834 33.9371 110.193C34.4249 114.553 36.0343 118.712 38.6089 122.266C41.1835 125.82 44.6355 128.647 48.629 130.474L48.6641 130.583C49.613 131.234 50.6817 131.69 51.8082 131.925V131.807C53.1475 132.622 58.3643 133.425 64.051 132.478H64.1739C67.7791 131.895 71.5819 130.614 74.7129 128.193C74.7129 128.193 74.7129 128.123 74.7568 127.992C75.5617 127.44 76.2719 126.761 76.8602 125.983C76.8602 125.884 76.8602 125.787 76.8602 125.694C79.8347 122.84 82.069 119.306 83.3704 115.397C84.6717 111.489 85.0009 107.322 84.3297 103.258Z" fill="url(#paint3_linear)"/>
</g>
<path d="M63.2203 131.681C76.6705 129.479 85.7865 116.805 83.5815 103.373C81.3766 89.9406 68.6856 80.8368 55.2355 83.0388C41.7853 85.2408 32.6693 97.9148 34.8743 111.347C37.0792 124.779 49.7702 133.883 63.2203 131.681Z" fill="#F5F5F5"/>
<path d="M50.2439 118.603C50.2439 118.603 44.5353 120.028 47.7848 130.334C48.7049 130.97 49.7422 131.417 50.8367 131.649L52.2902 120.081L50.2439 118.603Z" fill="#4D8AF0"/>
<path d="M69.0746 115.52C69.0746 115.52 74.9545 115.042 75.1521 125.856C74.4806 126.742 73.6404 127.488 72.6798 128.049L67.6035 117.55L69.0746 115.52Z" fill="#4D8AF0"/>
<path d="M58.6247 109.758C64.5863 108.782 68.6269 103.164 67.6495 97.2103C66.6722 91.2567 61.0471 87.2215 55.0855 88.1975C49.1239 89.1735 45.0833 94.7911 46.0606 100.745C47.0379 106.698 52.6631 110.734 58.6247 109.758Z" fill="#333333"/>
<path d="M68.964 115.537L50.1344 118.607L49.6119 126.417C49.6119 126.417 49.1728 130.07 50.6877 131.39C52.2027 132.71 64.7923 134.232 72.8239 128.023C73.2635 125.891 72.9905 123.674 72.0467 121.712C70.4658 118.366 71.7525 121.501 71.7525 121.501L68.964 115.537Z" fill="#4D8AF0"/>
<path d="M69.2145 115.498L50.3849 118.567L49.8624 126.378C49.8624 126.378 49.4232 130.031 50.9382 131.351C52.4532 132.671 65.0428 134.193 73.0744 127.983C73.514 125.851 73.2409 123.634 72.2971 121.672C70.7163 118.326 72.0029 121.462 72.0029 121.462L69.2145 115.498Z" fill="#4D8AF0"/>
<path d="M69.0739 115.52L50.2443 118.59L49.7217 126.413C49.7217 126.413 49.2826 130.066 50.7976 131.386C52.3126 132.706 64.9022 134.228 72.9338 128.018C73.3734 125.886 73.1003 123.669 72.1565 121.708C70.5757 118.361 71.8623 121.497 71.8623 121.497L69.0739 115.52Z" fill="#4D8AF0"/>
<path opacity="0.1" d="M55.0019 111.412L62.5333 110.179L63.6607 117.047C63.7875 117.819 63.6018 118.61 63.1446 119.246C62.6873 119.882 61.9959 120.31 61.2224 120.437L59.5194 120.716C58.746 120.842 57.9538 120.657 57.3172 120.2C56.6806 119.744 56.2518 119.053 56.125 118.281L54.9976 111.413L55.0019 111.412Z" fill="black"/>
<path d="M54.957 111.133L62.4884 109.9L63.6158 116.768C63.7426 117.54 63.5569 118.331 63.0997 118.967C62.6424 119.603 61.951 120.031 61.1775 120.158L59.4745 120.437C58.701 120.563 57.9089 120.378 57.2723 119.921C56.6357 119.464 56.2068 118.774 56.08 118.001L54.9526 111.134L54.957 111.133Z" fill="#FDA57D"/>
<path opacity="0.1" d="M55.1405 112.218C57.7164 112.727 60.3899 112.298 62.6759 111.007L62.5222 110.082L54.9912 111.319L55.1405 112.218Z" fill="black"/>
<path d="M59.0124 112.098C64.974 111.122 69.0146 105.505 68.0372 99.551C67.0599 93.5973 61.4348 89.5622 55.4732 90.5382C49.5115 91.5142 45.471 97.1318 46.4483 103.085C47.4256 109.039 53.0507 113.074 59.0124 112.098Z" fill="#FDA57D"/>
<path opacity="0.1" d="M46.2881 99.1929L66.8786 95.825C66.8786 95.825 63.7564 87.8085 56.063 89.6153C48.3695 91.4221 46.2881 99.1929 46.2881 99.1929Z" fill="black"/>
<path d="M46.2393 98.9164L66.8473 95.544C66.8473 95.544 63.7251 87.5275 56.0317 89.3343C48.3383 91.1411 46.2393 98.9164 46.2393 98.9164Z" fill="#333333"/>
<path d="M47.0314 105.117C47.5885 105.027 47.9032 104.109 47.7344 103.066C47.5656 102.023 46.9772 101.25 46.4202 101.34C45.8632 101.43 45.5485 102.348 45.7173 103.391C45.886 104.434 46.4744 105.207 47.0314 105.117Z" fill="#FDA57D"/>
<path d="M67.9906 101.016C68.5458 100.925 68.8575 100.009 68.6869 98.9691C68.5162 97.9294 67.9278 97.1603 67.3725 97.2512C66.8173 97.3421 66.5055 98.2586 66.6762 99.2983C66.8469 100.338 67.4353 101.107 67.9906 101.016Z" fill="#FDA57D"/>
<g opacity="0.5">
<path opacity="0.5" d="M298.072 72.5647H124.109V312.607H298.072V72.5647Z" fill="url(#paint4_linear)"/>
</g>
<path d="M295.859 74.332H126.322V309.068H295.859V74.332Z" fill="white"/>
<g opacity="0.5">
<path opacity="0.5" d="M148.964 128.04C148.964 123.555 150.127 119.146 152.34 115.243C154.553 111.34 157.739 108.076 161.59 105.768C165.441 103.46 169.824 102.186 174.313 102.072C178.803 101.957 183.246 103.006 187.209 105.115C191.173 107.223 194.522 110.321 196.931 114.106C199.341 117.891 200.727 122.235 200.957 126.714C201.187 131.193 200.251 135.655 198.242 139.666C196.233 143.677 193.218 147.1 189.491 149.603V149.717C188.641 150.531 187.638 151.169 186.54 151.594L186.505 151.48C185.288 152.523 180.159 154.194 174.266 154.177H174.139C170.406 154.177 166.358 153.519 162.792 151.594C162.792 151.594 162.761 151.523 162.713 151.396C161.809 150.972 160.98 150.405 160.258 149.717L160.219 149.423C156.747 147.037 153.909 143.844 151.948 140.119C149.987 136.394 148.963 132.248 148.964 128.04Z" fill="url(#paint5_linear)"/>
</g>
<path d="M174.973 153.238C188.908 153.238 200.205 141.957 200.205 128.04C200.205 114.123 188.908 102.842 174.973 102.842C161.037 102.842 149.741 114.123 149.741 128.04C149.741 141.957 161.037 153.238 174.973 153.238Z" fill="#F5F5F5"/>
<path d="M165.076 137.64C165.076 137.64 159.064 138.126 160.654 149.09C161.478 149.879 162.451 150.498 163.517 150.91L166.898 139.477L165.076 137.64Z" fill="#BE7C5E"/>
<path d="M184.586 137.64C184.586 137.64 190.597 138.126 189.008 149.09C188.183 149.879 187.21 150.498 186.144 150.91L182.776 139.442L184.586 137.64Z" fill="#BE7C5E"/>
<path d="M165.334 119.708C165.334 119.708 164.873 121.054 164.214 122.611C162.783 126.014 164.416 139.091 167.841 140.486C171.684 142.051 176.738 143.051 181.986 141.139C186.548 139.477 187.953 124.593 184.73 120.966C184.353 120.528 183.957 120.12 183.545 119.708H165.334Z" fill="#333333"/>
<path d="M174.99 130.101C181.167 130.101 186.175 125.1 186.175 118.932C186.175 112.763 181.167 107.762 174.99 107.762C168.813 107.762 163.806 112.763 163.806 118.932C163.806 125.1 168.813 130.101 174.99 130.101Z" fill="#333333"/>
<path opacity="0.1" d="M184.471 137.64H164.961L163.138 145.432C163.138 145.432 162.067 149.042 163.397 150.629C164.728 152.217 177.155 155.826 186.289 150.888C187.085 148.81 187.176 146.528 186.548 144.393C185.507 140.758 186.289 144.134 186.289 144.134L184.471 137.64Z" fill="black"/>
<path opacity="0.1" d="M184.731 137.64H165.212L163.389 145.432C163.389 145.432 162.318 149.042 163.648 150.629C164.979 152.217 177.406 155.826 186.54 150.888C187.336 148.81 187.427 146.528 186.799 144.393C185.758 140.758 186.54 144.134 186.54 144.134L184.731 137.64Z" fill="black"/>
<path d="M184.585 137.64H165.075L163.253 145.432C163.253 145.432 162.181 149.042 163.512 150.629C164.842 152.217 177.269 155.826 186.403 150.888C187.199 148.81 187.29 146.528 186.662 144.393C185.622 140.758 186.403 144.134 186.403 144.134L184.585 137.64Z" fill="#3AD29F"/>
<path opacity="0.1" d="M171.061 131.171H178.864V138.354C178.864 139.137 178.553 139.888 177.999 140.441C177.444 140.995 176.693 141.306 175.909 141.306H174.012C173.228 141.306 172.476 140.995 171.922 140.441C171.368 139.888 171.057 139.137 171.057 138.354V131.171H171.061Z" fill="black"/>
<path d="M171.061 130.882H178.864V138.065C178.864 138.848 178.553 139.598 177.999 140.152C177.444 140.705 176.693 141.016 175.909 141.016H174.012C173.228 141.016 172.476 140.705 171.922 140.152C171.368 139.598 171.057 138.848 171.057 138.065V130.882H171.061Z" fill="#BE7C5E"/>
<path opacity="0.1" d="M171.074 131.987C173.591 132.918 176.359 132.918 178.877 131.987V131.031H171.074V131.987Z" fill="black"/>
<path d="M174.99 132.526C181.167 132.526 186.175 127.526 186.175 121.357C186.175 115.188 181.167 110.187 174.99 110.187C168.813 110.187 163.806 115.188 163.806 121.357C163.806 127.526 168.813 132.526 174.99 132.526Z" fill="#BE7C5E"/>
<path d="M164.294 117.116H185.627C185.627 117.116 183.804 108.512 175.742 109.065C167.68 109.617 164.294 117.116 164.294 117.116Z" fill="#333333"/>
<path d="M164.039 122.83C164.614 122.83 165.08 121.958 165.08 120.883C165.08 119.808 164.614 118.936 164.039 118.936C163.464 118.936 162.999 119.808 162.999 120.883C162.999 121.958 163.464 122.83 164.039 122.83Z" fill="#BE7C5E"/>
<path d="M185.889 122.83C186.464 122.83 186.93 121.958 186.93 120.883C186.93 119.808 186.464 118.936 185.889 118.936C185.315 118.936 184.849 119.808 184.849 120.883C184.849 121.958 185.315 122.83 185.889 122.83Z" fill="#BE7C5E"/>
<path opacity="0.1" d="M164.294 117.401H185.627C185.627 117.401 183.804 108.797 175.742 109.349C167.68 109.902 164.294 117.401 164.294 117.401Z" fill="black"/>
<path d="M271.29 176.117H148.929V183.524H271.29V176.117Z" fill="#E0E0E0"/>
<path d="M271.29 194.632H148.929V202.039H271.29V194.632Z" fill="#E0E0E0"/>
<path d="M271.295 116.87H208.259V124.277H271.295V116.87Z" fill="#E0E0E0"/>
<path d="M265.731 135.385H213.818V142.792H265.731V135.385Z" fill="#FF6A00"/>
<path d="M256.461 213.147H148.929V220.554H256.461V213.147Z" fill="#E0E0E0"/>
<path d="M241.628 231.662H148.929V239.069H241.628V231.662Z" fill="#E0E0E0"/>
<path d="M230.505 250.181H148.929V257.588H230.505V250.181Z" fill="#E0E0E0"/>
<path d="M252.751 268.697H148.929V276.104H252.751V268.697Z" fill="#E0E0E0"/>
<path d="M189.714 287.212H148.929V294.619H189.714V287.212Z" fill="#FF6A00"/>
<g opacity="0.5">
<path opacity="0.5" d="M286.339 328.004C306.805 328.004 323.396 311.435 323.396 290.996C323.396 270.557 306.805 253.988 286.339 253.988C265.873 253.988 249.281 270.557 249.281 290.996C249.281 311.435 265.873 328.004 286.339 328.004Z" fill="url(#paint6_linear)"/>
</g>
<path d="M286.339 325.825C305.6 325.825 321.214 310.232 321.214 290.996C321.214 271.761 305.6 256.168 286.339 256.168C267.078 256.168 251.464 271.761 251.464 290.996C251.464 310.232 267.078 325.825 286.339 325.825Z" fill="#FF6A00"/>
<path d="M271.202 286.348L284.28 298.32L302.806 271.113L309.349 276.555L284.28 309.204L265.753 288.527L271.202 286.348Z" fill="white"/>
</g>
<defs>
<linearGradient id="paint0_linear" x1="262.158" y1="250.326" x2="297.925" y2="12.9563" gradientUnits="userSpaceOnUse">
<stop stop-color="#808080" stop-opacity="0.25"/>
<stop offset="0.54" stop-color="#808080" stop-opacity="0.12"/>
<stop offset="1" stop-color="#808080" stop-opacity="0.1"/>
</linearGradient>
<linearGradient id="paint1_linear" x1="29004.5" y1="36359.1" x2="29842.3" y2="30799.2" gradientUnits="userSpaceOnUse">
<stop stop-color="#808080" stop-opacity="0.25"/>
<stop offset="0.54" stop-color="#808080" stop-opacity="0.12"/>
<stop offset="1" stop-color="#808080" stop-opacity="0.1"/>
</linearGradient>
<linearGradient id="paint2_linear" x1="96623.2" y1="78365.3" x2="75627.1" y2="-51721.6" gradientUnits="userSpaceOnUse">
<stop stop-color="#808080" stop-opacity="0.25"/>
<stop offset="0.54" stop-color="#808080" stop-opacity="0.12"/>
<stop offset="1" stop-color="#808080" stop-opacity="0.1"/>
</linearGradient>
<linearGradient id="paint3_linear" x1="19934.1" y1="-1960.72" x2="18977.3" y2="-7804.78" gradientUnits="userSpaceOnUse">
<stop stop-color="#808080" stop-opacity="0.25"/>
<stop offset="0.54" stop-color="#808080" stop-opacity="0.12"/>
<stop offset="1" stop-color="#808080" stop-opacity="0.1"/>
</linearGradient>
<linearGradient id="paint4_linear" x1="83749.9" y1="171184" x2="83749.9" y2="39792.4" gradientUnits="userSpaceOnUse">
<stop stop-color="#808080" stop-opacity="0.25"/>
<stop offset="0.54" stop-color="#808080" stop-opacity="0.12"/>
<stop offset="1" stop-color="#808080" stop-opacity="0.1"/>
</linearGradient>
<linearGradient id="paint5_linear" x1="26430.6" y1="22385.7" x2="26430.6" y2="16192" gradientUnits="userSpaceOnUse">
<stop stop-color="#808080" stop-opacity="0.25"/>
<stop offset="0.54" stop-color="#808080" stop-opacity="0.12"/>
<stop offset="1" stop-color="#808080" stop-opacity="0.1"/>
</linearGradient>
<linearGradient id="paint6_linear" x1="48577.6" y1="55613.8" x2="48577.6" y2="43122" gradientUnits="userSpaceOnUse">
<stop stop-color="#808080" stop-opacity="0.25"/>
<stop offset="0.54" stop-color="#808080" stop-opacity="0.12"/>
<stop offset="1" stop-color="#808080" stop-opacity="0.1"/>
</linearGradient>
<clipPath id="clip0">
<rect width="384" height="328" fill="white"/>
</clipPath>
</defs>
</svg>
