<svg width="384" height="290" viewBox="0 0 384 290" fill="none" xmlns="http://www.w3.org/2000/svg">
<path d="M236.492 39.7168C220.014 53.7207 198.642 52.8147 179.914 45.5274C161.185 38.24 143.981 25.2705 125.733 16.0499C110.436 8.32023 94.3824 3.24442 78.1333 0.986523C54.8765 -2.24516 28.9051 1.69992 12.7023 24.3288C-5.34236 49.5402 -3.9565 95.012 15.5524 118.14C25.4814 129.911 38.4814 135.69 49.8176 144.893C61.1539 154.095 71.6529 169.348 70.6874 187.09C69.7932 203.498 59.4011 216.114 48.6455 224.022C40.3339 230.133 30.0985 236.806 29.0975 249.466C28.1284 261.711 36.7357 271.31 44.9547 276.767C71.7669 294.57 104.807 294.399 131.526 276.318C141.053 269.865 149.802 261.283 159.796 256.261C186.034 243.063 214.948 256.346 242.733 261.208C266.247 265.321 290.362 263.188 313.273 254.973C327.032 250.04 340.844 242.489 350.51 228.449C357.482 218.319 361.824 205.496 365.9 192.833C370.246 179.333 374.425 165.736 378.437 152.041C380.842 143.819 383.211 135.44 383.834 126.648C384.96 110.71 380.215 94.9549 373.752 81.5074C358.408 49.5723 332.565 27.1182 304.577 21.4146C276.589 15.711 246.98 26.8507 225.273 51.2274" fill="#F8F9FA"/>
<path opacity="0.1" d="M174.406 193.645C219.066 193.645 255.27 191.991 255.27 189.95C255.27 187.909 219.066 186.255 174.406 186.255C129.746 186.255 93.542 187.909 93.542 189.95C93.542 191.991 129.746 193.645 174.406 193.645Z" fill="#FF8833"/>
<path d="M171.69 174.691C131.265 174.691 98.3789 141.764 98.3789 101.289C98.3789 60.8148 131.255 27.8881 171.69 27.8881C212.126 27.8881 244.991 60.8184 244.991 101.289C244.991 141.76 212.101 174.691 171.69 174.691ZM171.69 28.6015C131.657 28.6015 99.0914 61.2108 99.0914 101.289C99.0914 141.368 131.647 173.977 171.69 173.977C211.734 173.977 244.289 141.368 244.289 101.289C244.289 61.2108 211.709 28.6015 171.69 28.6015Z" fill="#FAB072"/>
<path d="M171.692 158.219C140.341 158.219 114.829 132.679 114.829 101.29C114.829 69.9005 140.341 44.361 171.692 44.361C203.043 44.361 228.551 69.9005 228.551 101.29C228.551 132.679 203.043 158.219 171.692 158.219ZM171.692 45.0744C140.729 45.0744 115.541 70.2929 115.541 101.29C115.541 132.287 140.729 157.505 171.692 157.505C202.654 157.505 227.838 132.287 227.838 101.29C227.838 70.2929 202.64 45.0744 171.692 45.0744Z" fill="#FAB072"/>
<path d="M171.691 140.526C163.94 140.526 156.363 138.225 149.919 133.913C143.474 129.602 138.451 123.474 135.485 116.304C132.519 109.135 131.743 101.246 133.255 93.6345C134.767 86.0234 138.499 79.032 143.98 73.5447C149.461 68.0573 156.444 64.3204 164.045 62.8064C171.647 61.2925 179.527 62.0695 186.688 65.0392C193.848 68.009 199.969 73.038 204.275 79.4905C208.581 85.9429 210.88 93.529 210.88 101.289C210.867 111.692 206.735 121.665 199.388 129.02C192.041 136.376 182.081 140.514 171.691 140.526ZM171.691 62.7659C164.081 62.7659 156.642 65.0253 150.314 69.2583C143.987 73.4913 139.056 79.5078 136.143 86.547C133.231 93.5862 132.469 101.332 133.954 108.805C135.438 116.278 139.103 123.142 144.484 128.529C149.865 133.917 156.721 137.586 164.184 139.072C171.648 140.559 179.384 139.796 186.415 136.88C193.446 133.964 199.455 129.027 203.683 122.692C207.91 116.357 210.167 108.908 210.167 101.289C210.155 91.076 206.097 81.2846 198.884 74.0627C191.671 66.8408 181.892 62.7782 171.691 62.7659Z" fill="#FAB072"/>
<path opacity="0.1" d="M63.6038 237.42C80.1393 237.42 93.544 235.217 93.544 232.501C93.544 229.784 80.1393 227.582 63.6038 227.582C47.0683 227.582 33.6636 229.784 33.6636 232.501C33.6636 235.217 47.0683 237.42 63.6038 237.42Z" fill="#FF8833"/>
<g opacity="0.1">
<path opacity="0.1" d="M116.088 96.2065H24.7461C23.4811 96.2103 22.269 96.7151 21.3746 97.6107C20.4801 98.5062 19.9759 99.7198 19.9722 100.986V158.771C19.9759 160.038 20.4801 161.251 21.3746 162.147C22.269 163.043 23.4811 163.547 24.7461 163.551H96.401C96.401 163.551 98.2571 173.417 92.1579 174.48C92.1579 174.48 105.817 175.461 103.43 163.551H116.088C117.353 163.547 118.565 163.043 119.46 162.147C120.354 161.251 120.858 160.038 120.862 158.771V100.986C120.858 99.7198 120.354 98.5062 119.46 97.6107C118.565 96.7151 117.353 96.2103 116.088 96.2065Z" fill="black"/>
<g opacity="0.2">
<path opacity="0.2" d="M105.394 111.545H35.4389C34.3233 111.545 33.4189 112.451 33.4189 113.568V114.038C33.4189 115.155 34.3233 116.061 35.4389 116.061H105.394C106.51 116.061 107.414 115.155 107.414 114.038V113.568C107.414 112.451 106.51 111.545 105.394 111.545Z" fill="black"/>
<path opacity="0.2" d="M105.394 131.727H35.4389C34.3233 131.727 33.4189 132.632 33.4189 133.749V134.22C33.4189 135.337 34.3233 136.243 35.4389 136.243H105.394C106.51 136.243 107.414 135.337 107.414 134.22V133.749C107.414 132.632 106.51 131.727 105.394 131.727Z" fill="black"/>
<path opacity="0.2" d="M93.4526 141.814H35.4389C34.3233 141.814 33.4189 142.72 33.4189 143.837V144.308C33.4189 145.425 34.3233 146.33 35.4389 146.33H93.4526C94.5682 146.33 95.4726 145.425 95.4726 144.308V143.837C95.4726 142.72 94.5682 141.814 93.4526 141.814Z" fill="black"/>
<path opacity="0.2" d="M63.4839 121.636H35.4389C34.3233 121.636 33.4189 122.541 33.4189 123.658V124.129C33.4189 125.246 34.3233 126.152 35.4389 126.152H63.4839C64.5995 126.152 65.5039 125.246 65.5039 124.129V123.658C65.5039 122.541 64.5995 121.636 63.4839 121.636Z" fill="black"/>
</g>
</g>
<path d="M116.887 95.8074H25.542C24.277 95.8111 23.0649 96.3159 22.1705 97.2115C21.276 98.1071 20.7718 99.3206 20.7681 100.587V158.372C20.7718 159.639 21.276 160.852 22.1705 161.748C23.0649 162.643 24.277 163.148 25.542 163.152H97.1969C97.1969 163.152 99.0565 173.018 92.9538 174.078C92.9538 174.078 106.613 175.058 104.226 163.152H116.887C118.152 163.148 119.364 162.643 120.258 161.748C121.152 160.852 121.655 159.638 121.658 158.372V100.587C121.655 99.3209 121.152 98.1074 120.258 97.2117C119.364 96.316 118.152 95.8111 116.887 95.8074Z" fill="#FF6A00"/>
<path opacity="0.8" d="M106.191 111.145H36.2353C35.1197 111.145 34.2153 112.051 34.2153 113.168V113.639C34.2153 114.756 35.1197 115.661 36.2353 115.661H106.191C107.307 115.661 108.211 114.756 108.211 113.639V113.168C108.211 112.051 107.307 111.145 106.191 111.145Z" fill="white"/>
<path opacity="0.8" d="M106.193 131.327H36.2373C35.1217 131.327 34.2173 132.233 34.2173 133.35V133.821C34.2173 134.938 35.1217 135.843 36.2373 135.843H106.193C107.308 135.843 108.213 134.938 108.213 133.821V133.35C108.213 132.233 107.308 131.327 106.193 131.327Z" fill="white"/>
<path opacity="0.8" d="M94.2509 141.418H36.2373C35.1217 141.418 34.2173 142.324 34.2173 143.441V143.912C34.2173 145.029 35.1217 145.934 36.2373 145.934H94.2509C95.3666 145.934 96.2709 145.029 96.2709 143.912V143.441C96.2709 142.324 95.3666 141.418 94.2509 141.418Z" fill="white"/>
<path opacity="0.8" d="M64.2822 121.236H36.2373C35.1217 121.236 34.2173 122.142 34.2173 123.259V123.73C34.2173 124.847 35.1217 125.752 36.2373 125.752H64.2822C65.3978 125.752 66.3022 124.847 66.3022 123.73V123.259C66.3022 122.142 65.3978 121.236 64.2822 121.236Z" fill="white"/>
<path d="M82.9813 94.8905L77.9188 105.67C77.9188 105.67 77.1706 107.692 76.6897 108.067C76.2087 108.441 74.0819 114.844 74.0819 114.844L68.656 123.241L68.2997 123.812L66.1622 123.223L64.6694 117.634L64.7621 116.011V115.807C64.7621 115.807 68.1216 112.29 68.8662 112.023C68.8662 112.023 69.4505 112.09 70.5727 109.365C71.6949 106.64 72.7103 106.048 72.7103 106.048L73.2945 104.072L79.5861 94.0451C79.5861 94.0451 84.8588 86.4725 86.2945 89.8325C87.7302 93.1926 82.9813 94.8905 82.9813 94.8905Z" fill="#FFD2C6"/>
<path d="M61.9611 171.456C61.944 171.639 61.8855 171.816 61.7901 171.973C61.2058 172.826 57.9033 190.268 57.9033 190.268C58.1669 191.445 57.4259 193.792 56.9414 194.859C56.4569 195.925 55.3952 201.472 55.3952 201.472C55.3952 201.472 55.1316 213.421 54.4404 215.287C53.7493 217.152 54.6613 221.155 54.6613 221.155C54.5936 222.995 55.698 224.939 56.3535 225.931C56.4034 225.995 56.4426 226.059 56.4818 226.113C56.6956 226.419 56.8381 226.594 56.8381 226.594C57.0169 226.952 57.2709 227.267 57.5827 227.518C57.629 227.557 57.6788 227.593 57.7323 227.632C58.6371 228.241 59.6508 228.67 60.7178 228.895L60.8211 228.916C61.2486 229.013 61.5336 229.048 61.5336 229.048L61.7972 230.475L58.9756 231.06L53.5961 231.417C53.5961 231.417 47.2546 231.898 48.6939 229.07C48.7951 228.877 48.882 228.676 48.954 228.47C49.0074 228.335 49.0573 228.192 49.1001 228.05C49.9658 225.332 49.3815 222.029 49.3815 222.029L48.1417 212.416C46.1217 203.455 49.7378 193.478 49.7378 193.478C49.7378 193.478 49.4207 192.679 50.1154 190.653C50.8101 188.627 50.1154 184.201 50.1154 184.201C50.1154 184.201 49.7591 178.494 49.2639 175.665C49.0749 174.478 49.0105 173.274 49.0716 172.073C49.0943 171.368 49.1586 170.666 49.2639 169.968L61.4125 168.356C61.4125 168.356 62.0965 170.325 61.9611 171.456Z" fill="#FFD2C6"/>
<path opacity="0.1" d="M61.7846 230.493L58.963 231.078L53.5835 231.434C53.5835 231.434 47.242 231.916 48.6813 229.087C48.7825 228.894 48.8694 228.694 48.9414 228.488C48.9948 228.352 49.0447 228.21 49.0874 228.067C50.1851 228.101 51.2691 228.321 52.2938 228.716C54.1 229.43 55.461 227.593 55.461 227.593L56.3374 225.916L56.4656 225.674C56.6794 225.98 56.8219 226.155 56.8219 226.155C57.0318 226.567 57.3387 226.922 57.7161 227.19L57.5665 227.503L56.715 229.287C56.715 229.287 57.8052 229.398 59.2979 229.644C59.586 229.722 59.8931 229.685 60.1548 229.542C60.4165 229.398 60.6125 229.158 60.7016 228.873L60.8049 228.895C61.2324 228.991 61.5174 229.027 61.5174 229.027L61.7846 230.493Z" fill="black"/>
<path d="M64.3944 231.823C64.1806 232.783 58.2417 233.079 58.2417 233.079C58.2417 233.079 54.9356 232.758 54.0093 233.532C53.083 234.306 50.3541 234.12 50.2472 234.12C50.1403 234.12 48.7046 234.063 48.1417 231.481C47.5966 228.962 48.8756 228.524 48.9397 228.502C50.0894 228.518 51.2271 228.739 52.2993 229.155C54.1055 229.868 55.4664 228.035 55.4664 228.035L56.4711 226.112C56.6849 226.419 56.8274 226.594 56.8274 226.594C57.0356 227.008 57.3427 227.365 57.7216 227.632L56.7205 229.74C56.7205 229.74 57.8106 229.851 59.3034 230.097C60.4968 230.289 60.7569 229.316 60.8104 228.923C60.8139 228.87 60.8139 228.816 60.8104 228.763C60.8104 228.763 61.7402 229.03 62.8838 229.351C63.3993 229.499 63.8407 229.834 64.1205 230.292C64.4003 230.75 64.498 231.297 64.3944 231.823Z" fill="#626696"/>
<path d="M75.5862 184.169C75.4437 185.022 75.2976 187.229 75.2976 187.229C75.7964 189.077 74.5174 193.468 74.5174 193.468L73.8797 195.965C74.1647 199.175 72.1233 206.991 72.1233 206.991C72.1233 206.991 70.7553 214.246 70.0428 217.378C69.6176 219.115 69.7421 220.943 70.399 222.607C70.4346 222.692 70.456 222.735 70.456 222.735C70.456 222.796 70.481 222.853 70.4988 222.91C70.5166 222.967 70.5451 223.081 70.5736 223.163C70.7371 223.6 70.9785 224.004 71.2861 224.355C71.4031 224.495 71.5305 224.626 71.6673 224.747L71.6887 224.768C72.3576 225.361 73.1242 225.833 73.9545 226.163L74.3108 226.306C74.6804 226.445 75.0574 226.564 75.4401 226.662C75.4823 226.674 75.5251 226.684 75.5684 226.691L75.2798 228.367L71.5177 227.404L66.4766 225.767L63.9828 224.34C63.9828 224.34 64.0113 224.205 64.0611 223.944C64.0611 223.944 64.0611 223.916 64.0611 223.902C64.0825 223.791 64.1039 223.659 64.136 223.509C64.5599 221.333 65.5254 215.162 65.0409 210.632C64.4388 205.014 66.7758 197.26 67.3459 195.412C67.6834 194.356 67.8283 193.248 67.7734 192.141C66.8471 190.786 66.6333 185.385 66.6333 185.385C66.6333 185.385 64.9304 181.897 63.5196 178.198C63.0542 176.99 62.714 175.737 62.5043 174.46C62.34 173.559 62.2707 172.643 62.2976 171.727C62.2976 171.727 73.7408 161.273 74.9948 171.396C75.0375 171.752 75.0767 172.066 75.1159 172.387C76.2132 181.64 75.7216 183.345 75.5862 184.169Z" fill="#FFD2C6"/>
<path opacity="0.1" d="M75.5842 226.701L75.2956 228.378L71.5335 227.415L66.4924 225.778L63.9985 224.351C63.9985 224.351 64.027 224.215 64.0769 223.955C64.0769 223.955 64.0769 223.926 64.0769 223.912C64.0983 223.801 64.1197 223.669 64.1517 223.52L64.508 223.484H64.5365C65.2532 223.417 65.9756 223.515 66.6491 223.769C67.4685 224.08 68.5444 224.433 68.7653 224.283C69.1461 224.12 69.5594 224.046 69.973 224.069L70.4967 222.92L70.5716 222.746C70.7342 223.183 70.9757 223.587 71.2841 223.937C71.4082 224.084 71.5427 224.223 71.6867 224.351L71.6653 224.757L71.6368 225.332C72.1991 225.692 72.808 225.974 73.4466 226.17C73.6127 226.211 73.7864 226.211 73.9525 226.17L74.3087 226.313C74.6783 226.452 75.0554 226.571 75.4381 226.669C75.486 226.683 75.5348 226.694 75.5842 226.701Z" fill="black"/>
<path d="M73.7203 230.278C72.6694 229.975 70.1363 229.494 69.7266 229.868C69.3169 230.243 65.8078 229.868 65.8078 229.868C65.439 229.862 65.0782 229.76 64.7604 229.572C64.4427 229.385 64.1788 229.118 63.9944 228.798C63.2819 227.66 63.8555 223.979 63.8555 223.979L64.1155 223.954L64.5502 223.911H64.5787C65.2954 223.843 66.0183 223.941 66.6913 224.197C67.5107 224.503 68.5866 224.857 68.8075 224.71C69.1877 224.545 69.6015 224.472 70.0152 224.496L70.6137 223.173C70.7772 223.61 71.0186 224.014 71.3263 224.364C71.4504 224.512 71.5849 224.65 71.7288 224.778L71.679 225.759C72.2418 226.118 72.8506 226.399 73.4888 226.594C73.6429 226.657 73.8142 226.664 73.973 226.614C74.1318 226.564 74.268 226.459 74.358 226.319C74.3866 226.274 74.4082 226.224 74.4222 226.173C74.4542 226.233 74.7998 226.351 75.9078 226.669C77.1119 226.601 78.2733 227.125 78.8077 228.759C79.3421 230.393 74.7499 230.578 73.7203 230.278Z" fill="#626696"/>
<path opacity="0.1" d="M61.961 171.456C61.7259 171.524 61.5121 171.588 61.3126 171.652C60.7999 171.81 60.2741 171.921 59.7415 171.984C56.382 172.458 50.835 172.173 49.0786 172.062C49.1014 171.358 49.1656 170.655 49.271 169.958L61.4195 168.346C61.4195 168.346 62.0964 170.325 61.961 171.456Z" fill="black"/>
<path d="M72.5494 168.502C72.5494 168.502 68.089 169.194 64.4623 169.99C63.251 170.254 62.1323 170.528 61.3058 170.799C60.7922 170.953 60.2667 171.064 59.7347 171.131C55.6947 171.698 48.5196 171.174 48.5196 171.174C46.5495 164.775 50.9137 156.717 50.9137 156.717C50.8103 156.075 51.8221 154.106 51.8221 154.106L51.8399 154.042L52.4598 151.759H69.0296L69.2326 152.74L69.653 154.737L72.2537 167.104L72.5494 168.502Z" fill="#626696"/>
<path opacity="0.1" d="M75.1159 172.383L75.0162 172.426L73.0781 173.286C70.9797 174.256 64.6988 174.438 62.5043 174.456C62.34 173.555 62.2707 172.639 62.2976 171.723C62.2976 171.723 73.7408 161.268 74.9948 171.392C75.0376 171.752 75.0767 172.062 75.1159 172.383Z" fill="black"/>
<path d="M75.4218 171.395L75.0157 171.574L73.0776 172.437C70.94 173.421 64.4596 173.596 62.3898 173.607H61.8447C60.8863 173.575 59.928 172.676 59.928 172.44C59.928 172.312 59.8282 171.681 59.7427 171.138C59.6715 170.703 59.6074 170.329 59.6074 170.329C59.6074 170.329 55.3322 168.481 53.1626 166.986C51.5345 165.877 51.9442 157.994 52.2612 154.031C52.3717 152.665 52.4679 151.766 52.4679 151.766L69.2407 152.747L71.592 152.883L72.9387 153.182L73.2949 153.257C73.2949 153.257 74.2568 160.298 74.72 160.883C75.1831 161.468 74.8838 163.444 74.8268 164.568C74.8247 165.048 74.7722 165.526 74.6701 165.995C74.6701 165.995 75.3612 167.971 75.1974 169.077C75.1239 169.857 75.2001 170.644 75.4218 171.395Z" fill="#626696"/>
<path d="M57.4699 112.921C61.2654 112.921 64.3422 109.841 64.3422 106.041C64.3422 102.241 61.2654 99.1599 57.4699 99.1599C53.6745 99.1599 50.5977 102.241 50.5977 106.041C50.5977 109.841 53.6745 112.921 57.4699 112.921Z" fill="#FFD2C6"/>
<path d="M54.1238 108.913C54.1238 108.913 54.6012 115.429 53.2723 116.924C51.9435 118.419 48.4771 121.244 48.4771 121.244L49.5458 125.67L55.5667 126.366L62.5993 118.843L60.9997 116.871C60.9997 116.871 59.7741 112.708 60.7859 110.628C61.7977 108.549 54.1238 108.913 54.1238 108.913Z" fill="#FFD2C6"/>
<path opacity="0.1" d="M68.656 123.24L68.2997 123.811L66.1622 123.223L64.6694 117.633L64.7621 116.01L65.2003 115.379C65.2003 115.379 67.5445 115.436 67.4412 117.569C67.3378 119.442 68.4031 122.527 68.656 123.24Z" fill="black"/>
<path opacity="0.1" d="M73.2913 154.106C73.2913 154.106 71.5955 154.484 69.6539 154.737C67.7123 154.99 65.4714 155.119 64.5522 154.584C63.0096 153.671 54.6517 153.931 52.2541 154.024C52.0831 154.024 51.9477 154.024 51.8408 154.042L52.4607 151.759H69.0304L69.2335 152.74L71.5848 152.875L72.9315 153.175C73.156 153.728 73.2913 154.106 73.2913 154.106Z" fill="black"/>
<path d="M64.771 115.803C64.771 115.803 67.1152 115.857 67.0083 117.99C66.9014 120.123 68.2873 123.804 68.2873 123.804L67.7529 125.031C67.7529 125.031 67.0083 128.017 67.5926 128.766C68.1769 129.515 70.3109 129.511 69.0853 135.646C69.0853 135.646 68.8217 140.233 69.4594 141.728C70.0971 143.223 70.0971 146.793 71.0555 148.288C72.0138 149.782 73.2963 153.249 73.2963 153.249C73.2963 153.249 66.3671 154.794 64.5572 153.727C62.7474 152.661 51.6107 153.203 51.6107 153.203C51.6107 153.203 51.6641 151.334 51.6107 151.123C51.562 150.89 51.5605 150.649 51.6064 150.415C51.6523 150.181 51.7446 149.959 51.8779 149.761C52.2342 149.254 52.8362 148.402 52.5156 147.656C52.195 146.911 53.3172 145.809 52.7294 144.653C52.1415 143.497 51.429 143.265 51.5715 142.634C51.714 142.003 51.3435 141.147 50.9195 140.615C50.4956 140.084 47.6134 134.444 47.6134 134.444L47.1361 131.801C47.1361 131.801 43.4274 129.08 43.4951 127.799C43.5627 126.518 44.8987 124.746 44.8987 124.746L48.4613 121.239C48.4613 121.239 50.4315 123.379 52.3482 122.627C54.2648 121.874 58.401 118.307 58.401 118.307C58.401 118.307 59.876 117.508 59.9828 116.923C60.0897 116.338 60.9946 116.87 60.9946 116.87C60.9946 116.87 62.327 116.139 62.5942 116.395C62.8614 116.652 64.0193 116.87 64.0193 116.87L64.771 115.803Z" fill="#FFCDE5"/>
<path d="M44.63 126.915L43.4936 127.803C43.4936 127.803 42.3393 129.886 42.0685 133.618C41.7977 137.349 40.6435 142.628 40.6435 142.628L38.4061 146.633C38.4061 146.633 34.7188 154.363 34.2414 156.414C33.7641 158.465 31.5766 161.936 31.5766 161.936C31.5766 161.936 24.1699 168.599 29.3393 169.783C34.5086 170.967 34.6654 164.479 34.6654 164.479C34.6654 164.479 35.8731 163.145 36.0691 162.239C36.265 161.333 42.8167 149.73 42.8167 149.73C42.8167 149.73 45.111 146.608 44.63 144.957C44.63 144.957 47.6119 137.934 47.6119 136.171C47.5556 134.706 47.3961 133.245 47.1345 131.802L47.6119 128.121L44.63 126.915Z" fill="#FFD2C6"/>
<path opacity="0.1" d="M59.973 141.622C59.973 141.622 54.7502 144.358 53.7384 144.5C52.7266 144.643 58.1596 143.93 58.1596 143.93L59.973 141.622Z" fill="black"/>
<path opacity="0.1" d="M64.2356 143.755C64.2356 143.755 57.3098 146.101 54.2603 145.673C54.2745 145.673 61.8379 147.114 64.2356 143.755Z" fill="black"/>
<path opacity="0.1" d="M64.6627 144.521C64.6627 144.521 58.4281 148.445 54.7515 147.806C54.7515 147.806 63.3302 149.515 64.6627 148.609L60.8257 147.539C60.8257 147.539 65.0902 145.284 64.6627 144.521Z" fill="black"/>
<path opacity="0.1" d="M57.4805 93.9357C55.6778 93.579 53.6792 93.793 52.2363 94.9273C51.1675 95.7691 50.455 97.0675 49.2544 97.681C48.6189 97.9486 47.9682 98.1785 47.3057 98.3694C46.1367 98.8475 45.1626 99.7058 44.5402 100.806C43.9178 101.906 43.6835 103.184 43.8749 104.433C44.0637 105.503 44.5589 106.466 44.8011 107.508C45.2358 109.37 44.8546 111.321 44.3808 113.172C43.0667 118.317 41.0718 123.263 38.449 127.879C38.24 128.165 38.1356 128.513 38.1533 128.867C38.2158 129.105 38.3385 129.322 38.5096 129.498C40.9713 132.352 44.9793 133.326 48.7414 133.454C50.1273 133.501 51.5915 133.454 52.7957 132.78C53.5806 132.328 54.2559 131.708 54.7729 130.964C56.0859 129.17 56.738 126.976 56.6183 124.754C56.515 122.971 55.9058 121.155 56.3654 119.425C56.4141 119.184 56.5246 118.959 56.686 118.773C57.0922 118.359 57.7548 118.466 58.3391 118.398C59.9031 118.216 60.9149 116.565 61.1001 115.002C61.2854 113.44 60.8935 111.86 60.8864 110.287C60.8779 108.203 61.5276 106.171 62.7425 104.48C63.2626 103.766 63.9288 103.053 64.1034 102.158C64.3243 101.034 63.6723 100.206 63.1094 99.304C62.2366 97.92 61.8091 96.3041 60.4802 95.2483C59.5961 94.5827 58.5689 94.1332 57.4805 93.9357Z" fill="black"/>
<path d="M57.0517 93.5072C55.2526 93.1505 53.2504 93.3645 51.8075 94.5024C50.7387 95.3406 50.0262 96.6426 48.8256 97.2561C48.1915 97.5231 47.5419 97.7518 46.8804 97.941C45.7112 98.419 44.7367 99.2771 44.1137 100.377C43.4907 101.477 43.2556 102.755 43.4461 104.005C43.6349 105.075 44.1301 106.038 44.3759 107.083C44.8106 108.945 44.4258 110.893 43.9555 112.744C42.6444 117.888 40.6531 122.834 38.0345 127.451C37.8251 127.734 37.7217 128.083 37.7423 128.435C37.8024 128.674 37.9255 128.892 38.0986 129.066C40.5639 131.92 44.5683 132.894 48.3304 133.022C49.7163 133.072 51.1805 133.022 52.3847 132.352C53.1697 131.899 53.8449 131.277 54.3619 130.532C55.668 128.74 56.3161 126.552 56.1967 124.337C56.0934 122.553 55.4841 120.738 55.9473 119.004C55.995 118.763 56.1042 118.538 56.2644 118.351C56.6705 117.937 57.3332 118.044 57.921 117.995C59.485 117.813 60.4932 116.161 60.6784 114.595C60.8637 113.029 60.4754 111.456 60.4647 109.88C60.4515 107.791 61.1 105.751 62.3172 104.055C62.8374 103.341 63.5 102.628 63.6746 101.729C63.8955 100.606 63.2471 99.7815 62.6842 98.8755C61.8114 97.4915 61.3838 95.8757 60.0514 94.8234C59.1684 94.1554 58.1408 93.7045 57.0517 93.5072Z" fill="#985C7E"/>
<path opacity="0.1" d="M54.7515 160.203C54.7515 160.203 56.1195 166.602 58.3925 168.346L54.7515 160.203Z" fill="black"/>
<g opacity="0.1">
<path opacity="0.1" d="M43.8515 105.431C43.7802 105.182 43.6983 104.932 43.6128 104.686C43.684 104.936 43.766 105.185 43.8515 105.431Z" fill="black"/>
<path opacity="0.1" d="M63.29 99.8455C63.3068 100.047 63.2972 100.249 63.2615 100.448C63.0833 101.351 62.4207 102.053 61.9005 102.774C60.6846 104.463 60.0348 106.495 60.0444 108.577C60.0444 110.154 60.4399 111.727 60.2546 113.293C60.0694 114.859 59.0611 116.503 57.4972 116.692C56.92 116.76 56.2467 116.649 55.8441 117.049C55.6827 117.235 55.5722 117.46 55.5235 117.702C55.071 119.435 55.6731 121.247 55.7728 123.034C55.8933 125.249 55.2465 127.438 53.9417 129.23C53.4238 129.974 52.7487 130.595 51.9644 131.049C50.7424 131.709 49.296 131.763 47.9066 131.72C44.2086 131.595 40.2755 130.65 37.803 127.9C37.7371 128.062 37.7162 128.24 37.7424 128.413C37.8026 128.652 37.9256 128.87 38.0987 129.045C40.564 131.898 44.5684 132.872 48.3305 133.001C49.7164 133.05 51.1806 133.001 52.3848 132.33C53.1691 131.876 53.8442 131.255 54.362 130.511C55.6681 128.719 56.3162 126.53 56.1968 124.315C56.0935 122.531 55.4843 120.716 55.9474 118.982C55.9951 118.741 56.1044 118.516 56.2645 118.33C56.6706 117.916 57.3333 118.023 57.9211 117.973C59.4851 117.791 60.4933 116.139 60.6786 114.574C60.8638 113.008 60.4755 111.435 60.4648 109.858C60.4561 107.776 61.1045 105.745 62.3174 104.054C62.8375 103.341 63.5002 102.628 63.6747 101.729C63.7871 101.075 63.6498 100.403 63.29 99.8455Z" fill="black"/>
</g>
<path opacity="0.1" d="M302.137 160.353C317.395 160.353 329.765 158.321 329.765 155.815C329.765 153.31 317.395 151.278 302.137 151.278C286.878 151.278 274.509 153.31 274.509 155.815C274.509 158.321 286.878 160.353 302.137 160.353Z" fill="#FF8833"/>
<path d="M270.283 24.0784L268.594 27.3636C268.058 27.3195 267.529 27.2093 267.02 27.0355C266.212 26.7921 265.465 26.3802 264.827 25.8269C264.19 25.2735 263.677 24.5914 263.322 23.8252C261.811 20.4794 264.312 18.3178 265.477 17.6828C266.642 17.0479 267.721 16.3167 268.594 18.3962C269.144 19.8187 269.603 21.2746 269.969 22.7551C270.162 23.547 270.283 24.0784 270.283 24.0784Z" fill="#CC818C"/>
<path d="M324.049 41.2013L321.349 45.2356C321.349 45.2356 308.573 51.3351 311.017 44.1655C312.086 41.0087 312.218 38.6973 312.025 37.0993C312.025 37.0993 312.025 37.0708 312.025 37.0565C311.776 35.059 311.024 34.2029 311.024 34.2029C311.024 34.2029 323.476 27.8252 321.623 32.1876C321.246 33.0947 321.094 34.0801 321.181 35.059C321.335 36.4689 321.794 37.8284 322.524 39.0433C322.959 39.8119 323.47 40.5349 324.049 41.2013Z" fill="#CC818C"/>
<path d="M320.18 121.025C320.18 121.025 322.018 128.737 321.249 130.011C320.479 131.284 320.536 134.113 320.536 134.113C320.536 134.113 319.051 145.152 318.484 145.577C318.02 145.995 317.616 146.475 317.284 147.004C317.284 147.004 318.292 149.501 317.686 150.535C317.595 150.695 317.453 150.82 317.284 150.892C316.336 151.291 312.838 149.518 310.846 148.431C310.595 148.296 310.406 148.07 310.319 147.799C310.245 147.587 310.236 147.357 310.294 147.139C310.351 146.922 310.473 146.727 310.643 146.579C310.526 146.34 310.494 146.068 310.553 145.808C310.612 145.549 310.758 145.317 310.967 145.152L311.491 144.746L311.37 144.603C311.212 144.417 311.116 144.186 311.097 143.943C311.078 143.699 311.136 143.456 311.263 143.248C311.491 142.862 311.712 142.178 311.772 140.997C311.915 138.236 312.62 137.177 312.62 137.177L312.196 124.582C312.235 123.899 312.235 123.214 312.196 122.531C312.125 121.753 310.818 122.267 310.607 122.053C310.397 121.839 310.358 120.833 309.795 120.547C309.534 120.321 309.354 120.016 309.282 119.677C309.033 118.882 308.982 118.038 309.136 117.219C309.172 117.024 309.168 116.823 309.123 116.629C309.078 116.435 308.994 116.252 308.876 116.092C308.238 115.243 308.452 112.343 308.452 112.343L307.476 106.28C305.923 111.427 303.945 117.626 303.293 118.076C302.978 118.264 302.719 118.535 302.545 118.859C302.37 119.183 302.287 119.548 302.303 119.916C303.222 121.047 302.869 125.93 302.869 125.93C302.869 125.93 302.869 139.442 302.207 140.362C301.544 141.282 300.254 144.111 300.254 144.111C300.254 144.111 304.041 147.485 301.063 149.187L301.031 149.205C297.992 150.902 291.704 146.165 291.704 146.165L292.36 145.509L292.552 145.317L291.839 144.182C291.109 142.909 293.977 140.505 293.977 140.505C293.977 140.505 293.215 137.533 293.496 137.391C293.778 137.248 293.977 134.559 293.977 134.559C293.977 134.559 293.282 124.796 293.564 123.879C293.605 123.664 293.597 123.441 293.539 123.23C293.481 123.018 293.375 122.823 293.229 122.659C292.844 122.105 292.653 121.439 292.687 120.765C292.75 120.183 292.584 119.6 292.224 119.138C291.376 118.218 292.224 114.255 292.224 114.255L292.937 109.019V100.679C292.936 99.0804 293.226 97.4947 293.792 95.9995C294.219 94.7849 294.477 93.5176 294.561 92.2328C294.793 89.5504 296.232 86.943 297.201 85.4555C297.714 84.6708 298.095 84.1999 298.095 84.1999L320.707 83.3118C320.707 83.3118 321.064 84.3212 321.42 85.723C321.498 86.0298 321.577 86.3508 321.648 86.6897C322.122 88.8656 322.407 91.5586 321.448 93.0782C321.314 93.282 321.195 93.4954 321.092 93.7166C319.799 96.4739 320.682 99.9375 320.682 99.9375C320.682 99.9375 319.553 107.785 319.058 109.065C318.702 109.968 319.029 111.227 319.25 111.883C319.355 112.198 319.409 112.528 319.411 112.861V115.646C319.411 115.646 319.977 117.979 319.696 118.618C319.414 119.256 320.18 121.025 320.18 121.025Z" fill="#444053"/>
<path opacity="0.1" d="M321.221 93.2785C321.089 93.4837 320.97 93.6969 320.865 93.917L319.593 93.8456C319.714 93.1893 318.849 87.0363 318.849 87.0363L321.414 86.89C321.891 89.0801 322.18 91.7768 321.221 93.2785Z" fill="black"/>
<path d="M321.43 93.083C321.296 93.2869 321.177 93.5003 321.074 93.7215L319.799 93.6502C319.923 92.9939 319.058 86.8373 319.058 86.8373L321.619 86.6946C322.104 88.8704 322.389 91.5635 321.43 93.083Z" fill="#444053"/>
<path opacity="0.05" d="M321.43 93.083C321.296 93.2869 321.177 93.5003 321.074 93.7215L319.799 93.6502C319.923 92.9939 319.058 86.8373 319.058 86.8373L321.619 86.6946C322.104 88.8704 322.389 91.5635 321.43 93.083Z" fill="black"/>
<path opacity="0.1" d="M317.688 150.525C317.596 150.685 317.455 150.811 317.285 150.882C316.338 151.282 312.839 149.509 310.848 148.421C310.597 148.287 310.408 148.06 310.32 147.79C311.453 147.583 312.198 148.86 312.198 148.86C312.387 148.74 312.598 148.66 312.819 148.624C313.04 148.588 313.265 148.597 313.483 148.65C313.7 148.703 313.904 148.799 314.084 148.932C314.263 149.066 314.414 149.234 314.528 149.427C315.5 150.854 317.585 150.254 317.585 150.254C317.585 150.254 317.627 150.351 317.688 150.525Z" fill="black"/>
<path d="M318.274 154.862C318.06 155.497 316.471 155.497 316.471 155.497C316.471 155.497 313.621 156.314 312.353 156.949C311.085 157.584 310.215 157.249 310.215 157.249C307.298 157.923 303.553 156.757 302.424 156.535C301.295 156.314 300.849 154.837 302.246 154.556C302.425 154.519 302.601 154.466 302.77 154.395C303.466 154.084 304.067 153.591 304.508 152.968C305.452 152.059 306.445 151.201 307.483 150.4C308.199 149.87 308.829 149.233 309.35 148.51C311.01 147.04 312.2 149.059 312.2 149.059C312.389 148.94 312.6 148.86 312.821 148.824C313.042 148.788 313.267 148.796 313.485 148.849C313.702 148.902 313.906 148.998 314.086 149.132C314.265 149.265 314.416 149.433 314.53 149.626C315.502 151.053 317.586 150.454 317.586 150.454C317.586 150.454 317.943 151.41 318.135 152.098C318.178 152.273 318.224 152.494 318.263 152.737C318.403 153.438 318.407 154.16 318.274 154.862Z" fill="#FF748F"/>
<path d="M313.416 150.389C313.524 150.389 313.612 150.302 313.612 150.193C313.612 150.085 313.524 149.997 313.416 149.997C313.308 149.997 313.22 150.085 313.22 150.193C313.22 150.302 313.308 150.389 313.416 150.389Z" fill="#575988"/>
<path d="M311.755 151.944C311.863 151.944 311.951 151.856 311.951 151.748C311.951 151.64 311.863 151.552 311.755 151.552C311.647 151.552 311.559 151.64 311.559 151.748C311.559 151.856 311.647 151.944 311.755 151.944Z" fill="#575988"/>
<path d="M310.067 153.342C310.175 153.342 310.263 153.255 310.263 153.146C310.263 153.038 310.175 152.95 310.067 152.95C309.959 152.95 309.871 153.038 309.871 153.146C309.871 153.255 309.959 153.342 310.067 153.342Z" fill="#575988"/>
<path d="M310.938 152.718C311.046 152.718 311.134 152.63 311.134 152.521C311.134 152.413 311.046 152.325 310.938 152.325C310.83 152.325 310.742 152.413 310.742 152.521C310.742 152.63 310.83 152.718 310.938 152.718Z" fill="#575988"/>
<path d="M312.62 151.117C312.728 151.117 312.816 151.029 312.816 150.92C312.816 150.812 312.728 150.724 312.62 150.724C312.512 150.724 312.424 150.812 312.424 150.92C312.424 151.029 312.512 151.117 312.62 151.117Z" fill="#575988"/>
<path d="M318.274 154.863C318.06 155.498 316.471 155.498 316.471 155.498C316.471 155.498 313.621 156.315 312.353 156.95C311.085 157.584 310.215 157.249 310.215 157.249C307.298 157.923 303.553 156.757 302.424 156.536C301.295 156.315 300.849 154.838 302.246 154.556C302.425 154.52 302.601 154.466 302.77 154.396C304.003 154.816 305.29 155.057 306.592 155.109C309.471 155.23 311.751 155.109 311.751 155.109L314.665 154.171C315.217 153.835 315.829 153.612 316.468 153.515C317.11 153.384 317.717 153.119 318.249 152.737C318.393 153.437 318.402 154.159 318.274 154.863Z" fill="#DCE6F2"/>
<path opacity="0.5" d="M311.022 156.692C310.859 156.692 310.697 156.675 310.538 156.642L310.58 156.435C311.173 156.528 311.78 156.443 312.326 156.193C312.586 156.089 312.846 155.968 313.099 155.836C313.352 155.704 313.705 155.551 314.018 155.433L314.307 155.334C314.467 155.28 314.628 155.227 314.781 155.159C314.87 155.123 314.955 155.08 315.041 155.041C315.248 154.932 315.468 154.848 315.696 154.792C315.814 154.769 315.933 154.754 316.053 154.745C316.16 154.738 316.267 154.725 316.373 154.706C316.586 154.654 316.791 154.578 316.986 154.478C317.195 154.371 317.417 154.29 317.645 154.235L317.802 154.207C317.968 154.203 318.129 154.144 318.258 154.039L318.411 154.185C318.25 154.325 318.047 154.407 317.834 154.417L317.688 154.442C317.475 154.494 317.27 154.57 317.075 154.67C316.866 154.777 316.644 154.858 316.416 154.913C316.298 154.936 316.179 154.95 316.06 154.956C315.949 154.964 315.838 154.978 315.728 154.998C315.518 155.052 315.314 155.131 315.123 155.234L314.855 155.355C314.692 155.423 314.528 155.48 314.364 155.533L314.082 155.633C313.776 155.747 313.473 155.89 313.178 156.025C312.882 156.161 312.661 156.271 312.394 156.382C311.96 156.57 311.495 156.676 311.022 156.692Z" fill="#575988"/>
<path opacity="0.1" d="M311.701 121.539C311.701 121.539 313.169 119.4 315.677 119.435C318.185 119.471 319.261 119.154 319.261 119.154C319.261 119.154 317.654 120.106 316.543 120.223C315.431 120.341 311.701 121.539 311.701 121.539Z" fill="black"/>
<path opacity="0.1" d="M312.549 122.035C312.549 122.035 313.875 121.115 314.633 121.079C315.392 121.043 316.058 120.972 316.058 120.972C315.703 121.223 315.31 121.414 314.894 121.539C314.245 121.717 312.549 122.035 312.549 122.035Z" fill="black"/>
<path opacity="0.1" d="M312.832 122.67C312.832 122.67 314.83 122.831 314.848 123.362L312.832 122.67Z" fill="black"/>
<path opacity="0.1" d="M294.245 92.8431C294.348 92.8609 296.129 90.9847 296.254 90.2428C296.353 89.7748 296.632 89.3648 297.031 89.1013C297.031 89.1013 298.181 89.5615 297.155 90.9704C296.129 92.3794 294.245 92.8431 294.245 92.8431Z" fill="black"/>
<path opacity="0.1" d="M321.612 32.1654C321.206 33.1284 320.847 33.1998 320.925 34.1343C320.451 34.6354 319.906 35.0644 319.307 35.4077C318.043 36.1604 316.668 37.63 315.093 37.63C314.039 37.6322 312.995 37.4349 312.015 37.0486C311.765 35.0511 311.014 34.195 311.014 34.195C311.014 34.195 323.458 27.803 321.612 32.1654Z" fill="black"/>
<path d="M323.517 28.7693C323.517 30.4377 323.023 32.0687 322.097 33.456C321.171 34.8433 319.855 35.9245 318.316 36.563C316.776 37.2015 315.082 37.3686 313.448 37.0431C311.813 36.7176 310.312 35.9141 309.134 34.7344C307.955 33.5546 307.153 32.0514 306.828 30.415C306.503 28.7786 306.67 27.0825 307.307 25.541C307.945 23.9995 309.025 22.682 310.411 21.7551C311.796 20.8281 313.425 20.3334 315.092 20.3334C316.198 20.3329 317.294 20.5508 318.316 20.9746C319.339 21.3983 320.268 22.0197 321.05 22.8031C321.833 23.5866 322.454 24.5167 322.877 25.5404C323.3 26.5641 323.518 27.6613 323.517 28.7693Z" fill="#CC818C"/>
<path opacity="0.1" d="M324.049 41.201L321.349 45.2353C321.349 45.2353 308.573 51.3348 311.017 44.1652C312.086 41.0084 312.218 38.697 312.025 37.099H312.047C312.198 37.6287 312.283 38.175 312.3 38.7255C312.339 39.8242 312.367 41.2224 315.096 41.679C319.646 42.4459 322.09 39.5959 322.517 39.0359C322.954 39.8073 323.467 40.5327 324.049 41.201Z" fill="black"/>
<path opacity="0.1" d="M270.284 24.0794L268.595 27.3645C268.059 27.3205 267.53 27.2102 267.021 27.0364L266.875 26.8616C267.566 27.1256 269.896 22.7203 269.896 22.7203L269.97 22.781C270.163 23.5479 270.284 24.0794 270.284 24.0794Z" fill="black"/>
<path opacity="0.1" d="M321.401 85.7275C315.946 88.0995 297.072 86.0842 297.072 86.0842C297.131 85.8836 297.163 85.6761 297.168 85.4671C297.681 84.6824 298.062 84.2115 298.062 84.2115L320.674 83.3234C320.674 83.3234 321.041 84.3257 321.401 85.7275Z" fill="black"/>
<path d="M312.058 37.2951L309.543 38.3652C309.163 38.361 308.792 38.2488 308.472 38.0417C308.153 37.8346 307.899 37.541 307.74 37.1952C307.16 35.9753 305.093 37.1952 305.093 37.1952C305.093 37.1952 298.784 36.7172 296.454 37.8872C296.454 37.8872 292.692 36.2928 292.179 36.1893C291.666 36.0859 290.854 35.6579 290.483 35.7649C290.113 35.8719 289.635 35.0729 289.372 35.1264C289.108 35.1799 288.997 34.5949 288.15 34.3844C287.302 34.174 286.985 34.4379 286.03 33.482C285.075 32.526 277.341 28.7593 277.341 28.7593L273.842 25.9057L270.133 22.9344C270.133 22.9344 267.8 27.3361 267.112 27.0721L274.159 35.5615C274.159 35.5615 279.247 40.0203 282.745 41.4506C286.244 42.881 285.976 43.309 285.976 43.309C285.976 43.309 296.579 48.7201 298.221 48.6167C299.863 48.5132 299.546 59.7064 298.855 61.5113C298.164 63.3162 297.056 76.3678 297.056 76.3678C297.056 76.3678 295.987 79.125 297.106 81.0369C297.106 81.0369 297.373 84.9606 297.106 85.6526C297.106 85.6526 316.098 87.6858 321.485 85.2959C321.485 85.2959 322.279 76.489 321.485 75.3726C320.69 74.2561 322.23 71.7664 322.23 71.7664L325.596 64.1616L333.854 55.8255C333.854 55.8255 335.126 48.8735 329.458 44.4112L325.692 41.069C325.692 41.069 323.587 39.2462 322.974 39.1321C322.361 39.0179 322.586 39.1321 322.586 39.1321C322.586 39.1321 320.128 42.6991 315.104 41.8644C312.375 41.4043 312.347 40.0131 312.308 38.9109C312.291 38.3641 312.207 37.8215 312.058 37.2951Z" fill="#67647E"/>
<path opacity="0.1" d="M322.407 65.8595C322.407 65.8595 310.747 66.3375 308.417 70.0008C308.417 70.0008 311.438 68.574 314.139 68.9913C316.839 69.4086 322.407 65.8595 322.407 65.8595Z" fill="black"/>
<path opacity="0.1" d="M309.528 78.6532C309.528 78.6532 315.04 79.0098 316.208 77.8581C317.377 76.7063 317.377 76.0039 317.377 76.0039L309.528 78.6532Z" fill="black"/>
<path opacity="0.1" d="M323.519 54.6129C323.519 54.6129 318.855 60.131 324.527 62.5173L323.519 54.6129Z" fill="black"/>
<path opacity="0.1" d="M295.91 43.9471C295.91 43.9471 297.606 47.4107 298.454 47.6425L295.91 43.9471Z" fill="black"/>
<path opacity="0.1" d="M290.185 42.4601C290.185 42.4601 294.425 46.2803 295.219 46.6513C295.219 46.6513 290.819 42.4601 290.185 42.4601Z" fill="black"/>
<path opacity="0.1" d="M307.092 38.8003C307.092 38.8003 303.01 44.8998 305.667 48.6166C305.646 48.6166 304.178 44.2114 307.092 38.8003Z" fill="black"/>
<path d="M317.378 85.0177L316.131 86.1912L315.956 86.3553L314.514 87.7215C314.407 87.7999 314.307 87.8784 314.204 87.9498C308.325 92.1695 307.146 85.7596 307.146 85.7596C307.146 85.7596 304.549 87.4575 304.178 86.0771C303.808 84.6967 310.235 82.7348 311.172 82.8418C311.257 82.8507 311.343 82.8507 311.428 82.8418C311.892 82.7642 312.338 82.6061 312.747 82.3746C312.843 82.3246 312.939 82.2747 313.032 82.2212C313.359 82.0385 313.677 81.8385 313.983 81.6219L317.378 85.0177Z" fill="#CC818C"/>
<path opacity="0.1" d="M323.734 28.7691C323.734 30.2315 323.354 31.6689 322.632 32.9402C321.91 34.2116 320.871 35.2731 319.615 36.0207C319.499 35.8236 319.397 35.6186 319.309 35.4072C319.006 34.6938 318.821 33.9483 318.518 33.242C318.176 32.4705 317.693 31.77 317.093 31.1768C316.998 31.0618 316.875 30.9723 316.737 30.9164C316.6 30.898 316.461 30.9075 316.328 30.9443C316.195 30.9811 316.071 31.0444 315.964 31.1304C315.607 31.374 315.208 31.5493 314.788 31.6476C314.577 31.6951 314.358 31.6872 314.151 31.6247C313.945 31.5622 313.758 31.4472 313.609 31.2909C313.281 30.8985 313.327 30.3207 313.423 29.8177C313.627 28.7191 313.972 27.6419 313.972 26.5254C313.972 25.409 313.552 24.2033 312.583 23.6504C311.728 23.1653 310.666 23.2938 309.715 23.0262C309.568 22.987 309.423 22.9369 309.284 22.8764C310.454 21.676 311.955 20.8521 313.596 20.5099C315.236 20.1677 316.941 20.3226 318.493 20.955C320.045 21.5874 321.373 22.6685 322.309 24.0603C323.244 25.4521 323.744 27.0915 323.744 28.7691H323.734Z" fill="black"/>
<path d="M308.701 21.5355C308.548 21.6176 308.38 21.7638 308.427 21.935C308.455 22.0154 308.509 22.0842 308.58 22.1312C308.972 22.4493 309.426 22.6825 309.912 22.8161C310.864 23.0729 311.929 22.9516 312.784 23.4403C313.749 23.9932 314.177 25.1953 314.173 26.3117C314.17 27.4282 313.817 28.509 313.621 29.604C313.528 30.1106 313.479 30.6741 313.81 31.0808C313.959 31.2365 314.146 31.3511 314.353 31.4136C314.559 31.4761 314.779 31.4843 314.989 31.4375C315.408 31.3404 315.806 31.1662 316.161 30.9238C316.269 30.8375 316.393 30.7739 316.526 30.7372C316.659 30.7004 316.798 30.6911 316.934 30.7098C317.079 30.7631 317.209 30.8513 317.312 30.9666C317.913 31.5601 318.397 32.262 318.737 33.0355C319.043 33.7489 319.229 34.4908 319.528 35.2006C319.794 35.9303 320.295 36.5504 320.953 36.9627C321.285 37.1634 321.674 37.2501 322.059 37.2095C322.445 37.169 322.807 37.0034 323.091 36.738C323.582 36.1958 323.568 35.3754 323.803 34.6799C324.223 33.4778 325.399 32.7216 326.133 31.6836C326.96 30.5172 327.202 29.044 327.412 27.6315C327.51 27.1857 327.517 26.7247 327.433 26.2761C327.336 25.9794 327.211 25.6928 327.059 25.42C326.24 23.7221 326.258 21.5855 324.95 20.2265C323.967 19.2099 322.478 18.8996 321.074 18.7283C319.67 18.5571 318.199 18.4501 316.995 17.7117C316.657 17.4562 316.286 17.2496 315.89 17.0982C315.69 17.0285 315.472 17.031 315.274 17.1053C315.076 17.1796 314.909 17.3209 314.804 17.5049C314.779 17.6136 314.729 17.715 314.658 17.8009C314.596 17.8369 314.526 17.8579 314.454 17.8622C314.382 17.8665 314.311 17.8541 314.245 17.8259L312.378 17.3229L312.591 18.2646C311.913 18.2916 311.237 18.1699 310.611 17.9079C310.575 18.4394 311.174 18.7854 311.359 19.2812C311.426 19.5088 311.429 19.7508 311.366 19.9796C311.303 20.2085 311.177 20.4151 311.003 20.576C310.311 21.2502 309.464 21.1182 308.701 21.5355Z" fill="#585268"/>
<path opacity="0.1" d="M301.138 148.317L301.063 149.166L301.031 149.184C297.992 150.882 291.704 146.145 291.704 146.145L292.36 145.489C292.466 145.608 292.547 145.748 292.596 145.9C292.645 146.053 292.662 146.214 292.645 146.373L293.931 146.444L295.466 148.107C295.466 148.107 299.624 148.588 300.75 148.317H301.138Z" fill="black"/>
<path d="M300.607 152.936C298.63 153.375 291.701 153.342 291.701 153.342L287.832 153.96C287.832 153.96 281.173 154.598 280.432 152.533C279.691 150.467 281.013 150.589 281.013 150.589H281.063L283.834 150.364C283.834 150.364 287.351 149.001 288.64 148.063C289.659 147.271 290.621 146.408 291.519 145.481C291.519 145.481 292.677 145.256 292.655 146.597L293.942 146.669L295.477 148.327C295.477 148.327 299.635 148.812 300.76 148.541H301.149L300.971 150.592L301.021 150.657C301.266 150.974 302.374 152.54 300.607 152.936Z" fill="#FF748F"/>
<path d="M293.431 147.977C293.54 147.977 293.627 147.889 293.627 147.781C293.627 147.673 293.54 147.585 293.431 147.585C293.323 147.585 293.235 147.673 293.235 147.781C293.235 147.889 293.323 147.977 293.431 147.977Z" fill="#575988"/>
<path d="M288.453 150.144C288.561 150.144 288.649 150.056 288.649 149.947C288.649 149.839 288.561 149.751 288.453 149.751C288.345 149.751 288.257 149.839 288.257 149.947C288.257 150.056 288.345 150.144 288.453 150.144Z" fill="#575988"/>
<path d="M285.887 150.924C285.995 150.924 286.083 150.836 286.083 150.728C286.083 150.62 285.995 150.532 285.887 150.532C285.779 150.532 285.691 150.62 285.691 150.728C285.691 150.836 285.779 150.924 285.887 150.924Z" fill="#575988"/>
<path d="M289.758 149.73C289.867 149.73 289.954 149.642 289.954 149.534C289.954 149.425 289.867 149.338 289.758 149.338C289.65 149.338 289.562 149.425 289.562 149.534C289.562 149.642 289.65 149.73 289.758 149.73Z" fill="#575988"/>
<path d="M287.166 150.536C287.274 150.536 287.362 150.448 287.362 150.339C287.362 150.231 287.274 150.143 287.166 150.143C287.057 150.143 286.97 150.231 286.97 150.339C286.97 150.448 287.057 150.536 287.166 150.536Z" fill="#575988"/>
<path d="M291.081 149.116C291.189 149.116 291.277 149.029 291.277 148.92C291.277 148.812 291.189 148.724 291.081 148.724C290.973 148.724 290.885 148.812 290.885 148.92C290.885 149.029 290.973 149.116 291.081 149.116Z" fill="#575988"/>
<path d="M292.389 148.549C292.497 148.549 292.585 148.461 292.585 148.353C292.585 148.244 292.497 148.157 292.389 148.157C292.281 148.157 292.193 148.244 292.193 148.353C292.193 148.461 292.281 148.549 292.389 148.549Z" fill="#575988"/>
<path d="M300.607 152.937C298.63 153.376 291.701 153.343 291.701 153.343L287.832 153.961C287.832 153.961 281.173 154.599 280.432 152.534C279.691 150.468 281.013 150.59 281.013 150.59H281.063C281.487 151.139 282.338 151.767 284.013 151.795L288.801 151.992L293.763 151.635C293.763 151.635 298.395 151.492 299.168 151.335C299.804 151.163 300.424 150.935 301.021 150.654C301.266 150.975 302.374 152.541 300.607 152.937Z" fill="#DCE6F2"/>
<path opacity="0.5" d="M288.188 153.492C287.924 153.493 287.66 153.461 287.404 153.396L287.476 153.203C288.13 153.346 288.81 153.316 289.449 153.114C289.684 153.054 289.916 152.986 290.162 152.915C291.266 152.538 292.439 152.405 293.6 152.526H293.753C295.877 152.639 298.007 152.543 300.112 152.241C300.612 152.208 301.089 152.017 301.473 151.695L301.626 151.845C301.21 152.198 300.692 152.411 300.148 152.451C298.025 152.754 295.877 152.85 293.735 152.736H293.585C292.883 152.685 292.178 152.705 291.48 152.797C291.052 152.877 290.63 152.983 290.215 153.114C289.98 153.186 289.745 153.257 289.503 153.317C289.074 153.431 288.632 153.489 288.188 153.492Z" fill="#575988"/>
<path opacity="0.1" d="M317.377 85.0177L316.13 86.1912L313.03 82.2212C313.358 82.0385 313.675 81.8385 313.982 81.6219L317.377 85.0177Z" fill="black"/>
<path d="M331.417 52.4371L333.854 55.8329V59.3999C333.854 59.3999 334.969 63.1702 333.854 66.9369L333.979 70.2256C333.979 70.2256 332.796 73.2504 333.22 73.9924C333.22 73.9924 333.006 76.2217 330.146 77.7627C327.285 79.3036 324.05 82.9348 324.05 82.9348C324.05 82.9348 322.831 85.2712 319.547 84.7397L316.419 86.0666L312.817 81.4509L317.691 78.7971C317.691 78.7971 319.386 76.5142 320.395 76.6212L324.527 71.8022C324.527 71.8022 324.634 70.2649 325.692 70.2649C325.692 70.2649 323.733 68.674 324.42 67.7181C325.108 66.7621 324.527 62.5174 324.527 62.5174L331.417 52.4371Z" fill="#67647E"/>
<path opacity="0.1" d="M326.861 67.9282C326.861 67.9282 332.426 67.8248 333.114 69.2547C333.801 70.6845 328.557 67.1331 326.861 67.9282Z" fill="black"/>
<path opacity="0.1" d="M315.976 86.0763C315.978 86.1695 315.971 86.2627 315.955 86.3545C315.891 86.7817 315.681 87.1736 315.362 87.4641C315.043 87.7546 314.633 87.9259 314.202 87.949H314.102C313.606 87.949 313.131 87.7517 312.78 87.4005C312.429 87.0493 312.232 86.573 312.232 86.0763C312.233 85.8687 312.268 85.6627 312.335 85.4664C311.452 84.753 311.406 83.476 311.427 82.8375C311.89 82.7599 312.336 82.6017 312.745 82.3702C312.976 83.0339 313.286 83.6675 313.668 84.2572C313.81 84.2215 313.956 84.2035 314.102 84.2037C314.348 84.2032 314.592 84.2513 314.819 84.3452C315.047 84.4391 315.253 84.5769 315.427 84.7509C315.601 84.9248 315.739 85.1314 315.834 85.3589C315.928 85.5863 315.976 85.8301 315.976 86.0763Z" fill="black"/>
<path d="M312.912 81.9564C312.912 81.9564 311.658 82.2382 311.658 82.4665C311.658 82.6948 311.377 84.7672 312.752 85.6161C314.127 86.4651 313.992 84.4319 313.992 84.4319C313.992 84.4319 312.805 82.6092 312.912 81.9564Z" fill="#575988"/>
<path d="M314.317 87.9535C315.352 87.9535 316.191 87.1135 316.191 86.0773C316.191 85.0411 315.352 84.201 314.317 84.201C313.282 84.201 312.443 85.0411 312.443 86.0773C312.443 87.1135 313.282 87.9535 314.317 87.9535Z" fill="#E4AAB4"/>
<path d="M314.317 87.686C315.205 87.686 315.924 86.9658 315.924 86.0773C315.924 85.1889 315.205 84.4686 314.317 84.4686C313.43 84.4686 312.71 85.1889 312.71 86.0773C312.71 86.9658 313.43 87.686 314.317 87.686Z" fill="#DCE6F2"/>
<path opacity="0.1" d="M307.021 86.8011C307.021 86.8011 310.979 90.0899 316.067 88.0068V89.5977C316.067 89.5977 312.675 91.9305 309.6 90.5179C306.526 89.1054 307.021 86.8011 307.021 86.8011Z" fill="black"/>
<path opacity="0.1" d="M307.021 86.3759C307.021 86.3759 310.99 89.6646 316.067 87.5708V89.1617C316.067 89.1617 312.675 91.4945 309.6 90.0819C306.526 88.6694 307.021 86.3759 307.021 86.3759Z" fill="black"/>
<path d="M307.021 86.3759C307.021 86.3759 310.99 89.6646 316.067 87.5708V89.1617C316.067 89.1617 312.675 91.4945 309.6 90.0819C306.526 88.6694 307.021 86.3759 307.021 86.3759Z" fill="#444053"/>
<path opacity="0.05" d="M307.129 86.3759C307.129 86.3759 311.087 89.6646 316.174 87.5815V89.1724C316.174 89.1724 312.772 91.4945 309.708 90.0926C306.644 88.6908 307.129 86.3759 307.129 86.3759Z" fill="black"/>
<path opacity="0.1" d="M294.602 145.47C294.602 145.47 299.903 146.443 300.68 146.654C301.457 146.864 300.466 147.238 300.466 147.238C300.466 147.238 295.61 146.372 294.602 145.47Z" fill="black"/>
<path opacity="0.1" d="M294.462 142.659C294.547 142.659 298.064 141.668 298.823 139.971L294.462 142.659Z" fill="black"/>
<path opacity="0.1" d="M299.589 122.352C299.589 122.352 301.014 124.228 301.934 124.175C302.853 124.121 300.427 122.281 299.589 122.352Z" fill="black"/>
<path opacity="0.1" d="M300.379 125.467C300.379 125.467 300.977 126.793 301.861 126.369L300.379 125.467Z" fill="black"/>
<path opacity="0.05" d="M303.718 96.336L307.476 106.259C307.476 106.259 308.007 99.8744 306.885 97.9625C306.567 97.4175 306.099 96.9748 305.538 96.6867C304.977 96.3985 304.346 96.2768 303.718 96.336Z" fill="black"/>
<g opacity="0.1">
<path opacity="0.1" d="M312.969 17.7052L312.937 17.5626L312.331 17.4021L312.399 17.6981C312.588 17.7129 312.779 17.7153 312.969 17.7052Z" fill="black"/>
<path opacity="0.1" d="M311.309 20.0906L311.373 20.0335C311.547 19.8732 311.673 19.6673 311.736 19.4391C311.799 19.211 311.796 18.9697 311.729 18.7427C311.656 18.5671 311.555 18.4045 311.43 18.2614C311.131 18.2047 310.839 18.1187 310.557 18.0046C310.522 18.5359 311.12 18.8782 311.305 19.3774C311.388 19.6077 311.389 19.8595 311.309 20.0906Z" fill="black"/>
<path opacity="0.1" d="M321.321 36.4035C320.664 35.9904 320.163 35.3706 319.896 34.6414C319.593 33.928 319.411 33.1789 319.105 32.4763C318.765 31.7035 318.281 31.0026 317.68 30.411C317.579 30.2935 317.45 30.2039 317.305 30.1506C317.169 30.1316 317.03 30.1408 316.897 30.1776C316.764 30.2144 316.64 30.2781 316.532 30.3646C316.175 30.6069 315.777 30.7821 315.357 30.8818C315.146 30.9272 314.927 30.9183 314.721 30.856C314.515 30.7936 314.328 30.6797 314.178 30.5251C313.85 30.1328 313.896 29.5549 313.992 29.052C314.199 27.9533 314.541 26.8725 314.544 25.7561C314.548 24.6396 314.12 23.4375 313.151 22.9025C312.296 22.4138 311.235 22.5458 310.301 22.2783C309.814 22.1455 309.361 21.9122 308.969 21.5934L308.894 21.5256C308.815 21.5581 308.738 21.595 308.663 21.6362C308.509 21.7183 308.345 21.8645 308.388 22.0321C308.419 22.1132 308.474 22.1829 308.545 22.2319C308.938 22.5482 309.391 22.7801 309.877 22.9132C310.829 23.1736 311.89 23.0523 312.745 23.541C313.714 24.0903 314.138 25.2959 314.138 26.3946C314.138 27.4932 313.782 28.5918 313.586 29.6869C313.49 30.1898 313.444 30.757 313.771 31.16C313.921 31.3161 314.108 31.4309 314.314 31.4934C314.521 31.5558 314.74 31.5639 314.951 31.5167C315.37 31.4182 315.769 31.2441 316.126 31.0031C316.234 30.9168 316.358 30.8531 316.491 30.8157C316.624 30.7784 316.762 30.7681 316.899 30.7855C317.037 30.8427 317.159 30.932 317.256 31.0459C317.856 31.6388 318.339 32.3394 318.681 33.1112C318.987 33.8246 319.169 34.5701 319.472 35.2763C319.734 36.0137 320.236 36.6416 320.897 37.0598C321.57 37.4165 322.503 37.4165 323.034 36.8351C323.172 36.6791 323.279 36.4989 323.351 36.3036C323.061 36.5211 322.713 36.6468 322.351 36.6646C321.989 36.6824 321.63 36.5914 321.321 36.4035Z" fill="black"/>
<path opacity="0.1" d="M324.363 33.709C324.894 33.0387 325.588 32.4682 326.087 31.7622C326.186 31.622 326.278 31.4768 326.361 31.3271C325.72 32.1437 324.84 32.8034 324.363 33.709Z" fill="black"/>
</g>
<g opacity="0.1">
<path opacity="0.1" d="M292.924 23.687H208.632C207.465 23.6898 206.346 24.1551 205.52 24.9812C204.694 25.8073 204.229 26.9271 204.225 28.0958V81.4185C204.229 82.5873 204.694 83.707 205.52 84.5331C206.346 85.3592 207.465 85.8245 208.632 85.8273H274.754C274.754 85.8273 276.468 94.9338 270.835 95.9111C270.835 95.9111 283.44 96.8172 281.238 85.8273H292.92C294.087 85.8245 295.205 85.3591 296.031 84.5329C296.856 83.7067 297.321 82.5869 297.323 81.4185V28.0958C297.321 26.928 296.856 25.8088 296.032 24.9827C295.207 24.1566 294.09 23.6908 292.924 23.687Z" fill="black"/>
<g opacity="0.2">
<path opacity="0.2" d="M282.895 37.8406H218.654C217.538 37.8406 216.634 38.7461 216.634 39.8631V39.9843C216.634 41.1013 217.538 42.0068 218.654 42.0068H282.895C284.011 42.0068 284.915 41.1013 284.915 39.9843V39.8631C284.915 38.7461 284.011 37.8406 282.895 37.8406Z" fill="black"/>
<path opacity="0.2" d="M270.956 56.4597H218.653C217.538 56.4597 216.633 57.3652 216.633 58.4822V58.6035C216.633 59.7205 217.538 60.626 218.653 60.626H270.956C272.072 60.626 272.976 59.7205 272.976 58.6035V58.4822C272.976 57.3652 272.072 56.4597 270.956 56.4597Z" fill="black"/>
<path opacity="0.2" d="M255.174 47.1504H218.653C217.538 47.1504 216.633 48.0559 216.633 49.1729V49.2941C216.633 50.4111 217.538 51.3166 218.653 51.3166H255.174C256.289 51.3166 257.194 50.4111 257.194 49.2941V49.1729C257.194 48.0559 256.289 47.1504 255.174 47.1504Z" fill="black"/>
</g>
</g>
<path d="M294.025 22.9491H209.733C208.566 22.9529 207.447 23.4189 206.621 24.2456C205.795 25.0723 205.33 26.1924 205.326 27.3614V80.6842C205.33 81.8529 205.796 82.9727 206.621 83.7988C207.447 84.6249 208.566 85.0901 209.733 85.093H275.855C275.855 85.093 277.569 94.1995 271.936 95.1768C271.936 95.1768 284.541 96.0828 282.339 85.093H294.021C295.188 85.0901 296.306 84.6247 297.132 83.7985C297.957 82.9723 298.422 81.8526 298.424 80.6842V27.3614C298.422 26.1933 297.957 25.0737 297.133 24.2471C296.309 23.4204 295.191 22.9538 294.025 22.9491Z" fill="#FF6A00"/>
<path opacity="0.8" d="M283.996 37.1021H219.755C218.639 37.1021 217.735 38.0075 217.735 39.1245V39.2458C217.735 40.3628 218.639 41.2683 219.755 41.2683H283.996C285.112 41.2683 286.016 40.3628 286.016 39.2458V39.1245C286.016 38.0075 285.112 37.1021 283.996 37.1021Z" fill="white"/>
<path opacity="0.8" d="M272.058 55.7258H219.755C218.639 55.7258 217.735 56.6313 217.735 57.7483V57.8696C217.735 58.9866 218.639 59.8921 219.755 59.8921H272.058C273.173 59.8921 274.078 58.9866 274.078 57.8696V57.7483C274.078 56.6313 273.173 55.7258 272.058 55.7258Z" fill="white"/>
<path opacity="0.8" d="M256.275 46.4155H219.755C218.639 46.4155 217.735 47.321 217.735 48.438V48.5593C217.735 49.6763 218.639 50.5818 219.755 50.5818H256.275C257.391 50.5818 258.295 49.6763 258.295 48.5593V48.438C258.295 47.321 257.391 46.4155 256.275 46.4155Z" fill="white"/>
<path d="M31.2565 199.367C31.2565 199.952 31.1924 200.437 31.1104 200.437C31.0285 200.437 30.9644 199.962 30.9644 199.367C30.9644 198.771 31.0463 199.057 31.1282 199.057C31.2102 199.057 31.2565 198.782 31.2565 199.367Z" fill="#FFD037"/>
<path d="M32.0682 200.067C31.5552 200.348 31.1063 200.516 31.0671 200.445C31.0279 200.373 31.4234 200.088 31.9257 199.81C32.4281 199.532 32.2392 199.735 32.282 199.81C32.3247 199.885 32.5812 199.788 32.0682 200.067Z" fill="#FFD037"/>
<path opacity="0.1" d="M230.064 286.477C246.6 286.477 260.004 284.275 260.004 281.558C260.004 278.842 246.6 276.639 230.064 276.639C213.529 276.639 200.124 278.842 200.124 281.558C200.124 284.275 213.529 286.477 230.064 286.477Z" fill="#FF8833"/>
<g opacity="0.1">
<path opacity="0.1" d="M264.743 130.504H173.401C172.136 130.508 170.924 131.012 170.029 131.908C169.135 132.804 168.631 134.017 168.627 135.284V193.069C168.631 194.335 169.135 195.549 170.029 196.444C170.924 197.34 172.136 197.845 173.401 197.848H245.056C245.056 197.848 246.912 207.715 240.813 208.774C240.813 208.774 254.468 209.755 252.081 197.848H264.743C266.008 197.845 267.22 197.34 268.114 196.444C269.009 195.549 269.513 194.335 269.517 193.069V135.284C269.513 134.017 269.009 132.804 268.114 131.908C267.22 131.012 266.008 130.508 264.743 130.504Z" fill="black"/>
<g opacity="0.2">
<path opacity="0.2" d="M254.048 166.023H184.093C182.977 166.023 182.073 166.929 182.073 168.046V168.517C182.073 169.634 182.977 170.539 184.093 170.539H254.048C255.164 170.539 256.068 169.634 256.068 168.517V168.046C256.068 166.929 255.164 166.023 254.048 166.023Z" fill="black"/>
<path opacity="0.2" d="M212.137 155.933H184.092C182.977 155.933 182.072 156.838 182.072 157.955V158.426C182.072 159.543 182.977 160.449 184.092 160.449H212.137C213.253 160.449 214.157 159.543 214.157 158.426V157.955C214.157 156.838 213.253 155.933 212.137 155.933Z" fill="black"/>
</g>
</g>
<path d="M263.962 129.708H172.603C171.338 129.712 170.125 130.217 169.231 131.113C168.337 132.008 167.832 133.222 167.829 134.488V192.273C167.832 193.54 168.337 194.753 169.231 195.649C170.125 196.544 171.338 197.049 172.603 197.053H244.257C244.257 197.053 246.114 206.919 240.014 207.982C240.014 207.982 253.673 208.963 251.286 197.053H263.962C265.227 197.049 266.439 196.544 267.334 195.649C268.228 194.753 268.732 193.54 268.736 192.273V134.488C268.732 133.222 268.228 132.008 267.334 131.113C266.439 130.217 265.227 129.712 263.962 129.708Z" fill="#FF6A00"/>
<path opacity="0.8" d="M253.253 165.227H183.298C182.182 165.227 181.278 166.133 181.278 167.25V167.721C181.278 168.838 182.182 169.743 183.298 169.743H253.253C254.369 169.743 255.273 168.838 255.273 167.721V167.25C255.273 166.133 254.369 165.227 253.253 165.227Z" fill="white"/>
<path opacity="0.8" d="M211.343 155.137H183.298C182.182 155.137 181.278 156.043 181.278 157.16V157.631C181.278 158.748 182.182 159.653 183.298 159.653H211.343C212.458 159.653 213.363 158.748 213.363 157.631V157.16C213.363 156.043 212.458 155.137 211.343 155.137Z" fill="white"/>
<path d="M216.1 281.259L211.504 279.618C210.236 278.591 210.642 277.424 211.279 276.565C211.5 276.291 211.776 276.067 212.09 275.909C212.404 275.751 212.749 275.662 213.1 275.648C213.412 275.611 213.713 275.505 213.98 275.338C214.267 275.176 214.512 274.947 214.692 274.671C215.031 274.137 215.212 273.519 215.216 272.887C215.216 272.887 220.264 271.407 221.629 272.887C221.875 273.155 222.081 273.456 222.242 273.783C222.695 274.805 222.914 275.917 222.883 277.036C222.883 277.036 223.143 278.644 223.556 280.478C223.969 282.311 216.1 281.259 216.1 281.259Z" fill="#2D293D"/>
<path d="M238.593 278.986L233.997 277.345C232.729 276.318 233.131 275.152 233.772 274.296C233.992 274.02 234.268 273.795 234.582 273.637C234.896 273.479 235.241 273.391 235.593 273.379C235.774 273.362 235.951 273.315 236.117 273.24C236.239 273.19 236.359 273.132 236.473 273.065C237.755 272.352 237.723 270.622 237.723 270.622C237.723 270.622 242.768 269.141 244.136 270.622C244.322 270.821 244.483 271.041 244.617 271.278C245.486 272.776 245.39 274.773 245.39 274.773C245.39 274.773 245.647 276.382 246.063 278.216C246.48 280.049 238.593 278.986 238.593 278.986Z" fill="#2D293D"/>
<path opacity="0.1" d="M221.658 272.89C221.904 273.157 222.11 273.459 222.271 273.785L214.708 274.662C215.046 274.129 215.227 273.511 215.231 272.879C215.231 272.879 220.279 271.41 221.658 272.89Z" fill="black"/>
<path opacity="0.1" d="M244.632 271.271V272.698C243.46 274.638 237.77 274.213 236.117 273.24C236.24 273.19 236.359 273.132 236.473 273.065C237.756 272.352 237.724 270.622 237.724 270.622C237.724 270.622 242.769 269.141 244.137 270.622C244.327 270.818 244.493 271.035 244.632 271.271Z" fill="black"/>
<path d="M245.533 265.168C245.181 265.785 244.88 266.431 244.632 267.097V272.18C243.349 274.321 236.666 273.607 235.765 272.437C234.863 271.267 233.901 268.257 234.931 267.743C235.961 267.229 236.794 264.654 236.794 264.654C236.794 264.654 235.701 264.911 233.966 262.853C232.231 260.795 232.744 256.225 233.068 255.13C233.392 254.035 233.068 250.368 233.068 250.368C233.068 250.368 233.132 247.797 232.615 246.958C232.099 246.12 231.009 241.362 231.009 241.362C231.009 241.362 231.009 239.753 230.111 238.915C229.213 238.076 228.632 234.798 228.632 234.798C228.103 233.98 227.873 233.003 227.98 232.034C228.176 230.425 226.89 228.688 226.89 228.688L224.706 221.74L222.647 216.528L221.5 219.55C221.5 219.55 221.176 226.627 221.436 228.11C221.696 229.594 222.077 233.514 222.077 233.514C222.077 233.514 220.791 236.09 221.365 238.276C221.938 240.463 221.749 245.161 221.749 245.161C221.749 245.161 222.326 254.877 221.813 255.647C221.3 256.418 221.365 258.351 221.365 258.351C221.365 258.351 223.997 264.012 223.146 264.772C222.294 265.532 222.565 267.668 222.565 267.668C222.565 267.668 224.346 267.668 223.595 268.439C222.843 269.209 222.28 273.275 222.28 273.275L214.51 274.174C214.51 274.174 213.798 273.275 212.768 270.893C211.738 268.51 212.96 268.752 213.997 268.514C215.034 268.275 214.375 267.611 213.156 266.841C211.938 266.07 212.64 264.344 212.64 264.344C212.64 264.344 214.503 261.191 213.862 260.93C213.22 260.67 213.149 256.236 213.149 256.236C213.149 256.236 211.863 250.957 212.184 249.544C212.504 248.132 211.154 244.718 211.154 244.718L210.705 240.663C209.327 238.365 208.821 235.648 209.28 233.008V226.755C209.28 226.755 207.499 214.659 207.225 208.546C207.061 204.622 207.107 199.289 207.16 195.954C207.192 194.085 207.225 192.847 207.225 192.847L234.995 189.944C235.038 191.332 235.206 192.713 235.497 194.071C235.779 195.597 236.21 197.573 236.923 200.045C238.914 207.122 237.692 212.398 237.692 212.398L237.436 221.344C237.436 221.344 239.88 227.326 239.363 229.387C239.055 230.608 238.883 231.86 238.85 233.118C238.85 233.118 244.311 246.181 243.734 249.976C243.157 253.771 245.516 259.757 245.516 259.757C245.516 259.757 246.175 264.008 245.533 265.168Z" fill="#575988"/>
<path opacity="0.05" d="M229.659 231.644L238.113 230.517C238.113 230.517 233.325 235.406 229.659 231.644Z" fill="black"/>
<path opacity="0.1" d="M236.886 222.249C236.886 222.249 237.175 225.242 235.344 226.369C235.347 226.369 238.625 225.852 236.886 222.249Z" fill="black"/>
<path opacity="0.1" d="M236.369 212.73C236.369 212.73 229.304 218.551 226.75 218.08C224.195 217.609 236.369 212.73 236.369 212.73Z" fill="black"/>
<path opacity="0.1" d="M219.186 234.382C219.186 234.382 213.82 235.602 213.66 237.76C213.5 239.918 219.186 234.382 219.186 234.382Z" fill="black"/>
<path opacity="0.05" d="M220.363 261.212C220.363 261.212 212.782 262.639 214.933 263.591C217.085 264.544 220.634 265.329 220.634 265.329C220.634 265.329 223.063 265.457 220.363 261.212Z" fill="black"/>
<g opacity="0.05">
<path opacity="0.05" d="M213.402 265.125C213.212 265.005 213.052 264.843 212.932 264.652C212.813 264.462 212.737 264.247 212.711 264.023L212.633 264.158C212.633 264.158 211.92 265.896 213.146 266.655C213.288 266.745 213.42 266.834 213.541 266.919C213.769 266.877 214.011 266.844 214.254 266.787C215.28 266.538 214.624 265.896 213.402 265.125Z" fill="black"/>
<path opacity="0.05" d="M223.171 264.608C223.381 264.415 223.374 263.919 223.246 263.285C222.936 263.856 222.787 264.5 222.815 265.15C222.894 264.946 223.016 264.761 223.171 264.608Z" fill="black"/>
<path opacity="0.05" d="M222.005 232.598C221.724 233.358 221.552 234.154 221.492 234.962C221.637 234.403 221.834 233.858 222.08 233.336C222.08 233.336 222.051 233.047 222.005 232.598Z" fill="black"/>
<path opacity="0.05" d="M239.381 229.22C239.434 228.986 239.458 228.747 239.452 228.507C239.356 228.985 239.288 229.43 239.242 229.823C239.267 229.634 239.313 229.43 239.381 229.22Z" fill="black"/>
<path opacity="0.05" d="M221.821 255.472C221.968 255.012 222.033 254.529 222.013 254.046C221.78 254.619 221.659 255.232 221.657 255.85C221.696 255.718 221.751 255.591 221.821 255.472Z" fill="black"/>
<path opacity="0.05" d="M223.412 267.605C223.013 268.896 222.717 270.218 222.529 271.557L214.759 272.459C214.759 272.459 214.046 271.557 213.017 269.178C212.928 268.967 212.856 268.782 212.799 268.611C212.333 268.825 212.151 269.324 212.76 270.722C213.79 273.101 214.499 274.004 214.499 274.004L222.279 273.101C222.279 273.101 222.857 269.049 223.626 268.275C224 267.897 223.758 267.705 223.412 267.605Z" fill="black"/>
<path opacity="0.05" d="M213.145 256.051C213.145 256.051 213.21 260.492 213.858 260.748C214.182 260.014 214.4 259.322 214.111 259.2C213.466 258.943 213.398 254.503 213.398 254.503C213.398 254.503 212.116 249.227 212.437 247.811C212.757 246.395 211.407 242.985 211.407 242.985L210.958 238.933C209.578 236.635 209.072 233.916 209.533 231.274V225.032C209.533 225.032 207.752 212.937 207.477 206.841C207.313 202.917 207.36 197.566 207.413 194.249C207.413 193.646 207.431 193.111 207.442 192.662L207.221 192.683C207.221 192.683 207.185 193.921 207.157 195.794C207.1 199.125 207.053 204.469 207.221 208.382C207.477 214.495 209.276 226.591 209.276 226.591V232.833C208.815 235.474 209.321 238.194 210.702 240.491L211.154 244.519C211.154 244.519 212.504 247.929 212.184 249.345C211.863 250.761 213.145 256.051 213.145 256.051Z" fill="black"/>
<path opacity="0.05" d="M236.024 270.722C235.393 269.807 234.973 268.762 234.795 267.665C234 268.378 234.912 271.164 235.767 272.266C236.665 273.422 243.349 274.132 244.635 272.009V270.782C242.896 272.509 236.886 271.817 236.024 270.722Z" fill="black"/>
<path opacity="0.05" d="M245.793 263.452C245.439 264.068 245.137 264.714 244.892 265.382V266.277C245.038 265.945 245.248 265.507 245.537 264.986C245.742 264.482 245.838 263.939 245.818 263.395C245.807 263.413 245.799 263.432 245.793 263.452Z" fill="black"/>
<path opacity="0.05" d="M236.42 264.465C236.665 263.97 236.877 263.458 237.054 262.935C237.054 262.935 235.96 263.192 234.225 261.151C232.961 259.653 232.889 256.824 233.071 254.977C232.747 256.068 232.234 260.638 233.969 262.696C235.105 264.026 235.96 264.379 236.42 264.465Z" fill="black"/>
<path opacity="0.05" d="M233.067 250.197C233.18 251.465 233.223 252.738 233.195 254.011C233.228 253.809 233.272 253.608 233.327 253.411C233.651 252.32 233.327 248.653 233.327 248.653C233.327 248.653 233.391 246.078 232.878 245.243C232.365 244.408 231.272 239.643 231.272 239.643C231.272 239.643 231.272 238.034 230.374 237.199C229.476 236.365 228.895 233.08 228.895 233.08C228.367 232.261 228.14 231.284 228.25 230.315C228.443 228.706 227.16 226.969 227.16 226.969L224.973 220.017L222.917 214.806L221.759 217.831C221.759 217.831 221.759 218.212 221.72 218.808L222.661 216.35L224.716 221.562L226.911 228.514C226.911 228.514 228.197 230.251 228.005 231.86C227.894 232.828 228.122 233.805 228.65 234.624C228.65 234.624 229.227 237.906 230.124 238.744C231.022 239.582 231.026 241.187 231.026 241.187C231.026 241.187 232.119 245.949 232.633 246.787C233.146 247.626 233.067 250.197 233.067 250.197Z" fill="black"/>
</g>
<path d="M238.466 131.802L237.981 134.149L238.01 135.194L238.031 135.968L235.348 136.243L235.049 135.686C234.493 134.68 233.343 132.633 232.969 132.319C232.473 131.902 231.59 125.371 232.651 125.756C233.299 126.007 233.831 126.49 234.144 127.111C234.144 127.111 239.413 127.732 238.466 131.802Z" fill="#FFCDD3"/>
<path opacity="0.1" d="M238.031 135.983L235.349 136.257L235.049 135.701C235.411 135.29 235.903 135.017 236.442 134.928C236.982 134.839 237.536 134.939 238.01 135.212L238.031 135.983Z" fill="black"/>
<path d="M238.707 137.252L235.169 138.072L235.098 137.545L234.895 136.118C234.895 136.118 236.295 134.249 238.318 135.65L238.493 136.364L238.707 137.252Z" fill="#DCE6F2"/>
<path d="M181.427 132.072L177.654 134.098L177.298 133.385C176.942 132.632 176.404 131.498 176.258 131.091C176.033 130.467 174.458 129.665 174.458 129.665C170.507 125.884 175.214 122.634 175.214 122.634C177.708 117.615 180.483 124.339 180.483 124.339C180.483 124.339 180.868 127.881 180.597 128.12C180.326 128.359 180.322 129.326 180.322 129.326C180.684 130.022 180.989 130.746 181.234 131.491C181.366 131.851 181.427 132.072 181.427 132.072Z" fill="#FFCDD3"/>
<path opacity="0.1" d="M181.427 132.073L177.654 134.099L177.298 133.386C177.829 132.943 179.72 131.41 180.34 131.478C180.637 131.514 180.936 131.523 181.235 131.503C181.366 131.852 181.427 132.073 181.427 132.073Z" fill="black"/>
<path d="M181.813 133.229L177.573 135.323L177.488 134.409L177.427 133.778C177.427 133.778 179.885 131.67 180.612 131.748C180.98 131.802 181.353 131.802 181.72 131.748L181.767 132.512L181.813 133.229Z" fill="#DCE6F2"/>
<path d="M228.183 147.418C228.183 147.418 209.686 149.509 213.145 148.385C215.55 147.6 216.505 146.07 216.708 144.368C216.868 142.942 216.505 141.408 216.017 140.088C215.58 138.92 215.027 137.799 214.364 136.742C214.364 136.742 228.504 128.956 225.675 136.029C225.239 137.099 224.969 138.23 224.874 139.382C224.784 140.525 224.905 141.675 225.23 142.774C225.765 144.566 226.788 146.174 228.183 147.418Z" fill="#FFCDD3"/>
<path opacity="0.1" d="M225.676 136.032C225.24 137.103 224.969 138.233 224.874 139.385C223.542 140.505 222.081 140.43 220.207 140.43C218.782 140.43 217.172 140.787 216.018 140.074C215.581 138.905 215.028 137.784 214.365 136.728C214.365 136.728 228.505 128.948 225.676 136.032Z" fill="black"/>
<path d="M219.954 140.922C224.178 140.922 227.603 137.494 227.603 133.264C227.603 129.034 224.178 125.606 219.954 125.606C215.729 125.606 212.305 129.034 212.305 133.264C212.305 137.494 215.729 140.922 219.954 140.922Z" fill="#FFCDD3"/>
<path opacity="0.1" d="M228.183 147.418C228.183 147.418 209.686 149.509 213.145 148.385C215.55 147.6 216.505 146.07 216.708 144.369C217.627 143.37 219.476 142.649 220.666 142.268C221.751 141.903 222.922 141.884 224.019 142.214C224.45 142.342 224.86 142.532 225.237 142.778C225.771 144.568 226.791 146.175 228.183 147.418Z" fill="black"/>
<path opacity="0.1" d="M238.707 137.251L235.169 138.072L235.098 137.544C235.476 137.024 236.004 136.634 236.612 136.426C237.219 136.218 237.876 136.203 238.493 136.381L238.707 137.251Z" fill="black"/>
<path opacity="0.1" d="M181.811 133.228L177.571 135.321L177.486 134.408C178.861 133.67 180.29 133.036 181.761 132.511L181.811 133.228Z" fill="black"/>
<path opacity="0.1" d="M235.497 194.078C228.336 195.212 218.14 196.685 216.522 196.193C215.183 195.783 210.897 195.836 207.167 195.954C207.199 194.085 207.231 192.847 207.231 192.847L234.995 189.944C235.037 191.334 235.205 192.718 235.497 194.078Z" fill="black"/>
<path d="M242.641 192.394C242.641 192.394 219.056 196.45 216.523 195.676C213.99 194.902 200.998 195.74 200.998 195.74C195.151 199.664 197.592 193.875 197.592 193.875C197.592 193.875 197.079 190.85 197.784 188.406C198.263 186.614 198.592 184.785 198.767 182.938C198.767 182.938 198.639 179.075 199.344 178.176C200.05 177.278 200.887 170.839 200.887 170.839C200.887 170.839 201.532 166.466 201.468 165.489C201.471 164.264 201.535 163.04 201.66 161.822L202.494 157.317C197.674 156.675 183.021 147.664 183.021 147.664C182.308 144.643 176.854 137.563 176.854 137.563C176.774 136.967 176.622 136.384 176.401 135.826C176.016 134.798 181.802 132.74 181.802 132.74C181.802 132.74 186.106 138.016 187.007 139.432C187.908 140.848 190.99 143.484 190.99 143.484C191.473 143.434 191.961 143.498 192.415 143.669L192.49 143.691C193.524 144.101 194.494 144.658 195.369 145.346C196.817 145.311 198.223 145.842 199.287 146.826C199.287 146.826 201.924 146.441 202.373 146.89C202.822 147.34 205.073 146.89 205.073 146.89C205.073 146.89 207.321 142.129 208.8 143.512C210.278 144.896 216.548 144.832 216.548 144.832C217.386 143.719 219.42 142.92 220.692 142.51C221.777 142.147 222.948 142.128 224.044 142.457C224.518 142.593 224.965 142.808 225.366 143.095L229.171 146.826C229.171 146.826 230.264 145.399 230.136 145.089C230.008 144.779 231.422 144.511 231.422 144.511C231.422 144.511 233.285 143.93 233.991 143.737C234.696 143.545 235.345 144.312 235.416 144.379C235.395 144.297 234.91 142.738 235.099 141.551C235.288 140.363 234.326 139.232 234.326 139.232C236.577 133.7 241.654 138.333 241.654 138.333C241.654 138.333 242.231 141.358 241.718 142.514C241.205 143.669 242.231 146.12 242.103 146.762C241.975 147.404 242.359 148.499 242.359 149.723C242.359 150.946 241.718 153.261 241.33 154.288C240.942 155.316 237.86 157.634 237.86 157.634C237.86 157.634 237.668 161.305 236.317 163.427C234.967 165.549 235.765 172.822 235.765 172.822C235.765 172.822 237.051 178.497 238.669 180.313C240.286 182.129 242.641 192.394 242.641 192.394Z" fill="#656691"/>
<path opacity="0.1" d="M208.26 150.058C208.26 150.058 207.547 147.935 206.91 147.743C206.271 147.505 205.648 147.225 205.046 146.904L205.46 146.113C205.46 146.113 207.872 146.776 208.26 147.482C208.648 148.189 208.26 150.058 208.26 150.058Z" fill="black"/>
<path opacity="0.1" d="M195.343 145.357C195.215 145.999 189.493 146.58 189.493 146.58L192.386 143.677L192.457 143.701C193.494 144.111 194.466 144.668 195.343 145.357Z" fill="black"/>
<path d="M178.791 137.041C179.074 137.041 179.304 136.811 179.304 136.528C179.304 136.244 179.074 136.014 178.791 136.014C178.508 136.014 178.278 136.244 178.278 136.528C178.278 136.811 178.508 137.041 178.791 137.041Z" fill="#575988"/>
<path d="M179.451 138.073C179.734 138.073 179.964 137.843 179.964 137.559C179.964 137.276 179.734 137.046 179.451 137.046C179.168 137.046 178.938 137.276 178.938 137.559C178.938 137.843 179.168 138.073 179.451 138.073Z" fill="#575988"/>
<path d="M180.095 139.022C180.378 139.022 180.608 138.792 180.608 138.508C180.608 138.225 180.378 137.995 180.095 137.995C179.811 137.995 179.582 138.225 179.582 138.508C179.582 138.792 179.811 139.022 180.095 139.022Z" fill="#575988"/>
<path d="M180.767 140.052C181.051 140.052 181.28 139.822 181.28 139.539C181.28 139.255 181.051 139.025 180.767 139.025C180.484 139.025 180.254 139.255 180.254 139.539C180.254 139.822 180.484 140.052 180.767 140.052Z" fill="#575988"/>
<path d="M241.347 139.898C241.578 139.898 241.764 139.711 241.764 139.481C241.764 139.251 241.578 139.064 241.347 139.064C241.117 139.064 240.931 139.251 240.931 139.481C240.931 139.711 241.117 139.898 241.347 139.898Z" fill="#575988"/>
<path d="M241.41 140.847C241.641 140.847 241.827 140.66 241.827 140.43C241.827 140.199 241.641 140.013 241.41 140.013C241.18 140.013 240.994 140.199 240.994 140.43C240.994 140.66 241.18 140.847 241.41 140.847Z" fill="#575988"/>
<path d="M241.469 141.796C241.699 141.796 241.886 141.609 241.886 141.379C241.886 141.148 241.699 140.961 241.469 140.961C241.239 140.961 241.052 141.148 241.052 141.379C241.052 141.609 241.239 141.796 241.469 141.796Z" fill="#575988"/>
<path opacity="0.1" d="M208.293 167.493C208.233 167.418 222.718 185.735 233.965 175.152C233.965 175.152 216.195 177.563 208.293 167.493Z" fill="black"/>
<path opacity="0.1" d="M199.971 177.017C199.971 177.017 208.639 177.252 209.544 179.749V182.349C209.298 182.486 209.021 182.558 208.739 182.558C208.457 182.558 208.18 182.486 207.934 182.349C207.061 181.875 201.817 179.21 199.971 180.491V177.017Z" fill="black"/>
<path d="M200.132 177.017C200.132 177.017 208.423 177.241 209.288 179.624V182.096C209.052 182.227 208.787 182.296 208.517 182.296C208.247 182.296 207.982 182.227 207.746 182.096C206.912 181.647 201.899 179.103 200.132 180.312V177.017Z" fill="#656691"/>
<path opacity="0.1" d="M204.702 158.169C205.588 160.221 206.715 162.16 208.061 163.944C209.529 165.916 211.307 167.635 213.327 169.034C213.327 169.034 204.844 159.364 204.702 158.169Z" fill="black"/>
<path opacity="0.1" d="M201.866 148.086C201.866 148.086 203.313 154.335 207.039 156.461L201.866 148.086Z" fill="black"/>
<path opacity="0.1" d="M199.646 148.717C199.611 148.602 198.364 153.66 204.452 156.461C204.467 156.461 201.866 155.579 199.646 148.717Z" fill="black"/>
<path opacity="0.1" d="M237.5 144.525C237.404 144.525 240.507 146.501 241.348 147.418C241.348 147.418 239.331 144.397 237.5 144.525Z" fill="black"/>
<path d="M217.888 140.205C217.95 140.614 218.164 140.983 218.487 141.24C218.709 141.346 218.953 141.401 219.199 141.4C221.533 141.543 223.959 141.646 226.114 140.747C226.522 140.607 226.89 140.368 227.183 140.052C227.568 139.581 227.639 138.943 227.796 138.358C228.095 137.213 228.74 136.192 229.221 135.104C230.002 133.264 230.264 131.244 229.976 129.265C229.92 128.658 229.721 128.073 229.395 127.557C228.776 126.672 227.65 126.315 226.83 125.613C226.011 124.91 225.487 123.829 224.532 123.301C223.67 122.823 222.619 122.88 221.647 123.045C219.727 123.367 217.886 124.054 216.224 125.071C215.672 125.409 215.063 125.802 214.443 125.684C213.884 125.577 213.478 125.106 213.118 124.668C212.663 125.717 212.468 126.861 212.548 128.003C212.576 128.169 212.576 128.339 212.548 128.506C212.467 128.706 212.346 128.887 212.192 129.037C211.614 129.704 211.255 130.763 211.835 131.438C212.081 131.734 212.462 131.894 212.705 132.194C213.136 132.732 212.99 133.503 212.979 134.195C212.954 134.434 213.015 134.674 213.15 134.873C213.275 134.988 213.427 135.07 213.592 135.109C213.758 135.149 213.931 135.144 214.094 135.097C214.419 135 214.761 134.968 215.099 135.001C215.458 135.119 215.766 135.357 215.971 135.675C217.019 137.045 217.436 138.554 217.888 140.205Z" fill="#2D293D"/>
<g opacity="0.1">
<path opacity="0.1" d="M227.427 139.461C227.136 139.785 226.768 140.031 226.358 140.175C224.22 141.074 221.776 140.97 219.443 140.824C219.196 140.828 218.952 140.773 218.73 140.663C218.406 140.408 218.192 140.038 218.132 139.629C217.679 137.981 217.262 136.472 216.183 135.103C215.978 134.784 215.67 134.547 215.31 134.428C214.972 134.393 214.631 134.426 214.305 134.525C214.144 134.569 213.973 134.572 213.81 134.533C213.647 134.493 213.496 134.413 213.372 134.3C213.237 134.1 213.176 133.859 213.201 133.619C213.201 132.93 213.358 132.156 212.927 131.621C212.684 131.318 212.307 131.161 212.057 130.865C211.897 130.646 211.798 130.387 211.772 130.117C211.745 129.846 211.792 129.574 211.908 129.328C211.502 129.977 211.324 130.811 211.801 131.379C212.047 131.675 212.428 131.835 212.67 132.135C213.101 132.673 212.955 133.444 212.945 134.136C212.92 134.375 212.981 134.615 213.116 134.814C213.24 134.929 213.393 135.011 213.558 135.05C213.724 135.09 213.896 135.086 214.06 135.038C214.385 134.941 214.726 134.909 215.064 134.942C215.424 135.06 215.732 135.298 215.937 135.616C217.006 136.986 217.433 138.495 217.886 140.146C217.887 140.314 217.923 140.479 217.991 140.632C218.06 140.784 218.159 140.921 218.283 141.033C218.407 141.146 218.553 141.231 218.711 141.284C218.87 141.337 219.038 141.357 219.204 141.341C221.538 141.484 223.964 141.587 226.119 140.688C226.527 140.548 226.894 140.309 227.188 139.993C227.333 139.807 227.445 139.597 227.519 139.372C227.49 139.404 227.459 139.434 227.427 139.461Z" fill="black"/>
<path opacity="0.1" d="M212.545 128.304C212.65 128.193 212.73 128.062 212.781 127.918C212.809 127.752 212.809 127.582 212.781 127.415C212.715 126.477 212.836 125.535 213.137 124.644L213.094 124.594C212.638 125.643 212.442 126.788 212.524 127.929C212.542 128.053 212.549 128.178 212.545 128.304Z" fill="black"/>
</g>
<path opacity="0.1" d="M216.523 144.847C216.523 144.847 226.078 146.113 226.936 144.676L216.523 144.847Z" fill="black"/>
<path opacity="0.1" d="M235.106 140.886C235.106 140.886 240.411 140.886 241.579 142.887L235.106 140.886Z" fill="black"/>
</svg>
