<svg width="384" height="260" viewBox="0 0 384 260" fill="none" xmlns="http://www.w3.org/2000/svg">
<path d="M156.406 203.364C159.546 203.769 162.804 204.026 165.811 203.045C166.284 202.898 166.805 202.569 166.758 202.093C166.724 201.92 166.651 201.758 166.545 201.617C165.411 199.909 164.459 198.085 163.703 196.177C163.674 196.077 163.612 195.99 163.528 195.929C163.43 195.894 163.323 195.894 163.225 195.929C161.838 196.296 160.64 197.195 159.261 197.581C158.559 197.775 157.825 197.83 157.102 197.743C156.477 197.671 155.624 197.153 155.056 197.219C155.378 199.299 156.164 201.241 156.406 203.364Z" fill="#FF8833"/>
<path d="M215.789 198.093C217.858 196.665 220.004 195.166 221.225 192.962C221.313 192.83 221.363 192.677 221.372 192.519C221.351 192.364 221.291 192.216 221.197 192.091C220.033 190.231 218.535 188.606 216.779 187.298C215.862 187.948 215.035 188.716 214.316 189.582C213.795 190.135 212.356 191.01 212.341 191.853C212.341 192.329 212.891 192.881 213.146 193.281C213.492 193.795 213.819 194.319 214.131 194.852C214.311 195.114 215.955 197.989 215.789 198.093Z" fill="#FF8833"/>
<path d="M168.715 209.739C168.751 210.23 168.618 210.718 168.336 211.12C168.115 211.343 167.841 211.507 167.54 211.596C163.15 213.176 158.069 211.206 153.688 212.762C152.788 213.081 151.936 213.543 151.032 213.847C149.953 214.173 148.841 214.371 147.717 214.438C146.168 214.585 144.61 214.68 143.057 214.723C141.876 214.807 140.69 214.703 139.543 214.414C138.969 214.266 138.432 213.999 137.968 213.629C137.504 213.259 137.122 212.795 136.848 212.267C136.61 211.794 136.563 211.247 136.716 210.739C136.784 210.565 136.882 210.404 137.004 210.263C137.301 209.928 137.65 209.644 138.037 209.421L139.652 208.373C140.409 207.835 141.232 207.397 142.1 207.069C142.739 206.86 143.417 206.769 144.065 206.593C146.334 205.927 148.067 204.118 149.677 202.38L151.874 200.024C152.08 199.765 152.34 199.555 152.637 199.41C152.942 199.308 153.266 199.277 153.584 199.32C155.719 199.473 157.78 200.167 159.575 201.338C160.033 201.684 160.529 201.978 161.052 202.214C162.34 202.718 163.993 202.338 165.182 201.7C165.745 201.395 165.622 201.224 165.859 200.681C166.096 200.138 166.673 199.791 167.175 200.286C167.327 200.457 167.434 200.663 167.488 200.886C167.962 202.457 167.782 204.146 167.782 205.793C167.768 206.051 167.8 206.309 167.876 206.555C167.997 206.803 168.141 207.039 168.307 207.259C168.341 207.318 168.371 207.378 168.397 207.44C168.687 208.17 168.796 208.959 168.715 209.739Z" fill="#514E7F"/>
<path d="M168.715 209.738C168.751 210.228 168.618 210.716 168.336 211.118C168.115 211.342 167.841 211.505 167.54 211.594C163.15 213.174 158.069 211.204 153.688 212.76C152.788 213.079 151.936 213.541 151.032 213.846C149.953 214.172 148.841 214.37 147.717 214.436C146.168 214.583 144.61 214.679 143.057 214.721C141.876 214.805 140.69 214.701 139.543 214.412C138.969 214.264 138.432 213.997 137.968 213.627C137.504 213.257 137.122 212.793 136.848 212.265C136.61 211.792 136.563 211.245 136.716 210.737C136.784 210.563 136.882 210.402 137.004 210.261C137.26 210.799 137.445 211.513 137.606 211.77C137.823 212.151 138.119 212.481 138.474 212.738C138.828 212.995 139.233 213.173 139.661 213.26C140.302 213.3 140.945 213.217 141.555 213.017C145.533 212.027 149.762 212.013 153.584 210.514C154.896 209.995 156.146 209.305 157.524 208.99C158.902 208.676 160.366 208.762 161.786 208.643C164.031 208.462 166.205 207.781 168.416 207.424C168.702 208.159 168.804 208.954 168.715 209.738Z" fill="#464353"/>
<path d="M225.84 197.806C225.631 199.481 224.575 200.923 223.415 202.147C222.255 203.37 220.943 204.47 220.02 205.879C218.883 207.626 218.372 209.791 216.894 211.267C216.327 211.804 215.69 212.26 215 212.624C214.227 213.082 213.41 213.46 212.561 213.752C210.354 214.461 207.977 214.299 205.671 214.128C204.922 214.121 204.181 213.977 203.483 213.704C203.165 213.542 202.861 213.354 202.573 213.142C201.995 212.785 201.509 212.296 201.153 211.714C200.978 211.399 200.929 211.028 201.015 210.677C201.147 210.29 201.374 209.943 201.674 209.668C202.193 209.125 202.75 208.621 203.341 208.159C204.151 207.633 204.882 206.991 205.51 206.255C205.895 205.673 206.178 205.029 206.348 204.351C206.683 203.163 206.888 201.942 206.959 200.709C206.956 199.89 207.04 199.073 207.21 198.272C207.56 197.015 208.488 195.892 208.384 194.593C208.342 194.407 208.358 194.212 208.431 194.036C208.542 193.898 208.695 193.802 208.867 193.764C209.591 193.474 210.354 193.296 211.131 193.236C211.52 193.209 211.911 193.269 212.275 193.412C212.638 193.556 212.966 193.778 213.233 194.064C213.555 194.455 213.769 195.016 214.242 195.169C214.477 195.233 214.723 195.243 214.962 195.197C216.127 195.078 217.358 194.931 218.277 194.174C218.702 193.791 219.043 193.324 219.279 192.802C219.516 192.28 219.642 191.715 219.65 191.142C219.65 190.708 219.456 190.256 220.124 190.19C220.626 190.123 221.024 190.666 221.279 190.999C222.203 192.241 223.15 193.541 223.496 195.054C223.63 195.002 223.773 194.974 223.917 194.973C224.213 194.971 224.504 195.04 224.767 195.175C225.03 195.31 225.257 195.507 225.428 195.749C225.805 196.363 225.951 197.093 225.84 197.806Z" fill="#514E7F"/>
<path d="M225.84 197.803C225.632 199.478 224.576 200.921 223.415 202.144C222.255 203.367 220.943 204.467 220.02 205.876C218.883 207.623 218.372 209.789 216.894 211.264C216.327 211.801 215.69 212.257 215 212.621C214.227 213.079 213.41 213.457 212.561 213.749C210.354 214.458 207.977 214.296 205.671 214.125C204.922 214.118 204.181 213.974 203.483 213.701C203.165 213.539 202.861 213.351 202.574 213.14C201.995 212.782 201.509 212.293 201.153 211.712C201.597 211.497 202.081 211.38 202.574 211.369C203.596 211.426 204.345 212.397 205.325 212.697C206.722 213.121 208.114 212.131 209.53 211.793C210.454 211.574 211.425 211.631 212.339 211.317C213.1 211.021 213.804 210.592 214.417 210.05C215.258 209.446 216.007 208.721 216.639 207.899C217.163 207.077 217.6 206.201 217.941 205.286C218.689 203.532 219.569 201.839 220.574 200.221C220.723 199.965 220.902 199.728 221.109 199.516C221.332 199.312 221.583 199.169 221.834 198.988C222.781 198.269 223.174 197.084 223.505 195.923C223.595 195.57 223.72 195.227 223.879 194.899C224.175 194.897 224.466 194.966 224.729 195.101C224.992 195.236 225.219 195.433 225.39 195.675C225.798 196.304 225.958 197.062 225.84 197.803Z" fill="#464353"/>
<path d="M126.538 49.3967C127.717 50.2846 128.687 51.4221 129.379 52.7288C130.042 54.033 133.864 64.1529 133.642 65.6237C134.887 64.3623 139.798 64.1576 141.058 62.8962C141.583 62.3679 144.42 59.7308 144.846 59.1167C145.272 58.5027 148.436 57.2127 148.782 56.5654C150.074 54.2377 139.613 45.4173 140.953 43.1182C141.028 43.0126 141.066 42.8857 141.062 42.7565C141.032 42.6479 140.971 42.5505 140.887 42.4756C140.03 41.595 138.893 41.0476 137.861 40.3955C136.829 39.7433 135.834 38.8342 135.555 37.6346C134.57 38.0902 133.666 38.7044 132.879 39.453C130.96 41.1063 129.073 42.793 127.22 44.5129C126.495 45.1888 125.094 46.0885 124.757 47.0548C124.36 48.0925 125.847 48.8303 126.538 49.3967Z" fill="#A1616A"/>
<path d="M143.47 45.649C141.865 46.7332 140.365 47.9667 138.99 49.3333C137.693 50.6233 136.461 52.1179 136.149 53.922C136.016 54.6312 136.035 55.35 135.926 56.0688C135.453 59.1866 132.772 61.4714 131.588 64.3893C131.246 65.2899 130.993 66.2228 130.835 67.174C130.503 68.9771 130.321 70.8049 130.291 72.6385C130.262 74.414 131.996 75.6373 132.63 77.2938C133.265 78.9503 133.435 80.6544 133.757 82.3538C134.364 85.562 135.476 88.6561 136.599 91.731C138.933 98.2142 146.501 116.136 148.836 122.624C155.991 120.82 175.038 116.674 181.375 112.87C183.487 111.604 166.718 97.3193 168.977 96.334C169.106 96.3138 169.228 96.2637 169.335 96.1877C169.442 96.1116 169.529 96.0117 169.591 95.8958C169.652 95.78 169.686 95.6513 169.69 95.52C169.693 95.3887 169.666 95.2583 169.611 95.1392C167.352 85.2098 160.287 77.0511 157.081 67.3834C155.968 64.0276 153.969 61.162 152.454 57.9728C151.08 55.0835 150.346 51.8895 148.703 49.1429C148.393 48.5771 147.988 48.0697 147.505 47.6435C147.095 47.3276 146.652 47.0579 146.184 46.8391C145.246 46.3821 144.375 46.1108 143.47 45.649Z" fill="#514E7F"/>
<path d="M126.915 48.2675C133.1 48.2675 138.115 43.2273 138.115 37.01C138.115 30.7926 133.1 25.7524 126.915 25.7524C120.729 25.7524 115.715 30.7926 115.715 37.01C115.715 43.2273 120.729 48.2675 126.915 48.2675Z" fill="#A1616A"/>
<path d="M138.309 42.2996C138.867 41.7821 139.568 41.4469 140.32 41.3381C141.071 41.2293 141.838 41.3521 142.519 41.6903C143.276 42.0854 143.939 42.8851 143.769 43.7228L149.324 43.8085C150.208 43.7842 151.092 43.8657 151.957 44.0513C152.827 44.2418 153.604 44.7317 154.154 45.4365C154.22 45.5269 154.296 45.6364 154.41 45.6507C154.502 45.6521 154.593 45.6219 154.666 45.565C155.52 45.1342 156.483 44.9685 157.431 45.089C160.434 45.2841 163.209 46.7931 165.562 48.6781C165.987 48.9713 166.316 49.3835 166.51 49.8633C166.704 50.4964 166.472 51.2913 166.983 51.7435C166.983 56.9796 168.773 61.8729 169.967 66.9757C170.18 67.8848 171.046 68.6893 171.648 69.4033C172.391 70.1949 172.997 71.1054 173.443 72.0975C174.456 74.7441 173.059 77.8571 174.044 80.5132C174.461 81.6366 175.266 82.5601 175.938 83.5359C176.825 84.6626 177.385 86.0132 177.558 87.4391C177.601 88.077 177.52 88.7196 177.558 89.3431C177.621 90.2008 177.78 91.0486 178.031 91.8707C178.436 93.4066 178.859 94.941 179.301 96.4737C180.02 98.9489 180.958 101.619 183.165 102.938C177.837 103.847 172.221 104.737 167.144 102.876C166.436 102.633 165.764 102.295 165.146 101.872C163.313 100.558 162.427 98.3111 161.637 96.1881C160.756 93.8081 159.861 91.3852 159.681 88.8529C159.682 88.0474 159.569 87.2459 159.344 86.4728C158.828 85.0924 157.45 84.2594 156.2 83.493C154.788 82.7155 153.509 81.7159 152.411 80.5323C151.867 79.9361 151.45 79.234 151.186 78.4693C150.922 77.7046 150.817 76.8935 150.877 76.0864C150.972 75.301 151.28 74.5442 151.308 73.754C151.336 72.9638 150.986 72.0594 150.233 71.85C146.355 70.6695 144.503 66.0522 143.641 62.0728C143.269 60.0161 143.102 57.9272 143.144 55.8372L143.092 51.7768C142.556 51.2874 142.126 50.6936 141.826 50.0315C141.527 49.3695 141.364 48.6531 141.349 47.926C141.4 47.5017 141.392 47.0723 141.325 46.6503C141.138 46.1344 140.833 45.6698 140.435 45.2937C139.579 44.4103 138.862 43.4006 138.309 42.2996Z" fill="#464353"/>
<path d="M126.382 55.1695C126.255 56.4261 126.539 57.7161 126.259 58.949C126.15 59.425 125.961 59.901 125.824 60.3436C125.404 62.1181 125.585 63.9827 126.34 65.6416C127.093 67.2842 127.995 68.8537 129.034 70.3302C129.386 70.8343 129.675 71.3793 129.896 71.9534C130.075 72.5562 130.187 73.1773 130.228 73.8051C130.502 76.3258 130.942 78.8255 131.544 81.2879C132.075 83.4204 138.098 101.651 139.5 103.341C139.755 103.715 140.14 103.979 140.58 104.079C140.897 104.091 141.212 104.026 141.499 103.889L144.34 102.794C144.582 102.719 144.806 102.596 144.998 102.432C145.265 102.119 145.409 101.72 145.406 101.309C145.609 98.9857 139.571 80.6262 138.804 78.4318C136.484 71.8058 133.396 65.4179 131.885 58.5586C131.464 56.6546 131.241 53.7224 129.854 52.204C129.281 51.5756 129.475 51.8422 128.788 52.1707C128.441 52.322 128.106 52.4986 127.784 52.699C127.382 52.9799 127.048 53.3474 126.805 53.7749C126.563 54.2023 126.418 54.6788 126.382 55.1695Z" fill="#464353"/>
<path d="M135.003 67.7411C135.766 71.7919 136.552 75.8331 137.333 79.8839L148.453 76.9565C148.542 75.7855 147.922 74.7002 147.505 73.6245C146.492 71.0683 146.468 68.2218 145.649 65.5943C145.029 63.5951 143.949 61.7577 143.366 59.7442C143.03 58.5732 142.86 57.3641 142.528 56.1789C142.173 55.0149 141.736 53.8776 141.221 52.7755C140.597 51.177 139.783 49.6602 138.796 48.2582C137.376 48.7913 135.86 49.4101 135.051 50.7001C134.635 51.4269 134.398 52.2428 134.359 53.0801C134.165 55.5887 135.069 58.1115 134.771 60.6057C134.464 62.9811 134.542 65.3909 135.003 67.7411Z" fill="#FF8833"/>
<path d="M148.639 121.623C149.264 124.003 148.359 126.507 147.62 128.863C146.508 132.412 145.75 136.064 145.357 139.764C145.309 140.705 145.12 141.634 144.798 142.52C144.448 143.315 143.851 143.986 143.444 144.743C142.326 146.732 142.354 149.16 142.596 151.435C142.757 152.935 142.998 154.429 143.297 155.905C143.661 157.709 144.111 159.594 143.586 161.355C144.467 161.16 145.063 162.307 145.006 163.207C144.95 164.106 144.661 165.111 145.092 165.887C146.181 166.287 146.19 167.791 146.157 168.957C146.175 170.979 146.43 172.992 146.915 174.955C148.563 182.92 150.312 190.863 152.162 198.783C156.164 200.031 160.838 201.33 164.655 199.602C165.365 199.283 166.075 198.774 166.236 198.003C166.278 197.587 166.226 197.167 166.085 196.775L164.276 190.158C163.835 188.559 163.395 186.907 163.627 185.265C163.802 184.042 164.333 182.723 163.736 181.642C163.532 181.271 163.21 180.981 162.974 180.629C162.026 179.234 162.524 177.368 162.599 175.678C162.629 175.299 162.603 174.917 162.524 174.545C162.394 174.111 162.213 173.694 161.984 173.303C160.489 170.385 159.771 167.129 159.9 163.849C159.957 163.431 159.899 163.005 159.734 162.617C159.619 162.456 159.517 162.288 159.427 162.112C159.356 161.806 159.391 161.486 159.526 161.203C158.983 160.789 158.493 160.309 158.067 159.775C158.33 159.611 158.552 159.389 158.717 159.126C158.882 158.863 158.985 158.565 159.019 158.256C159.052 157.947 159.016 157.635 158.912 157.342C158.808 157.049 158.639 156.784 158.418 156.567C158.611 156.527 158.79 156.435 158.934 156.3C159.078 156.165 159.182 155.993 159.234 155.802C159.287 155.611 159.286 155.409 159.231 155.219C159.176 155.029 159.07 154.858 158.925 154.724C158.692 154.563 158.385 154.491 158.219 154.248C157.963 153.896 158.172 153.406 158.38 153.03L159.483 151.026C160.307 149.536 160.492 147.694 161.378 146.266C162.647 144.186 163.476 141.868 164.295 139.573L167.482 130.734L169.627 132.604C170.342 133.153 170.941 133.839 171.389 134.623C171.694 135.397 171.887 136.211 171.962 137.041C172.748 141.839 175.75 145.999 176.863 150.726C177.11 151.778 177.275 152.882 177.877 153.782C178.092 154.058 178.285 154.351 178.454 154.658C178.611 155.126 178.693 155.616 178.696 156.11C178.795 157.076 179.1 158.01 179.591 158.848C180.081 159.686 180.745 160.408 181.537 160.965C182.593 161.693 183.905 162.193 184.478 163.345C184.593 163.702 184.752 164.042 184.952 164.359C185.463 164.978 186.567 165.049 186.785 165.825C186.908 166.258 186.68 166.777 186.922 167.158C187.059 167.334 187.241 167.47 187.448 167.553L190.53 169.1C193.978 170.832 195.74 174.812 198.283 177.711C199.161 178.655 199.939 179.689 200.603 180.795C201.702 182.771 202.209 185.251 204.065 186.507C204.564 186.767 205.018 187.106 205.41 187.512C205.992 188.283 205.779 189.363 205.831 190.334C205.884 191.305 206.622 192.462 207.541 192.167C207.219 193.343 207.219 194.585 207.541 195.761C211.574 195.553 215.421 193.987 218.462 191.315C219.361 190.525 220.228 189.516 220.237 188.316C220.251 188.109 220.205 187.902 220.105 187.721C219.923 187.487 219.683 187.305 219.409 187.193C216.525 185.622 215.658 181.98 214.199 179.024C212.925 176.416 211.041 174.169 209.464 171.746C206.035 166.534 203.696 160.227 198.51 156.785C197.369 156.029 196.043 155.357 195.47 154.106C195.152 153.406 195.115 152.606 194.864 151.883C194.613 151.159 194.011 150.455 193.244 150.455C193.67 149.407 193.585 148.132 193.613 146.999C193.642 146.496 193.585 145.992 193.443 145.509C193.246 144.989 192.99 144.494 192.68 144.033C191.327 141.731 190.651 139.09 190.729 136.417C190.767 135.042 191.009 133.623 190.597 132.309C190.388 131.648 190.024 131.043 189.773 130.405C189.395 129.25 189.195 128.042 189.181 126.826L188.897 122.251C188.854 120.728 188.657 119.213 188.309 117.729C187.362 114.178 186.415 99.3032 183.171 97.6276C179.927 95.9521 174.353 107.4 170.702 107.624C169.087 107.691 167.491 108.001 165.966 108.542C163.537 109.456 161.501 111.16 159.516 112.826L152.801 118.496C151.381 119.671 150.206 120.795 148.639 121.623Z" fill="#464353"/>
<path d="M116.408 24.5099C117.885 22.4821 120.423 21.4063 122.924 21.3159C125.424 21.2254 127.887 22.0156 130.127 23.1342C130.788 23.5121 131.495 23.8033 132.229 24.0005C133.413 24.2433 134.73 23.9196 135.8 24.4766C137.221 25.2334 137.496 27.1612 137.372 28.7606C137.249 30.36 136.951 32.1355 137.799 33.5206C138.099 33.9157 138.373 34.3308 138.618 34.763C138.983 35.5865 138.769 36.5385 138.552 37.4096C137.997 36.9336 137.685 36.2148 137.192 35.6627C136.7 35.1105 135.843 34.7392 135.232 35.1533C134.621 35.5675 134.63 36.3195 134.597 36.9955C134.564 37.6714 134.394 38.4806 133.759 38.6996C133.494 38.7602 133.217 38.7395 132.964 38.6403C132.71 38.541 132.493 38.3676 132.338 38.1426C131.254 36.8098 131.69 34.6821 130.615 33.3398C130.004 32.5782 128.985 32.2069 128.422 31.4072C127.977 30.7789 127.863 29.9792 127.475 29.3032C127.086 28.6273 126.182 28.1323 125.581 28.5988C125.375 28.7959 125.204 29.0259 125.074 29.2794C124.699 29.8194 124.154 30.2165 123.526 30.4065C122.899 30.5965 122.226 30.5684 121.617 30.3267C121.151 30.0393 120.647 29.8197 120.12 29.6745C119.775 29.6572 119.432 29.7371 119.13 29.9053C118.828 30.0736 118.579 30.3234 118.411 30.6265C118.071 31.2322 117.907 31.9215 117.937 32.6162C117.937 33.5682 118.108 34.5821 117.568 35.3437C117.362 35.6304 117.105 35.8759 116.81 36.0673C116.019 36.5766 114.916 36.9193 114.186 36.3386C113.939 36.1072 113.755 35.8158 113.653 35.4923C113.55 35.1689 113.531 34.8243 113.599 34.4917C113.741 33.8292 113.928 33.1771 114.158 32.5401C114.575 31.0645 114.03 29.4032 114.485 28.0133C114.961 26.7615 115.608 25.5824 116.408 24.5099Z" fill="#464353"/>
<path d="M122.41 58.0918C122.338 58.4388 122.375 58.7993 122.514 59.1248C122.654 59.3465 122.846 59.5309 123.072 59.6627C124.665 60.6599 126.476 61.2498 128.348 61.381C128.603 61.3854 128.853 61.4507 129.077 61.5714C129.522 61.8666 129.551 62.5234 129.385 63.047C129.164 63.541 129.05 64.0763 129.049 64.6179C129.186 65.6127 130.361 66.0459 131.35 66.1934C132.738 66.3696 134.258 66.2791 135.357 65.408C136.101 64.7257 136.668 63.8712 137.01 62.9185C139.728 56.64 140.68 49.6999 143.431 43.4404C143.64 43.0317 143.779 42.5909 143.843 42.1362C143.872 41.9085 143.84 41.6772 143.75 41.4663C143.66 41.2553 143.516 41.0725 143.332 40.9366C142.82 40.6177 142.025 40.7986 141.679 40.2988C141.508 40.0465 141.527 39.7038 141.376 39.4372C141.059 38.8708 140.225 38.9612 139.657 38.6328C139.212 38.3948 138.904 37.9045 138.407 37.8093C138.163 37.7954 137.919 37.839 137.694 37.9365C137.47 38.034 137.271 38.1827 137.114 38.371C135.499 39.8847 134.651 42.0314 133.751 44.0592C132.378 47.1675 130.769 50.1656 128.94 53.0272C129.153 52.694 127.917 50.1711 127.434 50.0616C126.586 49.8903 125.502 51.3849 125.043 51.9419C123.601 53.6986 122.688 55.8319 122.41 58.0918Z" fill="#FF8833"/>
<path opacity="0.1" d="M139.612 39.0751C139.272 39.0808 138.937 39.1633 138.633 39.3166C138.329 39.4698 138.063 39.6899 137.855 39.9604C137.348 40.6221 137.249 41.4979 137.121 42.3405C136.69 45.0097 135.742 47.5682 134.332 49.8709" fill="black"/>
<path opacity="0.1" d="M142.027 40.9755C141.557 40.986 141.099 41.1192 140.696 41.3621C140.293 41.605 139.96 41.9491 139.73 42.3606C139.417 43.1093 139.222 43.9028 139.152 44.7121C138.746 46.5064 137.963 48.1927 136.855 49.6578" fill="black"/>
<path d="M70.5836 104.784C70.5836 104.784 69.9206 146.13 77.2135 159.734C84.5065 173.338 87.632 232.52 87.632 232.52C87.632 232.52 164.085 240.469 217.361 223C270.638 205.53 384 198.385 384 198.385L364.896 68.9644C364.896 68.9644 270.519 62.8811 216.831 88.6187C163.142 114.356 70.5836 104.784 70.5836 104.784Z" fill="#FAB072"/>
<path opacity="0.1" d="M70.5836 104.784C70.5836 104.784 69.9206 146.13 77.2135 159.734C84.5065 173.338 87.632 232.52 87.632 232.52C87.632 232.52 164.085 240.469 217.361 223C270.638 205.53 384 198.385 384 198.385L364.896 68.9644C364.896 68.9644 270.519 62.8811 216.831 88.6187C163.142 114.356 70.5836 104.784 70.5836 104.784Z" fill="#FAB072"/>
<path d="M87.5042 119.888C87.5042 119.888 85.1127 154.003 91.1128 164.904C97.1129 175.804 97.3923 224.466 97.3923 224.466C97.3923 224.466 166.197 227.674 215.14 210.928C264.083 194.183 366.933 183.32 366.933 183.32L355.245 77.4806C355.245 77.4806 270.145 76.6 220.477 100.172C170.81 123.743 87.5042 119.888 87.5042 119.888Z" fill="#FF6A00"/>
<path opacity="0.1" d="M219.725 191.549C229.515 190.323 235.331 172.221 232.716 151.116C230.1 130.011 220.044 113.896 210.254 115.122C200.465 116.347 194.648 134.45 197.264 155.554C199.879 176.659 209.935 192.774 219.725 191.549Z" fill="black"/>
<path opacity="0.2" d="M313.156 5.9176C313.156 5.9176 221.469 29.2418 178.232 70.2972C134.995 111.353 43.9756 130.793 43.9756 130.793C43.9756 130.793 55.9663 170.344 67.0573 181.044C78.1482 191.745 99.1841 247.114 99.1841 247.114C99.1841 247.114 174.372 231.092 219.74 198.019C265.108 164.946 370.841 123.177 370.841 123.177L313.156 5.9176Z" fill="#FAB072"/>
<path d="M42.5972 124.87C42.5972 124.87 54.5832 164.426 65.6646 175.127C76.7461 185.827 97.7915 241.192 97.7915 241.192C97.7915 241.192 172.989 225.174 218.362 192.101C263.734 159.028 369.458 117.273 369.458 117.273L311.773 0C311.773 0 220.09 23.3242 176.854 64.3796C133.617 105.435 42.5972 124.87 42.5972 124.87Z" fill="#FAB072"/>
<path opacity="0.1" d="M42.5972 124.87C42.5972 124.87 54.5832 164.426 65.6646 175.127C76.7461 185.827 97.7915 241.192 97.7915 241.192C97.7915 241.192 172.989 225.174 218.362 192.101C263.734 159.028 369.458 117.273 369.458 117.273L311.773 0C311.773 0 220.09 23.3242 176.854 64.3796C133.617 105.435 42.5972 124.87 42.5972 124.87Z" fill="#FAB072"/>
<path d="M63.2974 134.029C63.2974 134.029 71.438 167.24 80.4784 175.76C89.5188 184.28 104.63 230.501 104.63 230.501C104.63 230.501 171.091 212.327 212.561 181.291C254.031 150.256 348.612 108.239 348.612 108.239L305.182 11.0767C305.182 11.0767 223.922 36.481 183.844 74.2377C143.766 111.994 63.2974 134.029 63.2974 134.029Z" fill="#FF6A00"/>
<path opacity="0.4" d="M211.03 161.451C219.973 157.264 219.982 138.242 211.05 118.962C202.118 99.6818 187.627 87.4458 178.684 91.6319C169.74 95.818 169.731 114.841 178.663 134.121C187.595 153.401 202.086 165.637 211.03 161.451Z" fill="white"/>
<path d="M181.528 96.8381C180.605 97.6637 179.751 98.5648 178.976 99.5322C178.195 100.513 177.78 101.737 177.801 102.993C177.805 103.357 177.921 103.711 178.133 104.007C178.241 104.148 178.39 104.252 178.56 104.304C178.73 104.356 178.911 104.354 179.08 104.297C179.27 104.2 179.433 104.055 179.553 103.878C180.054 103.274 180.585 102.695 181.144 102.146C181.348 101.941 181.618 101.727 181.893 101.803C182.016 101.847 182.126 101.92 182.215 102.017C182.533 102.294 182.765 102.658 182.882 103.064C183.048 103.792 182.627 104.521 182.148 105.092C181.67 105.663 181.107 106.211 180.912 106.929C180.839 107.119 180.839 107.33 180.912 107.52C181.004 107.657 181.132 107.766 181.282 107.834C181.96 108.209 182.712 108.43 183.484 108.481C184.257 108.532 185.031 108.412 185.752 108.129C186.699 107.743 187.542 107.082 188.518 106.739C188.94 106.623 189.35 106.463 189.74 106.263C190.019 106.076 190.258 105.836 190.444 105.556C190.631 105.275 190.76 104.961 190.824 104.63C190.947 103.97 190.971 103.294 190.895 102.626C190.777 100.04 190.226 97.493 189.266 95.0911C189.211 94.9362 189.116 94.7984 188.991 94.6913C188.849 94.604 188.685 94.5594 188.518 94.5628C187.306 94.4342 185.317 93.8107 184.147 94.2629C183.738 94.4883 183.385 94.8041 183.115 95.1863C182.897 95.4291 181.528 96.5191 181.528 96.8381Z" fill="#A1616A"/>
<path d="M181.143 95.7632C181.143 94.6017 179.722 91.798 181.981 91.6124C181.981 90.37 180.234 89.5989 180.561 88.2804C180.665 87.8424 181.034 87.4854 181.077 87.038C181.219 85.7671 178.936 85.0769 179.315 83.8583C179.457 83.3823 179.959 83.1062 180.068 82.635C180.324 81.5354 178.368 81.0451 178.33 79.917C178.33 79.5362 178.543 79.1792 178.524 78.7984C178.524 78.3223 178.112 77.9606 177.885 77.5465C177.293 76.485 177.582 74.8428 176.502 74.2954C177.217 74.3572 177.449 73.291 177.156 72.6389C176.862 71.9867 176.261 71.4203 176.256 70.6968C176.291 70.4346 176.291 70.1688 176.256 69.9066C176.057 69.2116 174.925 69.1545 174.736 68.4786C174.711 68.2191 174.703 67.9584 174.712 67.6979C174.636 67.16 174.087 66.8173 173.571 66.665C173.035 66.5735 172.518 66.3882 172.046 66.1176C171.714 65.8653 171.331 65.4464 170.976 65.6416C170.843 65.7225 170.777 65.8748 170.677 65.9891C170.251 66.4889 169.436 66.2699 168.901 65.9034C167.32 64.8229 166.534 62.8855 166.197 60.9958C165.861 59.106 165.871 57.1544 165.449 55.2837C165.321 54.7007 165.15 54.128 164.938 53.5701C164.758 53.0941 164.18 52.3468 164.142 51.866C164.057 50.7712 166.311 51.5185 167.168 51.628C168 51.7097 168.823 51.8691 169.626 52.104C170.483 52.4294 171.322 52.7996 172.141 53.2131C175.56 54.7316 179.689 54.9172 182.436 57.4686C183.34 58.3064 184.103 59.4059 185.277 59.7867C185.816 59.8905 186.347 60.0288 186.869 60.2009C188.171 60.8149 188.374 62.5523 189.085 63.809C189.308 64.1408 189.503 64.4912 189.667 64.8562C189.804 65.2867 189.868 65.7372 189.857 66.189L189.956 69.4877C190.117 75.0141 190.278 80.5548 189.691 86.0479C189.502 87.8615 189.217 89.7274 189.753 91.4696C189.895 91.9456 190.094 92.3931 190.226 92.8738C190.343 93.4375 190.404 94.0116 190.406 94.5874L190.482 96.7247C190.508 96.8909 190.471 97.0609 190.378 97.2007C190.298 97.2653 190.206 97.3112 190.107 97.3351C190.008 97.359 189.904 97.3603 189.805 97.3387C186.845 97.0722 183.852 95.3966 181.058 96.4105" fill="#464353"/>
<path d="M346.35 255.145C345.734 252.494 345.351 250.166 345.351 250.166C345.351 250.166 345.493 247.281 344.205 245.115V244.392V239.061C344.571 238.093 345.02 237.158 345.545 236.267C346.492 234.591 345.545 228.451 345.545 228.451C345.545 228.451 342.007 219.792 342.864 214.299C343.721 208.806 335.6 189.908 335.6 189.908C335.65 188.086 335.906 186.275 336.362 184.511C336.449 184.14 336.484 183.758 336.466 183.378C336.466 183.33 336.466 183.287 336.466 183.24C336.466 183.192 336.466 183.268 336.466 183.282C336.343 179.66 333.492 172.872 333.492 172.872L333.876 159.934C333.876 159.934 335.695 152.318 332.73 142.06C331.693 138.486 331.03 135.625 330.608 133.416C330.561 133.169 330.514 132.94 330.476 132.697C336.58 131.745 341.245 130.984 341.245 130.984C341.245 130.984 337.702 116.09 335.311 113.481C332.919 110.873 331.006 102.681 331.006 102.681C331.006 102.681 329.761 92.1656 331.773 89.0906C333.786 86.0156 334.07 80.7129 334.07 80.7129C334.07 80.7129 338.659 77.3809 339.237 75.872C339.815 74.363 340.766 71.031 340.766 69.265C340.766 67.499 340.193 65.933 340.383 64.981C340.572 64.029 339.043 60.5113 339.81 58.8358C340.008 58.3211 340.111 57.7741 340.113 57.2221C340.115 57.2063 340.115 57.1903 340.113 57.1745C340.12 55.7083 339.985 54.2448 339.71 52.8048C338.383 51.6781 336.834 50.846 335.164 50.3629L335.065 49.963L334.804 48.9158C334.659 48.8192 334.509 48.7303 334.354 48.6493V48.2685L334.312 46.7548L335.032 43.3561C336.452 37.4441 328.596 36.5635 328.596 36.5635C328.119 35.6567 327.327 34.9584 326.37 34.6024C324.793 34.0454 326.109 43.4941 326.844 44.1225C327.398 44.5985 329.112 47.5402 329.941 48.9967L330.073 49.2348C329.944 49.352 329.823 49.4793 329.713 49.6156L330.012 51.6671L330.059 51.9813C329.538 52.6312 329.116 53.3545 328.804 54.1281C328.804 54.1281 330.225 55.7084 329.955 57.4601C329.685 59.2118 330.395 61.4347 330.428 61.5537C330.343 61.4538 329.334 60.359 328.326 60.6255C327.317 60.8921 324.499 61.7442 324.499 61.7442C324.499 61.7442 322.397 62.1154 322.605 62.5819C322.813 63.0484 321.184 65.0952 321.184 65.0952L315.53 59.7069C315.473 59.545 315.412 59.3832 315.364 59.2308C315.133 58.4539 314.975 57.6572 314.891 56.8508C315.507 56.7036 316.112 56.5111 316.7 56.2749C317.294 56.0698 317.83 55.7236 318.262 55.2657C318.835 54.585 318.944 53.6616 319.176 52.8143C319.622 51.1578 320.597 49.687 321.274 48.1114C322.421 45.449 322.791 42.5136 322.34 39.648C322.253 38.7649 321.956 37.9159 321.473 37.1728C320.55 35.8971 318.873 35.3783 317.656 34.3596C316.439 33.341 315.653 31.7844 314.232 31.0276C312.949 30.3374 311.391 30.4183 309.942 30.6563C307.112 31.1254 304.393 32.1197 301.924 33.5885C301.1 34.0645 300.191 34.65 299.244 34.4738C298.429 34.3263 297.823 33.6742 297.312 33.0458C297.318 33.0198 297.326 32.9943 297.336 32.9697C297.312 32.9465 297.292 32.921 297.274 32.8935C296.675 34.2303 296.374 35.6829 296.393 37.149C296.393 37.3775 296.393 37.625 296.422 37.8297V38.0677C296.422 38.1343 296.422 38.201 296.422 38.2628C296.421 38.3643 296.407 38.4653 296.379 38.5627C296.26 38.8539 296.079 39.1154 295.849 39.3291C295.675 39.5276 295.516 39.7392 295.375 39.9622C295.375 39.886 295.422 39.8099 295.451 39.7289C295.089 40.259 294.886 40.8814 294.863 41.5235C294.837 41.9909 294.99 42.4507 295.29 42.8087C295.573 43.0854 295.882 43.3341 296.213 43.5513C296.101 44.1796 296.044 44.8168 296.043 45.4553C296.053 47.3481 296.55 49.2061 297.484 50.8497C298.418 52.4933 299.758 53.8668 301.375 54.8373C301.441 54.9944 301.503 55.1562 301.564 55.3133C302.289 57.2173 302.834 59.4546 302.592 61.5014C302.592 61.6489 302.549 61.8013 302.526 61.9488C302.502 62.0964 302.384 62.1059 302.322 62.1868C302.322 62.1868 292.979 62.282 290.781 60.2828C288.584 58.2836 285.231 65.1714 285.231 65.1714C285.231 65.1714 281.883 65.8235 281.211 65.1714C280.538 64.5193 276.622 65.0809 276.622 65.0809C275.017 63.6466 272.929 62.8807 270.783 62.9389C269.482 61.9455 268.047 61.144 266.52 60.5589L266.416 60.5208C265.743 60.274 265.022 60.1829 264.309 60.2543C264.309 60.2543 259.715 56.4462 258.375 54.3899C257.035 52.3335 250.656 44.7413 250.628 44.7079V44.3414L250.556 43.2371C250.367 43.267 250.175 43.2829 249.983 43.2847C249.95 43.1752 249.903 43.0467 249.856 42.8991C249.488 41.8219 249.035 40.7761 248.501 39.7718C248.501 39.7718 248.501 38.3771 248.904 38.0248C249.306 37.6726 248.738 32.5555 248.738 32.5555C248.738 32.5555 244.599 22.8308 240.891 30.0898C240.891 30.0898 233.882 34.788 239.764 40.2621C239.764 40.2621 242.132 41.4045 242.444 42.3089C242.662 42.8944 243.458 44.5366 243.993 45.6409L244.234 46.1169L244.168 46.174L244.253 47.088L244.291 47.4402C243.183 48.0733 242.43 48.7016 242.615 49.1729C242.941 49.9793 243.165 50.8236 243.282 51.6862C243.282 51.6862 251.418 61.9298 252.47 66.3043C252.47 66.3043 274.287 79.3373 281.462 80.2655L280.192 86.763C280.007 88.5261 279.913 90.2975 279.908 92.0704C280.003 93.4651 279.046 99.796 279.046 99.796C279.046 99.796 277.801 109.107 276.75 110.411C275.698 111.715 275.888 117.299 275.888 117.299C275.639 119.972 275.164 122.618 274.467 125.21C273.416 128.747 274.178 133.126 274.178 133.126C274.178 133.126 270.546 141.504 279.25 135.825C279.25 135.825 283.512 135.558 288.447 135.387C288.447 135.549 288.447 135.715 288.447 135.863C288.447 136.501 288.447 137.191 288.413 137.914C288.347 142.713 288.319 149.339 288.537 154.327C288.92 163.171 291.601 180.674 291.601 180.674V189.485C291.428 190.311 291.342 191.154 291.345 191.998C291.288 195.098 292.109 198.151 293.713 200.799L294.385 206.664C294.385 206.664 295.957 210.529 295.986 212.852C295.98 213.039 295.958 213.225 295.92 213.409C295.858 213.704 295.833 214.007 295.844 214.308C295.754 216.974 297.35 223.353 297.35 223.353C297.35 223.353 297.444 229.774 298.401 230.15C299.22 230.469 297.307 233.848 296.739 234.819C296.724 234.76 296.713 234.7 296.706 234.639L296.587 234.829C296.39 235.349 296.289 235.901 296.289 236.457C296.235 236.895 296.306 237.34 296.494 237.74C296.682 238.139 296.978 238.477 297.35 238.713C299.168 239.832 300.144 240.76 298.6 241.131C298.032 241.22 297.469 241.339 296.914 241.488C296.914 241.417 296.857 241.341 296.834 241.274C296.616 241.36 296.434 241.518 296.319 241.723C296.204 241.928 296.164 242.166 296.204 242.397C296.218 243.153 296.411 243.893 296.767 244.559C298.297 248.005 299.358 249.319 299.358 249.319L300.092 249.238C299.983 249.52 299.84 249.787 299.665 250.033C299.386 250.432 299.016 250.758 298.586 250.985C298.185 251.226 297.738 251.38 297.274 251.437C296.755 251.454 296.246 251.58 295.779 251.808C295.313 252.036 294.899 252.361 294.565 252.76C293.618 254.002 293.012 255.692 294.897 257.177L301.74 259.557C301.74 259.557 313.513 261.095 312.887 258.439C312.262 255.783 311.884 253.46 311.884 253.46C311.934 251.838 311.61 250.227 310.936 248.752C310.813 248.511 310.674 248.279 310.52 248.057L310.936 248.014C310.936 248.014 311.798 242.145 312.944 241.031C313.209 240.774 313.271 240.555 313.209 240.422C313.328 240.103 313.025 239.917 312.641 239.808L312.556 240.041C312.181 239.959 311.798 239.916 311.415 239.913C311.415 239.913 311.031 236.842 312.277 235.724C312.377 235.596 312.45 235.449 312.492 235.292C312.533 235.135 312.542 234.971 312.518 234.81C312.528 234.389 312.483 233.968 312.385 233.558C312.373 233.584 312.359 233.61 312.343 233.634C311.718 230.845 309.596 226.413 309.596 226.413C309.596 226.413 309.501 223.624 310.269 222.505C311.036 221.387 310.169 207.33 310.169 207.33C310.169 207.33 310.458 200.538 309.596 197.372C308.734 194.207 310.647 190.48 310.647 190.48C310.647 190.48 310.647 190.408 310.647 190.28V190.232L310.539 189.161C310.536 189.183 310.536 189.206 310.539 189.228C310.344 187.428 309.98 184.168 309.71 182.664C309.326 180.522 309.809 170.288 309.809 170.288L311.528 165.908L314.592 173.453L317.846 183.506C317.846 183.506 319.456 185.629 319.494 187.79C319.494 187.895 319.494 188 319.494 188.104C319.467 188.327 319.455 188.551 319.456 188.776C319.398 190.046 319.745 191.301 320.446 192.36C320.446 192.36 321.308 197.12 322.648 198.315C323.988 199.509 323.988 201.851 323.988 201.851C323.988 201.851 325.612 208.744 326.356 209.943C327 210.962 327.033 213.751 327.028 214.623C327.028 214.78 327.028 214.87 327.028 214.87C327.028 214.87 327.256 217.336 327.246 219.402C327.246 219.659 327.246 219.906 327.246 220.139C327.248 220.122 327.248 220.105 327.246 220.087C327.246 220.652 327.179 221.214 327.047 221.763L327.019 221.858C327.019 221.739 327.019 221.625 327.052 221.51C326.719 222.913 326.56 224.352 326.578 225.794C326.536 228.27 326.91 231.202 328.402 232.934C330.987 235.914 332.612 235.543 332.612 235.543C332.612 235.543 331.371 239.265 329.836 240.013C329.778 240.04 329.724 240.075 329.675 240.117C329.675 240.041 329.647 239.97 329.638 239.898C329.467 240.084 329.336 240.304 329.254 240.543C329.173 240.782 329.142 241.036 329.164 241.288C329.055 242.926 330.083 245.572 331.058 246.805C331.421 247.162 331.865 247.423 332.351 247.567C332.274 247.622 332.193 247.671 332.11 247.714C331.939 247.808 331.764 247.893 331.584 247.967C331.335 248.073 331.072 248.142 330.803 248.171C330.283 248.185 329.773 248.311 329.306 248.539C328.839 248.767 328.425 249.093 328.094 249.495C327.147 250.732 326.54 252.422 328.425 253.907L335.268 256.287C335.268 256.287 346.965 257.796 346.35 255.145Z" fill="url(#paint0_linear)"/>
<path d="M301.402 259.542L294.772 257.162C292.944 255.677 293.527 253.987 294.45 252.745C294.768 252.348 295.167 252.025 295.619 251.797C296.072 251.569 296.568 251.441 297.074 251.421C297.523 251.364 297.954 251.21 298.338 250.969C298.758 250.74 299.119 250.413 299.39 250.017C299.873 249.246 300.134 248.354 300.143 247.442C300.143 247.442 307.417 245.3 309.405 247.442C309.76 247.83 310.057 248.268 310.286 248.741C310.947 250.22 311.271 251.829 311.233 253.449C311.233 253.449 311.603 255.772 312.204 258.428C312.806 261.084 301.402 259.542 301.402 259.542Z" fill="#2D293D"/>
<path d="M333.814 256.258L327.184 253.878C325.356 252.393 325.938 250.703 326.862 249.465C327.177 249.067 327.575 248.743 328.027 248.515C328.479 248.286 328.975 248.159 329.481 248.142C329.743 248.115 329.998 248.046 330.238 247.937C330.413 247.863 330.584 247.779 330.75 247.685C332.601 246.661 332.554 244.148 332.554 244.148C332.554 244.148 339.823 242.006 341.817 244.148C342.084 244.438 342.317 244.758 342.513 245.1C343.759 247.266 343.621 250.155 343.621 250.155C343.621 250.155 343.991 252.483 344.569 255.134C345.146 257.786 333.814 256.258 333.814 256.258Z" fill="#2D293D"/>
<path opacity="0.1" d="M309.41 247.438C309.765 247.826 310.062 248.263 310.291 248.737L299.399 250.008C299.883 249.237 300.143 248.345 300.152 247.433C300.152 247.433 307.421 245.296 309.41 247.438Z" fill="black"/>
<path d="M343.814 236.265C343.307 237.159 342.875 238.093 342.521 239.059V246.413C340.665 249.483 331.037 248.46 329.735 246.784C328.433 245.109 327.074 240.749 328.537 239.992C330 239.235 331.222 235.522 331.222 235.522C331.222 235.522 329.645 235.893 327.145 232.914C324.644 229.934 325.388 223.327 325.852 221.746C326.316 220.166 325.852 214.859 325.852 214.859C325.852 214.859 325.947 211.132 325.208 209.923C324.469 208.713 322.892 201.83 322.892 201.83C322.892 201.83 322.892 199.503 321.594 198.294C320.297 197.085 319.463 192.334 319.463 192.334C318.705 191.147 318.378 189.733 318.54 188.331C318.815 186.003 316.963 183.49 316.963 183.49L313.814 173.432L310.849 165.892L309.182 170.267C309.182 170.267 308.709 180.505 309.092 182.643C309.476 184.78 310.039 190.463 310.039 190.463C310.039 190.463 308.188 194.186 309.021 197.351C309.855 200.517 309.552 207.319 309.552 207.319C309.552 207.319 310.385 221.37 309.642 222.489C308.898 223.608 308.993 226.402 308.993 226.402C308.993 226.402 312.781 234.589 311.588 235.708C310.395 236.826 310.754 239.897 310.754 239.897C310.754 239.897 313.345 239.897 312.237 241.015C311.129 242.134 310.29 247.998 310.29 247.998L299.09 249.317C299.09 249.317 298.068 248.017 296.585 244.557C295.103 241.096 296.86 241.486 298.352 241.11C299.843 240.734 298.901 239.811 297.139 238.692C295.378 237.574 296.401 235.06 296.401 235.06C296.401 235.06 299.086 230.5 298.158 230.129C297.229 229.758 297.139 223.332 297.139 223.332C297.139 223.332 295.288 215.715 295.752 213.65C296.216 211.584 294.27 206.671 294.27 206.671L293.621 200.807C291.639 197.479 290.916 193.545 291.584 189.726V180.682C291.584 180.682 288.989 163.184 288.62 154.339C288.383 148.675 288.449 140.945 288.525 136.123C288.573 133.419 288.62 131.625 288.62 131.625L328.627 127.436C328.627 127.436 328.589 129.292 329.351 133.41C329.763 135.618 330.403 138.479 331.407 142.054C334.277 152.293 332.52 159.923 332.52 159.923L332.146 172.866C332.146 172.866 335.664 181.519 334.925 184.499C334.479 186.268 334.228 188.082 334.177 189.907C334.177 189.907 342.048 208.804 341.214 214.297C340.381 219.79 343.805 228.449 343.805 228.449C343.805 228.449 344.742 234.589 343.814 236.265Z" fill="#464353"/>
<path opacity="0.1" d="M305.846 191.722C305.846 191.722 298.113 193.488 297.881 196.611C297.649 199.734 305.846 191.722 305.846 191.722Z" fill="black"/>
<path opacity="0.05" d="M307.544 230.545C307.544 230.545 296.619 232.592 299.72 233.986C302.822 235.381 307.918 236.5 307.918 236.5C307.918 236.5 311.446 236.685 307.544 230.545Z" fill="black"/>
<path d="M333.626 43.3405L332.93 46.7392L332.973 48.2529L333.001 49.3667L329.137 49.7666L328.706 48.9621C327.905 47.5056 326.243 44.5448 325.708 44.0879C324.993 43.4881 323.719 34.0346 325.234 34.5963C326.167 34.9585 326.933 35.6556 327.384 36.5527C327.384 36.5527 334.995 37.4286 333.626 43.3405Z" fill="#FFCDD3"/>
<path opacity="0.1" d="M333.001 49.3665L329.137 49.7664L328.706 48.9619C329.225 48.3672 329.934 47.9719 330.711 47.8435C331.488 47.715 332.286 47.8613 332.968 48.2575L333.001 49.3665Z" fill="black"/>
<path d="M333.979 51.2085L328.883 52.3938L328.774 51.6322L328.485 49.5806C328.485 49.5806 330.503 46.8769 333.42 48.9046L333.676 49.9471L333.979 51.2085Z" fill="#FF8833"/>
<path d="M251.434 43.7127L245.993 46.6449L245.519 45.6167C245.003 44.5267 244.231 42.8845 244.018 42.2847C243.696 41.3803 241.428 40.2379 241.428 40.2379C235.745 34.7686 242.517 30.0657 242.517 30.0657C246.106 22.8066 250.094 32.5314 250.094 32.5314C250.094 32.5314 250.653 37.6579 250.26 38.0007C249.866 38.3434 249.866 39.7476 249.866 39.7476C250.385 40.7537 250.824 41.7994 251.178 42.875C251.344 43.3938 251.434 43.7127 251.434 43.7127Z" fill="#FFCDD3"/>
<path opacity="0.1" d="M251.435 43.7131L245.994 46.6453L245.52 45.6172C246.287 44.9698 249.01 42.7611 249.905 42.8516C250.333 42.9052 250.764 42.9163 251.193 42.8849C251.345 43.3942 251.435 43.7131 251.435 43.7131Z" fill="black"/>
<path d="M251.993 45.3634L245.879 48.3908L245.756 47.0723L245.67 46.1584C245.67 46.1584 249.213 43.1072 250.259 43.2262C250.788 43.3032 251.326 43.3032 251.855 43.2262L251.926 44.3305L251.993 45.3634Z" fill="#FF8833"/>
<path d="M318.81 65.9173C318.81 65.9173 292.158 68.94 297.14 67.3121C300.606 66.1744 301.984 63.98 302.273 61.5048C302.51 59.4437 301.979 57.2207 301.283 55.3167C300.657 53.6276 299.864 52.0059 298.915 50.4758C298.915 50.4758 319.279 39.2135 315.211 49.4523C314.584 51.001 314.194 52.6365 314.055 54.3028C313.933 55.9588 314.111 57.6233 314.581 59.2152C315.349 61.7983 316.813 64.1177 318.81 65.9173Z" fill="#FFCDD3"/>
<path opacity="0.1" d="M315.198 49.4389C314.57 50.9876 314.181 52.6231 314.042 54.2894C312.124 55.9126 310.022 55.8031 307.318 55.8031C305.243 55.8031 302.942 56.3077 301.284 55.3033C300.658 53.6142 299.865 51.9924 298.917 50.4623C298.917 50.4623 319.275 39.2001 315.198 49.4389Z" fill="black"/>
<path d="M306.957 56.5184C313.043 56.5184 317.977 51.5592 317.977 45.4417C317.977 39.3243 313.043 34.3651 306.957 34.3651C300.871 34.3651 295.937 39.3243 295.937 45.4417C295.937 51.5592 300.871 56.5184 306.957 56.5184Z" fill="#FFCDD3"/>
<path opacity="0.1" d="M318.81 65.9187C318.81 65.9187 292.158 68.9413 297.14 67.3134C300.606 66.1757 301.984 63.9814 302.273 61.5061C303.599 60.0781 306.265 59.0166 307.956 58.4645C309.519 57.9361 311.207 57.9079 312.786 58.3835C313.407 58.5717 313.999 58.8473 314.543 59.2023C315.32 61.7948 316.797 64.1199 318.81 65.9187Z" fill="black"/>
<path opacity="0.1" d="M333.979 51.2081L328.884 52.3933L328.775 51.6317C329.32 50.8784 330.084 50.3125 330.961 50.011C331.838 49.7094 332.786 49.687 333.676 49.9466L333.979 51.2081Z" fill="black"/>
<path opacity="0.1" d="M251.99 45.3632L245.877 48.3906L245.753 47.0721C247.734 46.0019 249.792 45.0838 251.91 44.3256L251.99 45.3632Z" fill="black"/>
<path opacity="0.1" d="M329.354 133.42C319.025 135.077 304.345 137.19 302.015 136.476C300.078 135.886 293.902 135.948 288.527 136.134C288.575 133.43 288.622 131.635 288.622 131.635L328.629 127.446C328.629 127.446 328.591 129.303 329.354 133.42Z" fill="black"/>
<path d="M339.65 130.983C339.65 130.983 305.662 136.847 302.016 135.743C298.369 134.639 279.64 135.833 279.64 135.833C271.21 141.512 274.729 133.134 274.729 133.134C274.729 133.134 273.99 128.76 275.008 125.223C275.692 122.627 276.159 119.977 276.405 117.303C276.405 117.303 276.22 111.714 277.239 110.41C278.257 109.106 279.464 99.7998 279.464 99.7998C279.464 99.7998 280.388 93.469 280.298 92.0743C280.208 90.6796 280.572 86.7668 280.572 86.7668L281.78 80.2503C274.833 79.3221 253.716 66.2891 253.716 66.2891C252.698 61.9146 244.828 51.6757 244.828 51.6757C244.713 50.8147 244.495 49.9708 244.179 49.1624C243.625 47.6725 251.96 44.6927 251.96 44.6927C251.96 44.6927 258.163 52.3088 259.461 54.3747C260.758 56.4405 265.2 60.2391 265.2 60.2391C265.891 60.1677 266.588 60.259 267.237 60.5056L267.346 60.5389C268.834 61.1264 270.23 61.9281 271.489 62.919C273.578 62.8692 275.604 63.6373 277.139 65.061C277.139 65.061 280.928 64.4993 281.586 65.1514C282.244 65.8036 285.474 65.1514 285.474 65.1514C285.474 65.1514 288.713 58.2636 290.844 60.2629C292.975 62.2621 302.016 62.1669 302.016 62.1669C303.218 60.558 306.15 59.4061 307.983 58.8349C309.546 58.3087 311.233 58.2804 312.813 58.7539C313.495 58.9584 314.136 59.2805 314.707 59.7059L320.205 65.1038C320.205 65.1038 321.778 63.0523 321.593 62.5905C321.408 62.1288 323.445 61.7528 323.445 61.7528C323.445 61.7528 326.13 60.915 327.148 60.6341C328.166 60.3533 329.099 61.4624 329.184 61.5624C329.151 61.4434 328.455 59.1823 328.711 57.4687C328.966 55.7551 327.598 54.1367 327.598 54.1367C330.837 46.1303 338.154 52.8324 338.154 52.8324C338.154 52.8324 338.987 57.2069 338.248 58.8824C337.51 60.558 338.987 64.0947 338.802 65.0277C338.618 65.9606 339.176 67.541 339.176 69.3117C339.176 71.0824 338.229 74.4288 337.694 75.9187C337.159 77.4086 332.693 80.7596 332.693 80.7596C332.693 80.7596 332.414 86.0671 330.468 89.1373C328.521 92.2075 329.743 102.708 329.743 102.708C329.743 102.708 331.595 110.9 333.91 113.509C336.226 116.117 339.65 130.983 339.65 130.983Z" fill="#3F3D56"/>
<path opacity="0.1" d="M290.102 69.7301C290.102 69.7301 289.083 66.6599 288.155 66.3981C287.234 66.0574 286.337 65.6534 285.47 65.189L286.067 64.0419C286.067 64.0419 289.543 64.9939 290.102 66.0268C290.66 67.0597 290.102 69.7301 290.102 69.7301Z" fill="black"/>
<path opacity="0.1" d="M271.486 62.9386C271.301 63.8906 263.056 64.7046 263.056 64.7046L267.224 60.5062L267.328 60.5443C268.822 61.1349 270.223 61.9415 271.486 62.9386Z" fill="black"/>
<path d="M247.634 50.9025C248.042 50.9025 248.373 50.57 248.373 50.1599C248.373 49.7498 248.042 49.4174 247.634 49.4174C247.226 49.4174 246.896 49.7498 246.896 50.1599C246.896 50.57 247.226 50.9025 247.634 50.9025Z" fill="#575988"/>
<path d="M248.584 52.3941C248.992 52.3941 249.323 52.0616 249.323 51.6515C249.323 51.2414 248.992 50.9089 248.584 50.9089C248.176 50.9089 247.845 51.2414 247.845 51.6515C247.845 52.0616 248.176 52.3941 248.584 52.3941Z" fill="#575988"/>
<path d="M249.515 53.7713C249.923 53.7713 250.253 53.4388 250.253 53.0287C250.253 52.6186 249.923 52.2861 249.515 52.2861C249.107 52.2861 248.776 52.6186 248.776 53.0287C248.776 53.4388 249.107 53.7713 249.515 53.7713Z" fill="#575988"/>
<path d="M250.485 55.2547C250.893 55.2547 251.224 54.9222 251.224 54.5121C251.224 54.102 250.893 53.7695 250.485 53.7695C250.077 53.7695 249.747 54.102 249.747 54.5121C249.747 54.9222 250.077 55.2547 250.485 55.2547Z" fill="#575988"/>
<path d="M337.784 55.0364C338.116 55.0364 338.385 54.7658 338.385 54.4319C338.385 54.098 338.116 53.8274 337.784 53.8274C337.452 53.8274 337.183 54.098 337.183 54.4319C337.183 54.7658 337.452 55.0364 337.784 55.0364Z" fill="#575988"/>
<path d="M337.875 56.4122C338.207 56.4122 338.476 56.1415 338.476 55.8076C338.476 55.4738 338.207 55.2031 337.875 55.2031C337.543 55.2031 337.273 55.4738 337.273 55.8076C337.273 56.1415 337.543 56.4122 337.875 56.4122Z" fill="#575988"/>
<path d="M337.955 57.7841C338.288 57.7841 338.557 57.5135 338.557 57.1796C338.557 56.8457 338.288 56.5751 337.955 56.5751C337.623 56.5751 337.354 56.8457 337.354 57.1796C337.354 57.5135 337.623 57.7841 337.955 57.7841Z" fill="#575988"/>
<path opacity="0.1" d="M290.137 94.9591C290.047 94.8496 310.926 121.349 327.132 106.036C327.146 106.04 301.54 109.53 290.137 94.9591Z" fill="black"/>
<path opacity="0.1" d="M278.151 108.735C278.151 108.735 290.644 109.077 291.951 112.69V116.451C291.595 116.649 291.195 116.753 290.789 116.753C290.382 116.753 289.982 116.649 289.626 116.451C288.366 115.765 280.813 111.91 278.151 113.766V108.735Z" fill="black"/>
<path d="M278.385 108.735C278.385 108.735 290.333 109.063 291.583 112.509V116.089C291.243 116.279 290.86 116.379 290.47 116.379C290.081 116.379 289.698 116.279 289.357 116.089C288.154 115.442 280.933 111.762 278.385 113.533V108.735Z" fill="#3F3D56"/>
<path opacity="0.1" d="M284.974 81.468C286.25 84.4375 287.877 87.2422 289.819 89.8219C291.93 92.6732 294.49 95.1603 297.396 97.1857C297.396 97.1857 285.182 83.1912 284.974 81.468Z" fill="black"/>
<path opacity="0.1" d="M280.887 66.8798C280.887 66.8798 282.971 75.9238 288.341 78.9941L280.887 66.8798Z" fill="black"/>
<path opacity="0.1" d="M277.688 67.7931C277.636 67.6265 275.837 74.9332 284.612 78.9935C284.612 78.9935 280.885 77.7226 277.688 67.7931Z" fill="black"/>
<path opacity="0.1" d="M332.24 61.7294C332.103 61.7294 336.569 64.5854 337.786 65.9183C337.786 65.9183 334.878 61.539 332.24 61.7294Z" fill="black"/>
<path d="M303.978 55.4768C303.98 55.7185 304.032 55.9572 304.13 56.1778C304.228 56.3984 304.37 56.5961 304.548 56.7585C304.726 56.9209 304.936 57.0444 305.164 57.1212C305.392 57.198 305.633 57.2265 305.873 57.2047C309.23 57.4142 312.73 57.5617 315.818 56.2527C316.397 56.045 316.917 55.6986 317.333 55.2436C317.882 54.5629 317.991 53.6395 318.214 52.7922C318.65 51.1357 319.578 49.6648 320.246 48.0892C321.375 45.4273 321.754 42.5041 321.339 39.6402C321.252 38.7623 320.964 37.9167 320.496 37.1697C319.606 35.8892 317.982 35.3704 316.803 34.3517C315.623 33.3331 314.866 31.7766 313.488 31.0197C312.247 30.3247 310.727 30.4104 309.33 30.6484C306.582 31.1175 303.949 32.1112 301.573 33.5759C300.772 34.0519 299.896 34.6374 298.978 34.4612C298.172 34.3089 297.585 33.6282 297.083 32.9904C296.437 34.5137 296.166 36.1709 296.292 37.8218C296.327 38.0641 296.319 38.3107 296.269 38.5501C296.153 38.8396 295.977 39.1009 295.753 39.3165C294.924 40.2685 294.408 41.8155 295.227 42.7961C295.582 43.2197 296.131 43.453 296.477 43.8861C297.097 44.662 296.889 45.7901 296.875 46.7802C296.841 47.1259 296.928 47.4728 297.121 47.7608C297.3 47.9287 297.52 48.0471 297.758 48.1047C297.996 48.1622 298.245 48.1569 298.48 48.0892C298.949 47.9472 299.442 47.9003 299.929 47.9512C300.443 48.119 300.886 48.454 301.189 48.9032C302.719 50.9072 303.325 53.0873 303.978 55.4768Z" fill="#2D293D"/>
<g opacity="0.1">
<path opacity="0.1" d="M317.723 54.4051C317.307 54.8601 316.787 55.2064 316.208 55.4142C313.101 56.7137 309.606 56.5661 306.263 56.3662C305.904 56.3698 305.549 56.29 305.226 56.133C304.714 55.8331 304.52 55.2048 304.364 54.6336C303.71 52.2535 303.109 50.0687 301.555 48.0837C301.256 47.6259 300.812 47.2823 300.296 47.1079C299.808 47.0617 299.317 47.1086 298.847 47.246C298.611 47.3142 298.363 47.3203 298.125 47.2636C297.887 47.2069 297.667 47.0893 297.487 46.9223C297.294 46.6343 297.207 46.2874 297.241 45.9417C297.241 44.9421 297.464 43.8235 296.843 43.0476C296.498 42.6145 295.948 42.3812 295.593 41.9528C295.361 41.637 295.219 41.2639 295.182 40.8733C295.144 40.4827 295.213 40.0892 295.38 39.7346C294.788 40.6866 294.537 41.8814 295.224 42.7001C295.579 43.1238 296.128 43.357 296.474 43.7902C297.094 44.5708 296.886 45.6942 296.872 46.6843C296.835 47.0295 296.921 47.3766 297.113 47.6649C297.293 47.8335 297.513 47.9525 297.752 48.01C297.991 48.0676 298.241 48.0618 298.477 47.9933C298.946 47.8513 299.439 47.8043 299.926 47.8553C300.44 48.0231 300.883 48.358 301.186 48.8073C302.735 50.7922 303.341 52.9723 303.994 55.3619C304.071 55.9499 304.363 56.488 304.814 56.8708C305.138 57.0281 305.495 57.1063 305.855 57.0993C309.213 57.3087 312.713 57.461 315.8 56.1473C316.38 55.9409 316.901 55.5943 317.316 55.1381C317.524 54.87 317.685 54.5671 317.789 54.2432C317.794 54.3051 317.761 54.3575 317.723 54.4051Z" fill="black"/>
<path opacity="0.1" d="M296.291 38.2631C296.44 38.1008 296.554 37.9096 296.627 37.7014C296.67 37.4606 296.67 37.214 296.627 36.9732C296.535 35.616 296.71 34.254 297.143 32.9652L297.082 32.8938C296.434 34.4148 296.162 36.071 296.291 37.7205C296.305 37.9011 296.305 38.0825 296.291 38.2631Z" fill="black"/>
</g>
<path opacity="0.1" d="M302.014 62.1921C302.014 62.1921 315.78 64.0295 317.016 61.9493L302.014 62.1921Z" fill="black"/>
<path opacity="0.1" d="M328.775 56.4647C328.775 56.4647 336.428 56.4647 338.109 59.3588L328.775 56.4647Z" fill="black"/>
<path d="M23.4439 247.035C23.4439 247.035 37.6241 254.811 37.0453 257.23C36.7314 258.543 29.1073 256.582 21.9343 254.083C15.8853 251.975 25.2907 252.908 24.5379 251.673C22.8925 248.972 23.4439 247.035 23.4439 247.035Z" fill="#2F2E41"/>
<path d="M57.5319 244.76C57.5319 244.76 73.1281 248.99 73.1281 251.478C73.1281 253.966 46.3917 251.478 44.1637 249.239C41.9356 247 57.5319 244.76 57.5319 244.76Z" fill="#2F2E41"/>
<path d="M30.7959 135.292L37.48 146.488C37.48 146.488 48.6202 175.597 50.8482 193.51C53.0763 211.423 66.4445 242.771 61.9884 247.249C57.5323 251.727 35.252 251.976 35.252 247.249V155.445L30.7959 135.292Z" fill="#2F2E41"/>
<path opacity="0.1" d="M30.7959 135.292L37.48 146.488C37.48 146.488 48.6202 175.597 50.8482 193.51C53.0763 211.423 66.4445 242.771 61.9884 247.249C57.5323 251.727 35.252 251.976 35.252 247.249V155.445L30.7959 135.292Z" fill="black"/>
<path d="M12.9712 126.336V135.292C12.9712 137.531 26.3394 137.531 26.3394 137.531V128.575L12.9712 126.336Z" fill="#A0616A"/>
<path d="M19.656 130.814L13.0957 132.929C13.0957 132.929 6.28778 145.99 8.51582 152.956C10.7439 159.923 17.428 197.988 17.428 197.988V222.618C17.428 222.618 4.05974 245.01 10.7439 249.488C17.428 253.966 30.7962 258.693 33.0242 256.205C35.2523 253.717 37.4803 159.923 37.4803 159.923V146.488L35.2523 128.575L19.656 130.814Z" fill="#2F2E41"/>
<path d="M31.2367 82.8067C38.4436 82.8067 44.2859 76.9353 44.2859 69.6926C44.2859 62.4498 38.4436 56.5784 31.2367 56.5784C24.0298 56.5784 18.1875 62.4498 18.1875 69.6926C18.1875 76.9353 24.0298 82.8067 31.2367 82.8067Z" fill="#2F2E41"/>
<path d="M17.1019 65.5401C24.3088 65.5401 30.1511 59.6687 30.1511 52.426C30.1511 45.1832 24.3088 39.3118 17.1019 39.3118C9.89506 39.3118 4.05273 45.1832 4.05273 52.426C4.05273 59.6687 9.89506 65.5401 17.1019 65.5401Z" fill="#2F2E41"/>
<path d="M5.84645 63.2857C7.53542 64.5125 9.49218 65.3149 11.553 65.6259C13.6139 65.9369 15.7188 65.7474 17.6918 65.0732C19.6648 64.399 21.4485 63.2597 22.8936 61.7507C24.3386 60.2417 25.4031 58.4068 25.9979 56.3996C25.7728 58.1984 25.1791 59.9307 24.2542 61.4873C23.3293 63.0438 22.0934 64.3907 20.6244 65.443C19.1554 66.4953 17.4853 67.23 15.7195 67.6009C13.9537 67.9718 12.1306 67.9707 10.3652 67.5977C8.59982 67.2247 6.93057 66.488 5.46283 65.434C3.99509 64.3799 2.76073 63.0315 1.8377 61.4739C0.91466 59.9163 0.322991 58.1832 0.100045 56.3842C-0.1229 54.5852 0.02772 52.7592 0.542396 51.0216C0.250085 53.356 0.588287 55.7265 1.52153 57.8844C2.45477 60.0422 3.94865 61.9079 5.84645 63.2857Z" fill="#2F2E41"/>
<path d="M35.8062 74.9388C40.4907 74.9388 44.2882 71.9542 44.2882 68.2725C44.2882 64.5907 40.4907 61.6061 35.8062 61.6061C31.1217 61.6061 27.3242 64.5907 27.3242 68.2725C27.3242 71.9542 31.1217 74.9388 35.8062 74.9388Z" fill="#2F2E41"/>
<path d="M33.1463 83.5441C39.2305 83.5441 44.1627 78.5874 44.1627 72.4729C44.1627 66.3584 39.2305 61.4016 33.1463 61.4016C27.0621 61.4016 22.1299 66.3584 22.1299 72.4729C22.1299 78.5874 27.0621 83.5441 33.1463 83.5441Z" fill="#A0616A"/>
<path d="M26.3386 79.3143C26.3386 79.3143 28.5666 83.7926 24.1106 86.0317C19.6545 88.2709 33.0227 97.2274 33.0227 97.2274L37.4788 81.5535L26.3386 79.3143Z" fill="#A0616A"/>
<path d="M28.5675 88.2704C28.5675 88.2704 24.1114 81.553 21.8833 86.0312C19.6553 90.5095 8.51514 103.944 8.51514 117.379C8.51514 130.814 8.51514 130.814 10.7432 130.814C12.9712 130.814 19.6553 128.575 21.8833 130.814C24.1114 133.053 33.0235 130.814 33.0235 130.814L35.2516 110.662C35.2516 110.662 37.4796 99.466 35.2516 97.2269C33.0235 94.9878 28.5675 88.2704 28.5675 88.2704Z" fill="#FF8833"/>
<path d="M17.4282 97.2278C17.4282 97.2278 10.7441 130.815 17.4282 133.054C24.1123 135.293 44.1647 144.001 44.1647 141.762C44.1647 139.522 46.3927 137.283 46.3927 137.283C46.3927 137.283 48.6207 139.522 48.6207 137.283V133.054L26.3404 124.097V101.706C26.3404 101.706 30.7965 90.5104 26.3404 90.5104C21.8843 90.5104 17.4282 97.2278 17.4282 97.2278Z" fill="#FF8833"/>
<path d="M46.3931 133.053C46.3931 133.053 61.7418 133.053 61.9893 137.531C62.2369 142.01 46.3931 137.283 46.3931 137.283V133.053Z" fill="#A0616A"/>
<path d="M33.4599 70.4721C38.7413 68.8001 42.2735 65.0542 41.3492 62.1055C40.4249 59.1568 35.3941 58.1218 30.1127 59.7938C24.8313 61.4658 21.2991 65.2117 22.2234 68.1605C23.1477 71.1092 28.1785 72.1442 33.4599 70.4721Z" fill="#2F2E41"/>
<defs>
<linearGradient id="paint0_linear" x1="291.88" y1="259.986" x2="291.88" y2="27.3814" gradientUnits="userSpaceOnUse">
<stop stop-color="#808080" stop-opacity="0.25"/>
<stop offset="0.54" stop-color="#808080" stop-opacity="0.12"/>
<stop offset="1" stop-color="#808080" stop-opacity="0.1"/>
</linearGradient>
</defs>
</svg>
