<svg width="533" height="960" viewBox="0 0 533 960" fill="none" xmlns="http://www.w3.org/2000/svg">
<path d="M710.783 646.252C710.826 689.073 702.439 731.483 686.101 771.053C669.763 810.623 645.795 846.576 615.57 876.856C585.344 907.135 549.455 931.145 509.955 947.512C470.455 963.879 428.121 972.281 385.376 972.238C383.522 972.238 381.668 972.218 379.814 972.179C372.004 972.06 364.293 971.665 356.621 970.993C293.731 965.407 233.821 941.615 184.193 902.516C134.565 863.417 97.3626 810.7 77.1195 750.79C56.8764 690.88 54.4672 626.364 70.1854 565.107C85.9037 503.849 119.071 448.495 165.644 405.79C212.217 363.086 270.185 334.876 332.482 324.598C394.78 314.321 458.717 322.42 516.5 347.908C574.283 373.396 623.418 415.173 657.914 468.147C692.411 521.12 710.78 583.003 710.783 646.252Z" fill="#FF6A00"/>
<path d="M571.709 528.724C592.108 492.686 605.423 453.064 610.932 412.005C567.651 370.205 513.658 341.234 454.941 328.306C396.225 315.377 335.081 318.995 278.292 338.76C221.504 358.525 171.291 393.663 133.224 440.276C95.1574 486.89 70.7247 543.156 62.6367 602.834C116.082 654.591 185.66 686.376 259.712 692.863C267.384 693.534 275.095 693.93 282.905 694.048C284.759 694.088 286.613 694.107 288.467 694.107C346.075 694.169 402.664 678.886 452.435 649.825C502.206 620.764 543.37 578.969 571.709 528.724Z" fill="#FAB072"/>
<path d="M482.302 217.976C541.462 217.976 589.42 169.932 589.42 110.667C589.42 51.4018 541.462 3.35791 482.302 3.35791C423.142 3.35791 375.184 51.4018 375.184 110.667C375.184 169.932 423.142 217.976 482.302 217.976Z" fill="#FAB072" fill-opacity="0.5"/>
<path d="M482.023 183.964C482.023 264.928 433.976 293.198 374.708 293.198C315.439 293.198 267.393 264.928 267.393 183.964C267.393 102.999 374.708 0 374.708 0C374.708 0 482.023 102.999 482.023 183.964Z" fill="#F7F7F7"/>
<path d="M740.59 304.98C714.947 381.761 660.43 393.299 604.224 374.46C548.017 355.622 511.407 313.542 537.05 236.761C562.692 159.98 697.084 96.4115 697.084 96.4115C697.084 96.4115 766.233 228.199 740.59 304.98Z" fill="#F7F7F7"/>
<path d="M207.917 243.198C236.983 318.745 202.3 362.434 146.997 383.787C91.6941 405.14 36.7135 396.072 7.64726 320.525C-21.4189 244.977 41.739 110.206 41.739 110.206C41.739 110.206 178.851 167.651 207.917 243.198Z" fill="#F7F7F7"/>
<g clip-path="url(#clip0)">
<path d="M158.565 430.595L91.5726 240.449C90.1789 236.518 95.8567 234.227 97.6256 237.958L183.012 420.654C183.791 422.391 183.008 424.33 181.272 425.109L162.75 432.665C161.154 433.22 159.215 432.437 158.565 430.595Z" fill="#495057"/>
<path d="M125.234 313.946L147.322 271.161C147.778 270.138 150.281 271.213 149.943 272.247L133.225 323.148C133.062 323.607 132.334 323.773 131.535 323.457L123.674 320.197C122.992 319.893 125.07 314.404 125.234 313.946Z" fill="#495057"/>
<path d="M78.8492 260.195L109.29 270.173L113.893 281.297L77.7743 262.699C76.7519 262.243 77.8153 259.857 78.8492 260.195Z" fill="#495057"/>
<path d="M98.8785 334.033L129.32 344.01L133.922 355.134L97.8036 336.536C96.7812 336.081 97.8446 333.694 98.8785 334.033Z" fill="#495057"/>
</g>
<g clip-path="url(#clip1)">
<path d="M357.93 354.99L365.003 153.505C365.141 149.336 371.263 149.279 371.547 153.398L384.318 354.67C384.408 356.571 382.971 358.091 381.071 358.181L361.069 358.446C359.381 358.38 357.862 356.943 357.93 354.99Z" fill="#495057"/>
<path d="M369.666 232.579L405.852 200.822C406.65 200.037 408.587 201.952 407.895 202.792L373.745 244.066C373.425 244.433 372.687 244.322 372.059 243.736L365.931 237.829C365.408 237.297 369.347 232.946 369.666 232.579Z" fill="#495057"/>
<path d="M345.952 167.238L370.646 187.65L370.868 199.687L344.037 169.176C343.252 168.378 345.113 166.545 345.952 167.238Z" fill="#495057"/>
<path d="M337.813 238.618L362.507 259.029L362.729 271.067L335.898 240.556C335.113 239.758 336.974 237.925 337.813 238.618Z" fill="#495057"/>
</g>
<defs>
<clipPath id="clip0">
<rect width="121.061" height="189.322" fill="white" transform="matrix(0.995241 0.0974454 -0.0973822 0.995247 80.0547 234.578)"/>
</clipPath>
<clipPath id="clip1">
<rect width="121.069" height="189.31" fill="white" transform="matrix(0.890822 0.454353 -0.454117 0.890942 356.424 143.83)"/>
</clipPath>
</defs>
</svg>
